<?xml version="1.0" encoding="utf-8"?>
<!-- Generator: Adobe Illustrator 17.0.0, SVG Export Plug-In . SVG Version: 6.00 Build 0)  -->
<!DOCTYPE svg PUBLIC "-//W3C//DTD SVG 1.1//EN" "http://www.w3.org/Graphics/SVG/1.1/DTD/svg11.dtd">
<svg version="1.1" id="Слой_1" xmlns="http://www.w3.org/2000/svg" xmlns:xlink="http://www.w3.org/1999/xlink" x="0px" y="0px"
	 width="700px" height="700px" viewBox="0 0 700 700" enable-background="new 0 0 700 700" xml:space="preserve">
<path fill="#B988BA" d="M125.38,369.538c0,0-33.298-145.699,34.519-231.566C220.06,61.799,311.85,52.038,345.314,49.611
	c70.024-5.078,218.943,42.32,248.535,140.158c37.478,123.908,10.849,208.206-12.821,166.565
	c-11.811-20.779-71.793,12.133,1.973,104.611c22.684,28.438,22.684,58.907,30.574,91.407c11.943,49.197,6.515,53.308,2.959,71.095
	c-6.904,34.532-48.635,61.23-31.56-31.485c10.849-58.907-9.97-79.935-21.698-91.407c-19.725-19.297-28.601-77.189-70.024-86.329
	c-36.722-8.103,28.601,68.048,4.931,107.658c-23.67,39.61-46.354,74.142-36.491,95.47s10.849,65.001-14.794,49.766
	c-25.643-15.235-25.643-56.876-10.849-95.47c14.794-38.594,53.869-147.837,9.863-149.299c-30.574-1.016-41.423,24.375-41.423,24.375
	s-9.863,35.547,15.78,63.985c21.208,23.52,59.022,39.343,60.161,79.22c0.986,34.532-4.931,52.813-19.725,49.766
	c-14.794-3.047-2.959-37.579-47.34-80.235c-44.381-42.657-60.161-59.923-51.285-106.642c8.876-46.719-46.354-55.86-57.203-16.25
	c-10.849,39.61,34.519,66.017,17.753,102.579c-16.766,36.563-30.574,66.017-23.67,80.235c6.904,14.219,39.45,53.829,22.684,66.017
	c-16.766,12.188-83.831-22.344-55.23-99.533s25.643-77.189,11.835-104.611s2.959-61.954-17.753-62.97
	c-20.711-1.016-31.56,21.328-24.656,38.594s22.684,50.782,4.931,69.063c-17.753,18.282-49.313,49.766-41.423,77.189
	s20.711,38.594,1.973,60.938s-68.051-41.641-39.45-80.235c28.601-38.594,57.203-52.813,58.189-77.189
	c0.986-24.375-21.698-27.422-17.753-53.829s-15.78-41.641-27.615-25.391c-11.835,16.25,3.945,33.516-5.918,57.891
	c-9.261,22.888-9.863,45.704-38.464,62.97c-27.399,16.54-20.711,50.782-52.271,67.032c-23.003,11.844-79.594,5.252-24.656-48.751
	c21.698-21.328,71.908-23.999,77.914-84.298c7.89-79.22,53.258-96.486,36.491-123.908
	C153.591,335.144,144.119,390.866,125.38,369.538z"/>
<path fill="#FFFFFF" d="M452.898,189.281c0,0,42.862-49.717,56.13,20.59c8.332,44.15,12.135,103.941-14.385,76.956
	c-26.52-26.985-41.206-18.76-51.129-4.586C436.286,292.563,377.806,299.308,452.898,189.281z"/>
<g>
	<path fill="#A660A2" d="M202.307,542.196c-3.675,5.551-8.873,9.281-14.458,11.539c-8.097,8.356-17.038,18.038-25.978,30.103
		c-28.601,38.594,20.711,102.579,39.45,80.235c18.739-22.344,5.917-33.516-1.973-60.938c-7.206-25.045,18.491-53.474,36.525-72.143
		C230.646,521.707,213.607,525.129,202.307,542.196z"/>
	<path fill="#A660A2" d="M321.644,685.401c12.443-9.045-2.272-33.189-13.512-50.854c-11.11,11.507-26.116-2.899-42.705,0.072
		c-1.754,0.314-3.436,0.164-5.047-0.385C267.264,676.995,308.924,694.648,321.644,685.401z"/>
	<path fill="#A660A2" d="M78.04,615.322c31.56-16.25,24.872-50.492,52.271-67.032c18.404-11.11,25.212-24.52,30.196-38.767
		c-2.321-20.011-8.038-42.934-11.458-54.672c-5.918-20.313,48.326-57.891,44.381-100.548c-3.121-33.745-51.29-12.831-71.284-2.619
		c1.722,11.229,3.233,17.854,3.233,17.854c18.739,21.328,28.211-34.394,42.409-11.172c16.766,27.422-28.601,44.688-36.491,123.908
		c-6.006,60.3-56.216,62.97-77.914,84.298C-1.554,620.574,55.037,627.167,78.04,615.322z"/>
	<path fill="#A660A2" d="M616.533,623.447c3.556-17.787,8.985-21.898-2.959-71.095c-7.433-30.617-7.871-59.43-26.86-86.441
		c-0.805,2.094-1.402,4.177-1.741,6.206c-4.931,29.454,16.766,17.266,20.711,59.923c2.511,27.155-9.365,46.069-20.619,59.381
		c-0.033,0.184-0.059,0.358-0.093,0.542C567.898,684.677,609.629,657.979,616.533,623.447z"/>
	<path fill="#A660A2" d="M320.52,498.706c-2.542,3.129-5.119,7.09-7.752,12.005c-8.504,15.874-2.973,28.804,2.238,45.136
		c2.422-5.369,4.987-10.946,7.625-16.699C329.328,524.544,326.108,511.559,320.52,498.706z"/>
	<path fill="#A660A2" d="M467.575,639.38c9.205-3.251,13.207-18.968,12.943-44.74c-4.011-11.066-15.44-17.018-32.634-21.975
		c-10.401-2.999-19.565-3.473-26.694-5.147c4.447,4.918,8.175,9.7,11.331,14.309c-11.062,35.499-9.023,71.39,14.377,85.292
		C465.161,677.97,469.914,658.938,467.575,639.38z"/>
	<path fill="#A660A2" d="M373.479,516.792c7.61,10.741,18.444,21.892,32.659,35.693c-0.429-2.361-0.663-5.076-0.663-8.257
		C405.475,523.487,388.689,523.268,373.479,516.792z"/>
</g>
<path fill="#835589" d="M467.575,639.38c0.178-0.063,0.36-0.116,0.534-0.188c-15.97-38.138-27.812-52.266-35.831-56.603
	c-10.797,35.25-8.613,70.728,14.619,84.53C465.161,677.97,469.914,658.938,467.575,639.38z"/>
<g>
	<path fill="#835589" d="M321.644,685.401c3.919-2.849,5.121-7.208,4.608-12.379c-6.788,5.567-14.816,9.7-23.403,13.115
		C310.669,688.553,317.612,688.332,321.644,685.401z"/>
	<path fill="#835589" d="M599.767,492.43c0.169,0.192,0.366,0.436,0.551,0.658c-1.992-5.875-4.432-11.671-7.538-17.389
		C591.959,480.533,594.379,486.327,599.767,492.43z"/>
	<path fill="#835589" d="M167.931,652.754c10.86,14.203,25.109,21.193,33.39,11.319c13.427-16.01,10.649-26.286,5.094-40.912
		c-3.022,5.298-6.384,11.377-10.025,17.552C189.978,651.589,179.956,654.141,167.931,652.754z"/>
	<path fill="#835589" d="M78.04,615.322c3.385-1.743,6.307-3.702,8.901-5.815c3.27-5.549,7.089-12.552,9.837-21.607
		c3.552-11.704,9.256-34.647,12.577-57.731c-18.049,17.109-42.503,23.163-55.972,36.403
		C-1.554,620.574,55.037,627.167,78.04,615.322z"/>
	<path fill="#835589" d="M609.109,642.089c-9.818,2.985-20.105,2.01-27.642-3.077C584.537,663.265,599.461,657.482,609.109,642.089z
		"/>
	<path fill="#835589" d="M448.892,535.708c7.327,9.778,19.88,26.664,26.284,31.627c-0.516-1.114-1.056-2.212-1.635-3.283
		c6.95-13.047,15.725-27.247,24.643-42.17c0.844-1.412,1.562-2.875,2.188-4.374c-14.63,0.613-38.639,5.364-48.921,10.229
		C450.604,530.438,449.749,533.1,448.892,535.708z"/>
</g>
<path fill="#A0589E" d="M202.308,253.755c0,0-27.615,18.281-18.739,38.594s23.67,39.61,13.808,55.86
	c-9.863,16.25,24.656,45.704,51.285,22.344c26.629-23.36,18.739-28.438,0.986-77.189s3.945-70.079-19.725-55.86
	C206.253,251.724,202.308,253.755,202.308,253.755z"/>
<path fill="#A0589E" d="M202.308,153.207c0-16.282,3.945-39.61,23.67-24.375c19.725,15.235-13.808,20.313-9.863,35.547
	C220.06,179.613,202.308,176.566,202.308,153.207z"/>
<path fill="#A0589E" d="M469.582,379.694c-44.537-19.311-45.123,26.392-43.444,46.219c5.396-2.34,11.932-3.823,19.774-3.562
	c18.158,0.603,22.164,19.563,19.574,44.332c8.502,1.746,18.167-9.722,22.504-23.939c-7.22-19.076-11.057-32.119,5.262-28.518
	c7.788,1.719,14.425,5.162,20.2,9.747c0.799-1.466,1.623-3.011,2.484-4.669C546.509,360.397,525.798,404.069,469.582,379.694z"/>
<path fill="#A0589E" d="M304.878,436.57c1.886-6.886,5.116-12.295,9.115-16.294c-7.7-6.092-7.064-7.174-16.018,5.121
	c-7.51,10.311-0.725,19.799,5.238,25.361C303.052,446.202,303.531,441.488,304.878,436.57z"/>
<path fill="#A0589E" d="M345.314,49.611c-5.5,0.399-12.583,0.999-20.834,2.056c3.318,18.189,12.488,47.323,37.601,56.851
	c37.478,14.219,77.914-28.438,70.024,12.188c-7.89,40.626-31.56,70.079,8.876,79.22c40.436,9.141,102.57-61.954,110.46-11.172
	c6.721,43.26,23.467,87.244,58.765,77.981c-2.694-22.968-7.882-48.949-16.356-76.965C564.257,91.932,415.338,44.533,345.314,49.611z
	"/>
<path fill="#FFFFFF" d="M277.428,189.747c0,0-44.418-48.247-55.446,22.469c-6.925,44.407-8.829,104.294,16.821,76.431
	c25.649-27.863,40.588-20.137,50.956-6.305C297.31,292.415,355.973,297.187,277.428,189.747z"/>
<path fill="#FFFFFF" d="M452.898,189.281c0,0,42.862-49.717,56.13,20.59c8.332,44.15,12.135,103.941-14.385,76.956
	c-26.52-26.985-41.206-18.76-51.129-4.586C436.286,292.563,377.806,299.308,452.898,189.281z"/>
<path fill="#2D314B" d="M279.793,193.018c-26.556,5.217-67.842,22.462-19.754,78.977c13.367-5.734,22.617,0.87,29.719,10.346
	C297.232,292.311,354.746,297.069,279.793,193.018z"/>
<path fill="#3E283B" d="M436.049,131.878c0,0,21.698-24.375,46.354-23.36C507.059,109.534,401.53,188.754,436.049,131.878z"/>
<path fill="#25191D" d="M249.373,107.503c-24.656,1.016,80.873,80.235,46.354,23.36C295.727,130.862,274.03,106.487,249.373,107.503
	"/>
<path fill="#FFFFFF" d="M260.496,226.333c-5.368-12.161,36.491-9.141,29.588,6.094C283.18,247.661,265.428,237.505,260.496,226.333z
	"/>
<g>
	<path fill="#FFFFFF" d="M452.898,189.281c0,0,42.862-49.717,56.13,20.59c8.332,44.15,12.135,103.941-14.385,76.956
		c-26.52-26.985-41.206-18.76-51.129-4.586C436.286,292.563,377.806,299.308,452.898,189.281z"/>
	<path fill="#2D314B" d="M450.777,192.423c-71.822,106.734-14.422,100.041-7.264,89.818c7.02-10.026,16.429-17.058,30.719-10.773
		C523.607,213.014,476.889,196.844,450.777,192.423z"/>
	<path fill="#FFFFFF" d="M437.035,230.395c0,0,11.835-18.281,22.684-6.094S434.077,248.677,437.035,230.395z"/>
	<path fill="#FFFFFF" d="M476.485,196.879c0,0-12.821,24.375,14.794,14.219C518.894,200.942,479.444,198.91,476.485,196.879z"/>
</g>
<path fill="#FFFFFF" d="M263.455,192.816c0,0,16.766,22.344-19.725,10.156S263.455,192.816,263.455,192.816z"/>
<path fill="#FFFFFF" d="M318.685,299.677c0,0,74.284,8.932,94.24-5.104C432.882,280.536,374.121,429.835,318.685,299.677z"/>
</svg>
