<?xml version="1.0" encoding="utf-8"?>
<!-- Generator: Adobe Illustrator 17.0.0, SVG Export Plug-In . SVG Version: 6.00 Build 0)  -->
<!DOCTYPE svg PUBLIC "-//W3C//DTD SVG 1.1//EN" "http://www.w3.org/Graphics/SVG/1.1/DTD/svg11.dtd">
<svg version="1.1" id="Слой_1" xmlns="http://www.w3.org/2000/svg" xmlns:xlink="http://www.w3.org/1999/xlink" x="0px" y="0px"
	 width="600px" height="600px" viewBox="0 0 600 600" enable-background="new 0 0 600 600" xml:space="preserve">
<g id="Слой_1_1_">
	<g>
		<g>
			<path fill="#7FDCFF" d="M478.223,451.333c-86.1,5.381-118.666-100.667-9.333-40.667s124.667-174-20-244.667
				s-257.277,25.66-256,94c0.439,23.486,0.878,51.813-2.299,77.963c-0.699,5.749-1.572,11.393-2.658,16.857
				s-2.386,10.748-3.938,15.778c-11.274,36.552-19.937,80.903-70.937,50.903c-45-8-140,132-48,116c12-26,8-37.333,32-60
				s74.543-13.825,75-13c18.166,32.833-32,57.667,30,69c-2.333-31.666-23.834-50.167,32.833-70.834
				c0,0,146.834-16.833,100.167,29.834c-25,43.834,19-41,50.333,35.167c0,0,61.75,39,65.5,22.333
				c-20.833-56.5-48.765-68.191,42.667-56c30,4-94.167-15.833-29.5-18.5C464.057,475.499,556.058,494.5,478.223,451.333z"/>
			<path fill="#30CBFF" d="M178.558,415c68-70.5,76.5-114,79-152c-3.312-19.874-25.946-38.644,35-97
				c27.5-20.5,72.719-28.733,120.757-14.782c0,0.003,8.91,170.116,6.91,208.783c-1.088,21.036-74.986,67.525-154.816,112.632
				C248.833,465.861,235.558,462,235.558,462c-22.665,8.266-39.797,12.429-30.167,24.833c-22.862,12.56-7.843,38.674-28.333,49.667
				c-65,3,16-31.333-12-62c-12-13.333-55-15-72,8c-15.802,21.379-10,24-9,40.333c0,17.667-30,19.333-37,15.667
				c4.391-8.817,11.771-9.022,14.333-15c10-23.333-18.667-21,12.667-69S120.558,475,178.558,415z"/>
			<g>
				<path fill="#006C8A" d="M469.558,410c-6.176-3.389-11.894-6.244-17.181-8.623c9.118-7.809,23.906-17.114,42.514-28.71
					c39.443-24.58,39.675-77.094,50.286-93.67C572.207,363.137,540.894,449.148,469.558,410z"/>
				<path fill="#46B6FF" d="M197.058,539.5l-2.333,17.333c-37.781-8.103-43.449-5.76-43.667-27.333c39.725,8.795-7.5-97,68.5-104
					c42,10.667,119.334,4.5,126.667-49.5s24.292-75.743,22-108c-5.764-81.108,22.541-108.049,45.035-116.799
					c0.019,0.005,0.037,0.011,0.056,0.017c1.07,0.311,2.143,0.632,3.219,0.963c0.152,0.047,0.304,0.097,0.456,0.144
					c0.951,0.296,1.904,0.596,2.859,0.908c0.129,0.042,0.259,0.087,0.388,0.13c0.984,0.323,1.969,0.652,2.958,0.993
					c0.079,0.027,0.158,0.056,0.236,0.083c1.043,0.361,2.088,0.73,3.136,1.11c0.026,0.009,0.051,0.019,0.077,0.028
					c4.463,1.623,8.971,3.425,13.521,5.414h0.001c3.032,30.246,11.976,108.629,32.058,213.675
					c2.759,14.433,3.161,26.825,1.62,37.551c-0.695-0.34-1.392-0.69-2.094-1.052c-0.727-0.377-1.457-0.762-2.193-1.165
					c-1.509-0.828-2.986-1.619-4.441-2.385c-0.091-0.048-0.181-0.096-0.271-0.144c-0.001,0-0.001-0.001-0.002-0.001
					c-1.313-0.689-2.6-1.348-3.869-1.987c-0.001,0-0.002-0.001-0.003-0.001c-0.157-0.079-0.315-0.158-0.472-0.237
					c-1.294-0.648-2.565-1.27-3.813-1.867c0,0-0.001-0.001-0.002-0.001c-0.125-0.06-0.25-0.119-0.374-0.178
					c-1.289-0.613-2.557-1.203-3.798-1.762l0,0c-0.162-0.073-0.321-0.143-0.482-0.215h-0.001c-2.457-1.1-4.82-2.098-7.088-2.995
					h-0.001c-0.103-0.041-0.208-0.084-0.31-0.124h-0.001c-2.304-0.905-4.508-1.704-6.619-2.409h-0.001
					c-0.173-0.058-0.345-0.115-0.517-0.171l0,0c-0.957-0.315-1.896-0.611-2.813-0.885h-0.001c-0.108-0.032-0.215-0.063-0.323-0.095
					c-0.979-0.29-1.939-0.561-2.872-0.806l0,0c-0.08-0.021-0.158-0.039-0.237-0.06c-0.001,0-0.002,0-0.003-0.001
					c-1.862-0.483-3.632-0.877-5.316-1.19c-0.001,0-0.001,0-0.001,0c-0.082-0.015-0.163-0.031-0.245-0.046
					c-0.82-0.149-1.617-0.277-2.395-0.388l0,0c-0.134-0.019-0.268-0.038-0.4-0.056c0,0,0,0-0.001,0
					c-0.769-0.103-1.517-0.188-2.245-0.254c-0.082-0.007-0.165-0.014-0.247-0.021h-0.001c-0.705-0.06-1.393-0.106-2.059-0.133
					c-0.076-0.003-0.149-0.004-0.225-0.006h-0.001c-1.382-0.047-2.68-0.02-3.895,0.075l0,0c-0.077,0.006-0.157,0.01-0.233,0.017l0,0
					c-1.286,0.11-2.476,0.3-3.576,0.559c-0.039,0.009-0.078,0.018-0.117,0.028l0,0c-0.523,0.126-1.025,0.268-1.506,0.426
					c-0.026,0.009-0.053,0.018-0.079,0.027l0,0c-0.461,0.154-0.906,0.319-1.329,0.501l0,0c-0.018,0.008-0.034,0.016-0.051,0.024
					h-0.001c-0.419,0.183-0.817,0.381-1.198,0.59l0,0c-0.039,0.022-0.081,0.042-0.12,0.064l0,0c-0.369,0.208-0.718,0.43-1.051,0.663
					l0,0c-0.008,0.006-0.017,0.012-0.025,0.018c-0.372,0.26-0.721,0.535-1.049,0.824c-0.05,0.044-0.099,0.089-0.148,0.133l0,0
					c-0.288,0.264-0.559,0.538-0.812,0.823c-0.032,0.037-0.063,0.074-0.095,0.111l0,0c-0.251,0.292-0.488,0.592-0.703,0.904l0,0
					c-0.016,0.023-0.03,0.047-0.045,0.07l0,0c-0.224,0.331-0.429,0.672-0.614,1.024c-0.005,0.009-0.01,0.017-0.015,0.026l0,0
					c-0.19,0.365-0.356,0.742-0.504,1.129c-0.009,0.022-0.018,0.044-0.027,0.066l0,0c-0.143,0.379-0.265,0.769-0.369,1.167
					c-0.008,0.029-0.016,0.058-0.023,0.088v0.001c-0.311,1.226-0.445,2.539-0.402,3.922l0,0c0,0.002,0,0.003,0,0.005
					c0.015,0.468,0.052,0.945,0.106,1.428c0.002,0.025,0.005,0.05,0.008,0.076l0,0c0.053,0.456,0.126,0.92,0.214,1.388
					c0.008,0.046,0.017,0.093,0.026,0.139l0,0c0.087,0.445,0.189,0.895,0.306,1.35l0,0c0.017,0.066,0.035,0.132,0.053,0.198l0,0
					c0.124,0.464,0.262,0.932,0.418,1.405c0,0,0,0,0,0.001c0.015,0.046,0.032,0.092,0.047,0.137v0.001
					c0.335,0.999,0.739,2.016,1.212,3.045l0.001,0.001c0.007,0.016,0.014,0.031,0.021,0.047c0.26,0.564,0.542,1.132,0.843,1.702
					c0.006,0.012,0.013,0.025,0.019,0.037l0,0c0.557,1.053,1.182,2.115,1.874,3.182c0,0,0,0,0,0.001
					c0.033,0.051,0.067,0.101,0.1,0.152v0.001c0.344,0.525,0.702,1.051,1.078,1.577c0.003,0.005,0.007,0.01,0.01,0.014
					c0,0.001,0.001,0.001,0.002,0.002c0.387,0.54,0.79,1.081,1.21,1.62c0,0.001,0.001,0.001,0.001,0.002
					c0.011,0.014,0.021,0.027,0.031,0.041c0,0,0,0.001,0.001,0.001c0.407,0.522,0.832,1.043,1.27,1.564l0,0
					c0.041,0.049,0.082,0.098,0.123,0.148c0,0,0,0,0.001,0.001c0.915,1.08,1.897,2.155,2.942,3.219c0.04,0.04,0.08,0.08,0.119,0.12
					l0,0c0.512,0.519,1.038,1.035,1.58,1.547c0.009,0.008,0.018,0.017,0.027,0.025l0,0c1.11,1.048,2.284,2.081,3.518,3.095
					c0.039,0.032,0.077,0.064,0.116,0.096c0,0,0.001,0,0.001,0.001c3.15,2.577,6.694,5.023,10.601,7.246
					c0.001,0,0.001,0.001,0.002,0.001c0.022,0.013,0.045,0.026,0.067,0.039c0.823,0.467,1.663,0.924,2.519,1.37
					c0.004,0.002,0.009,0.005,0.013,0.007l0,0c4.033,2.104,8.419,3.966,13.126,5.495h0.001c0.087,0.028,0.174,0.057,0.261,0.085l0,0
					c1.854,0.596,3.757,1.139,5.709,1.626l0,0c0.051,0.013,0.102,0.025,0.153,0.037c1.009,0.25,2.03,0.486,3.065,0.704
					c0.017,0.003,0.033,0.007,0.05,0.01c0.001,0,0.002,0,0.003,0.001c1.015,0.214,2.042,0.413,3.081,0.594
					c-29.635,30.927-99.521,36.368-147.992,54.054c-11.576-11.693-5.333,9.333-11.333,0.667c-0.917-0.397-3.333,4-30-26
					c-8-12-27.023-14.889-27.26-14.964c-0.004-0.001-0.008-0.002-0.011-0.004c-0.001,0-0.002-0.001-0.003-0.001
					c-0.473-0.151-0.908-0.288-1.301-0.41c-0.005-0.002-0.011-0.003-0.016-0.005c-0.021-0.007-0.042-0.013-0.062-0.019
					c-0.196-0.061-0.383-0.119-0.557-0.173c-0.008-0.003-0.016-0.005-0.024-0.008c-0.002-0.001-0.003-0.001-0.005-0.002
					c-0.159-0.049-0.311-0.096-0.451-0.139c-0.015-0.005-0.029-0.009-0.044-0.013c-0.139-0.042-0.265-0.081-0.384-0.117
					c-0.001,0-0.003-0.001-0.004-0.001c-0.022-0.007-0.042-0.013-0.064-0.019c-0.004-0.001-0.007-0.002-0.011-0.003
					c-0.1-0.03-0.193-0.058-0.278-0.084c-0.004-0.001-0.009-0.003-0.013-0.004c-0.01-0.003-0.021-0.006-0.031-0.009
					c-0.002-0.001-0.004-0.001-0.007-0.002c-0.282-0.085-0.472-0.141-0.567-0.169c-0.001,0-0.003-0.001-0.004-0.001
					c-0.01-0.003-0.009-0.003-0.017-0.005c-0.032-0.009-0.053-0.015-0.053-0.015c-56.667,20.667-13.333,18.5-37.5,44.167
					C208.725,525.5,198.382,539.405,197.058,539.5z"/>
			</g>
			<path fill="#3E90FF" d="M269.058,480.5c-8-18,21.667-10.333,34.5-5.834c25.5,9.834,50.338,8.668,34.5-40.166
				c-12-37,32.027-55.372,22-103c-8-38,76.5-50.5,58.5-86c-31.5-50,3-91.5,3-91.5s0.017-0.062,0.052-0.179
				c9.13,3.066,18.451,6.873,27.948,11.513c40.997,20.026,69.14,53.172,85.94,89.024c-7.89,48.68-31.657,105.085-61.9,157.737
				c-1.333-0.657-2.677-1.347-4.04-2.095c-96.684-53.058-82.401,23.73-18.262,38.487C422.182,493.131,312.058,448.5,333.058,565.5
				c-29,60-28,0-44-8C283.058,539.5,292.058,513.5,269.058,480.5z"/>
			<path fill="#0871FF" d="M362.558,444.5c-13.5-90,50-27,60-89c-5-42-13.502-63.333,12.5-101
				c15.998-31.833,56.451-52.724,61.422-55.863c92.436,91.321,68.731,263.855-26.921,211.363c-109.333-60-89.501,44.5-22.501,41.5
				c31.983-1.999,49.447,18.312,66,23c-12.78,24.448,22.312-0.798,7.001,19.667c-2.074-13.692-13.271,0.841-25.834-0.834
				c-91.432-12.191-51.334-3.666-23.167,80.667c-97-10.5-72-29.5-115-74.5c-41.792-14.193,14.179,73.494-27,93c-19,9-35,8-40-21
				C272.058,507.5,367.058,500.5,362.558,444.5z"/>
			<path fill="#0060A8" d="M444.058,593.5c-36.667-4-41-17-57-54c29-3,37-28.5,26.5-77.5c-8.787-41.007-62.417-38.834-13.083-69.501
				c49.333-30.667,42.25-29.666,51.583-100.999c5.793-44.278,49.211-54.085,65.827-68.054
				c12.525,17.682,21.738,36.985,27.858,56.364c1.676,7.097,3.627,14.849,5.893,23.294c14.41,75.287-17.37,142.102-81.828,106.729
				c-113.75-53.333-69.75,37.667,9.333,40.667c30.917,13,60.917,33,81.983,55.635c23.114,24.834,2.934,49.365,2.934,49.365
				c-20,33-72-39-96-59c-42-25-13.666,9,7,47C484.225,567,463.641,597,444.058,593.5z"/>
			<path fill="#009EC3" d="M151.058,529.5c13.833,4.167,39.333,12,42-6c-6-28.667,4.333-45.333,14-54.999
				c13.744-13.743,29.333-12,40-6.667c2.073,1.037,9.776,5.532,11,7.666c-8.922-3.182-30,13-30,13c-41,36.666,4,55.667-14,81
				C182.725,585.5,136.391,549.5,151.058,529.5z"/>
		</g>
		<path fill="#210046" stroke="#210046" stroke-miterlimit="10" d="M203.174,206.007c0,0,42.687,8.449,56.163,3.993
			c13.475-4.456,8.308,7.889-4.783,10.131C241.463,222.372,206.353,212.089,203.174,206.007z"/>
		<path fill="#210046" stroke="#210046" stroke-miterlimit="10" d="M387.78,211.312c0,0-48.683,9.636-64.051,4.554
			s-9.475,8.997,5.455,11.554C344.113,229.976,384.155,218.247,387.78,211.312z"/>
		<path fill="#210046" d="M258.134,344.952c-9.523-11.192,5.211-16.974,5.357-16.806c4.127,4.76,19.729-4.987,31.917,16.928
			C304.028,360.577,262.607,350.21,258.134,344.952z"/>
		<g>
			<path fill="#210046" d="M252.445,292.488c3.203-11.388-7.118,8.897-20.641-4.271c-47.287-46.043,14.591-63.702,22.064-51.958
				c0,0,17.082,12.456,11.032,44.485C262.497,293.473,252.445,292.488,252.445,292.488z"/>
			<g>
				<path fill="#210046" d="M217.925,252.638c-2.031-0.373-3.543-1.454-4.626-3.203c-0.067-0.108-0.017-0.653-0.018-0.732
					c-0.006-0.589-0.007-1.179-0.007-1.768s0.001-1.179,0.007-1.768c0-0.039,0.065-0.656,0.018-0.732
					c1.084,1.749,2.595,2.83,4.626,3.203C218.258,247.7,217.666,252.591,217.925,252.638L217.925,252.638z"/>
				<path fill="#210046" d="M216.858,253.706c-4.989,0.554-9.1-2.446-10.676-7.118c-0.509-1.507,0.501-3.516,0-5
					c1.577,4.672,5.687,7.672,10.676,7.118C216.712,248.722,217.078,253.682,216.858,253.706L216.858,253.706z"/>
				<path fill="#210046" d="M218.993,256.553c-6.17,1.348-14.562-0.905-16.726-7.473c-0.499-1.514,0.491-3.509,0-5
					c2.165,6.568,10.556,8.822,16.726,7.473C218.682,251.621,219.376,256.469,218.993,256.553L218.993,256.553z"/>
			</g>
			<path fill="#BDE7FF" d="M237.057,244.201c0,0,13.523-11.032,15.659,5.338C254.851,265.909,221.755,267.689,237.057,244.201z"/>
			<path fill="#DEF6FF" d="M233.498,280.641c-0.036-0.026-0.074-0.048-0.114-0.067c0.597,0.252,1.194,0.504,1.792,0.756
				c-0.055-0.023-0.105-0.038-0.164-0.048c0.665,0.089,1.329,0.179,1.994,0.268c-0.035-0.004-0.069-0.004-0.104,0
				c0.665-0.089,1.329-0.179,1.994-0.268c-0.052,0.009-0.097,0.022-0.145,0.043c0.597-0.252,1.194-0.504,1.792-0.756
				c-0.031,0.015-0.061,0.033-0.089,0.054c0.506-0.391,1.012-0.782,1.518-1.173c-0.044,0.036-0.082,0.073-0.12,0.116
				c0.391-0.506,0.782-1.012,1.173-1.518c-0.065,0.084-0.114,0.172-0.157,0.269c0.252-0.597,0.504-1.194,0.756-1.792
				c-0.052,0.134-0.085,0.269-0.105,0.411c0.089-0.665,0.179-1.329,0.268-1.994c-0.015,0.155-0.013,0.305,0.006,0.459
				c-0.089-0.665-0.179-1.329-0.268-1.994c0.022,0.133,0.056,0.257,0.104,0.383c-0.252-0.597-0.504-1.194-0.756-1.792
				c0.056,0.127,0.122,0.241,0.206,0.352c-0.391-0.506-0.782-1.012-1.173-1.518c0.076,0.089,0.155,0.166,0.246,0.239
				c-0.506-0.391-1.012-0.782-1.518-1.173c0.104,0.073,0.209,0.132,0.324,0.185c-0.597-0.252-1.194-0.504-1.792-0.756
				c0.172,0.066,0.342,0.107,0.525,0.132c-0.665-0.089-1.329-0.179-1.994-0.268c0.22,0.02,0.434,0.018,0.653-0.005
				c-0.665,0.089-1.329,0.179-1.994,0.268c0.152-0.024,0.293-0.058,0.437-0.111c-0.597,0.252-1.194,0.504-1.792,0.756
				c0.086-0.04,0.163-0.082,0.241-0.135c-0.506,0.391-1.012,0.782-1.518,1.173c0.065-0.054,0.119-0.107,0.172-0.173
				c-0.391,0.506-0.782,1.012-1.173,1.518c0.031-0.042,0.057-0.086,0.079-0.132c-0.252,0.597-0.504,1.194-0.756,1.792
				c0.03-0.073,0.052-0.142,0.068-0.219c-0.089,0.665-0.179,1.329-0.268,1.994c0.014-0.109,0.015-0.212,0.006-0.321
				c0.089,0.665,0.179,1.329,0.268,1.994c-0.022-0.147-0.06-0.285-0.112-0.424c0.252,0.597,0.504,1.194,0.756,1.792
				c-0.089-0.209-0.201-0.399-0.336-0.581c0.391,0.506,0.782,1.012,1.173,1.518c-0.145-0.182-0.304-0.343-0.486-0.488
				c0.506,0.391,1.012,0.782,1.518,1.173c-0.128-0.094-0.259-0.175-0.403-0.244c0.597,0.252,1.194,0.504,1.792,0.756
				c-0.138-0.058-0.274-0.099-0.422-0.121c0.665,0.089,1.329,0.179,1.994,0.268c-0.086-0.007-0.166-0.007-0.252-0.001
				c0.665-0.089,1.329-0.179,1.994-0.268c-0.086,0.014-0.163,0.033-0.245,0.061c0.597-0.252,1.194-0.504,1.792-0.756
				c-0.026,0.012-0.053,0.024-0.079,0.035c-0.597,0.252-1.194,0.504-1.792,0.756c-1.329,0.357-2.658,0.357-3.988,0
				c-1.875-0.516-3.5-1.77-4.482-3.447c-1.015-1.732-1.289-3.843-0.756-5.779c0.468-1.702,1.765-3.732,3.447-4.482
				c1.61-0.718,2.457-1.135,4.278-1.126c1.74,0.008,2.84,0.451,4.375,1.192c1.447,0.699,3.017,2.394,3.755,3.794
				c1.477,2.801,1.618,5.869,0.114,8.706c-0.65,1.225-1.895,2.414-3.093,3.09c-1.499,0.846-2.871,1.111-4.581,1.197
				c-5.052,0.253-9.356-4.148-9.304-9.115c0.024-2.282,0.891-4.612,2.548-6.215c2.541-2.458,6.688-3.164,9.747-1.189
				c1.666,1.076,2.912,2.54,3.447,4.482c0.532,1.936,0.259,4.047-0.756,5.779C241.763,281.358,236.936,282.861,233.498,280.641
				L233.498,280.641z"/>
		</g>
		<g>
			<path fill="#210046" d="M315.896,301.955c-0.088-11.987,4.661,10.647,21.698,1.573c59.575-31.729,2.815-66.127-7.816-56.76
				c0,0-20.385,7.392-23.08,40.283C305.628,300.123,315.896,301.955,315.896,301.955z"/>
			<g>
				<path fill="#210046" d="M361.764,267.111c2.114,0.192,3.898-0.421,5.474-1.836c-0.03,0.027,0.018,0.753,0.018,0.732
					c0.006,0.589,0.007,1.179,0.007,1.768s-0.001,1.179-0.007,1.768c0,0.008,0.038,0.682-0.018,0.732
					c-1.576,1.414-3.361,2.028-5.474,1.836C361.576,272.094,361.877,267.121,361.764,267.111L361.764,267.111z"/>
				<path fill="#210046" d="M362.536,268.448c4.79,1.883,9.643,0.205,12.559-3.97c-0.77,1.102,0.794,3.863,0,5
					c-2.916,4.175-7.769,5.853-12.559,3.97C361.936,273.212,363.07,268.658,362.536,268.448L362.536,268.448z"/>
				<path fill="#210046" d="M359.637,270.629c5.744,2.986,14.64,3.224,18.675-2.636c-0.766,1.112,0.79,3.852,0,5
					c-4.035,5.859-12.931,5.622-18.675,2.636C358.925,275.259,360.289,270.968,359.637,270.629L359.637,270.629z"/>
			</g>
			<path fill="#BDE7FF" d="M338.911,256.024c0,0-10.453-14.507-17.032,0.852C315.301,272.234,347.746,283.162,338.911,256.024z"/>
			<path fill="#DEF6FF" stroke="#DEF6FF" stroke-miterlimit="10" d="M332.914,279.287c1.276-0.392,3.109-0.431,4.391-0.009
				c1.695,0.557,2.072,0.864,3.426,1.994c0.536,0.448,0.888,1.092,1.298,1.652c0.91,1.245,0.986,2.729,1.165,4.178
				c0.104,0.841-0.135,1.749-0.291,2.547c-0.162,0.827-2.612,4.36-4.059,5.452c-0.69,0.52-1.584,0.866-2.44,1.011
				c-1.967,0.332-2.769,0.377-4.766-0.047c-0.939-0.199-1.925-0.576-2.692-1.158c-1.694-1.286-1.626-1.132-2.867-2.868
				c-0.432-0.605-0.635-1.361-0.895-2.049c-0.484-1.282-0.347-3.26,0.008-4.539c0.482-1.738,1.145-2.484,2.239-3.854
				c1.038-1.3,3.067-2.332,4.632-2.769c1.695-0.473,2.952-0.354,4.638-0.045c1.555,0.285,2.696,1.219,3.867,2.184
				c1.459,1.202,2.197,3.484,2.197,5.303c0,1.981,0.936,0.93,0,0c-0.02-0.017-8.254-4.81-8.919-4.899
				c0.191,0.024,0.374,0.029,0.565,0.006c-0.665,0.089-1.329,0.179-1.994,0.268c0.135-0.023,0.262-0.057,0.389-0.108
				c-0.597,0.252-1.194,0.504-1.792,0.756c0.114-0.053,0.217-0.114,0.317-0.19c-0.506,0.391-1.346,1.014-1.271,0.921
				c-0.391,0.506-1.47,2.356-1.722,2.954c0.058-0.145-0.126,1.266-0.144,1.123c0.089,0.665,0.543,5.266-0.517,1.413
				c-0.532-1.936-0.259-4.047,0.756-5.779C329.438,281.016,331.03,279.865,332.914,279.287L332.914,279.287z"/>
		</g>
	</g>
</g>
<g id="Слой_2">
</g>
<g>
	<path fill="#008EC2" d="M545.933,83.115c0,0-9.655-43.586-46.06-55.574s-92.111,18.042-155.826-7.443s-168.428-15.137-189.21-1.241
		S87.364,44.243,67.61,39.167C47.856,34.091,3.109,46.688,5.263,80.854s24.791,78.456,87.457,67.832
		c62.667-10.624,91.816-31.077,128.275-20.088s102.795,6.572,138.664-8.509s84.93,3.601,114.507,12.214
		S551.162,134.474,545.933,83.115z"/>
	<path fill="#005483" stroke="#005A89" stroke-miterlimit="10" d="M421.448,117.742c6.735-5.458,12.899-12.115,18.071-20.242
		c19.341-30.393,63.487-44.084,88.945-49.647c13.275,16.339,17.469,35.262,17.469,35.262c5.228,51.358-42.19,57.802-71.767,49.188
		C459.904,128.15,441.108,121.664,421.448,117.742z"/>
	<path fill="#0060A8" d="M104.519,82.5c28.369-6.018,119.554-62.288,144.588-77.963c32.609,0.279,67.559,4.61,94.94,15.561
		c63.715,25.485,119.421-4.545,155.826,7.443c36.405,11.988,46.06,55.574,46.06,55.574c5.229,51.359-42.19,57.801-71.767,49.188
		c-29.577-8.613-78.638-27.295-114.507-12.214c-35.869,15.081-102.205,19.498-138.664,8.509
		c-36.459-10.989-65.608,9.464-128.275,20.088c-28.668,4.86-48.955-1.776-62.739-13.674C48.486,110.403,86.278,86.369,104.519,82.5z
		"/>
	<path fill="#0871FF" d="M57.981,148.633c47.746-39.994,134.408-80.265,163.538-78.133c41,3,94-25,111-37
		c5.705-4.027,9.723-8.392,14.468-12.263c57.392,21.52,108.09-1.126,143.748,4.182c-11.689,14.328-36.917,40.812-63.216,40.081
		c-36-1-111,0-132,13c-11.536,7.141-42.99,31.18-77.617,49.243c-35.05-8.971-64.298,10.621-125.182,20.943
		C79.39,150.946,67.875,150.718,57.981,148.633z"/>
	<path fill="#3E90FF" d="M5.263,80.854c-0.166-2.627-0.052-5.125,0.304-7.499C39.439,61.09,92.634,58.558,104.519,64.5
		c20,10,110.588-51.963,144.588-59.963c6.594-1.551,34.691,3.427,42.795,2.843c18.612,2.421,36.599,6.501,52.144,12.719
		c8.69,3.476,17.23,5.913,25.594,7.571c-24.742,16.577-87.495,27.282-96.122,39.831c-11,16-94,28-124,31
		c-24.489,2.449-46.312,26.886-68.19,51.556C27.279,153.758,7.281,112.864,5.263,80.854z"/>
	<path fill="#30CBFF" d="M67.61,39.167c19.754,5.076,66.445-6.414,87.227-20.31c6.421-4.293,20.859-8.246,39.618-10.91
		c-14.654,19.994-46.069,59.043-66.936,57.553c-28-2-63,79-119,34c-0.044-0.035-0.085-0.068-0.129-0.103
		c-1.74-6.259-2.75-12.556-3.127-18.543C3.109,46.688,47.856,34.091,67.61,39.167z"/>
	<path fill="#46B6FF" d="M99.519,66.5c15.076,6.167,46.114-28.046,64.161-50.196c11.839-8.804,61.4-9.848,85.428-11.768
		c-16.991,14.457-66.269,41.156-74.588,56.963c-10,19-50,30-80,41c-21.16,7.759-29.841,29.699-36.538,46.133
		C22.519,144.5,8.519,106.5,8.519,99.5C11.519,91.5,77.519,57.5,99.519,66.5z"/>
	<path fill="#476385" d="M379.067,115.113c17.648-6.05,42.371-11.123,55.452-9.613c26,3,64-18,92-29
		c6.923-2.72,12.252-3.479,16.359-3.087c2.189,5.794,3.055,9.702,3.055,9.702c5.229,51.359-42.19,57.801-71.767,49.188
		C449.648,125.163,411.748,111.124,379.067,115.113z"/>
</g>
</svg>
