<?xml version="1.0" encoding="utf-8"?>
<!-- Generator: Adobe Illustrator 17.0.0, SVG Export Plug-In . SVG Version: 6.00 Build 0)  -->
<!DOCTYPE svg PUBLIC "-//W3C//DTD SVG 1.1//EN" "http://www.w3.org/Graphics/SVG/1.1/DTD/svg11.dtd">
<svg version="1.1" id="Слой_1" xmlns="http://www.w3.org/2000/svg" xmlns:xlink="http://www.w3.org/1999/xlink" x="0px" y="0px"
	 width="700px" height="700px" viewBox="0 0 700 700" enable-background="new 0 0 700 700" xml:space="preserve">
<path fill="#835589" d="M467.575,639.38c0.178-0.063,0.36-0.116,0.534-0.188c-15.97-38.138-27.812-52.266-35.831-56.603
	c-10.797,35.25-8.613,70.728,14.619,84.53C465.161,677.97,469.914,658.938,467.575,639.38z"/>
<path fill="#B988BA" d="M125.38,370.538c0,0-33.298-145.699,34.519-231.566C220.06,62.799,311.85,53.038,345.314,50.611
	c70.024-5.078,218.943,42.32,248.535,140.158c37.478,123.908,10.849,208.206-12.821,166.565
	C569.217,336.555,520.234,379.022,594,471.5c18,28,15.5,53.5,11.5,69c-5,19-15.5,69-28.5,78c-24.5,31.5-57,5-19.5-20
	c23.5-22.5,29-89,20-104c-4.5-10-42.825-70.134-84.248-79.274c-36.722-8.103,28.601,68.048,4.931,107.658
	s-46.354,74.142-36.491,95.47s10.849,65.001-14.794,49.766s-25.643-56.876-10.849-95.47s53.869-147.837,9.863-149.299
	c-30.574-1.016-41.423,24.375-41.423,24.375s-9.863,35.547,15.78,63.985c21.208,23.52,32.092,31.912,33.231,71.789
	c0.986,34.532-17.456,58.297-32.25,55.25s26.5-59.5-7.885-78.288c-44.381-42.657-60.161-59.923-51.285-106.642
	s-46.354-55.86-57.203-16.25s34.519,66.017,17.753,102.579c-16.766,36.563,5.966,52.133,12.87,66.351
	c6.904,14.219,2.91,67.713-13.856,79.901C288.5,675.5,305.557,627.989,293.5,600.5c-25-57-4-84-15.251-118.243
	c-9.584-29.168,2.959-61.954-17.753-62.97c-20.711-1.016-31.56,21.328-24.656,38.594s22.684,50.782,4.931,69.063
	c-17.753,18.282-33.191,49.867-41.423,77.189C190.5,633.5,156.5,665.5,146.5,663.5c-28.595-5.719-13.23-40.07,15.371-78.664
	s57.203-52.813,58.189-77.189c0.986-24.375-21.698-27.422-17.753-53.829S191.335,420.25,179.5,436.5s-0.863,25.443-10.726,49.818
	c-9.261,22.888-9.863,45.704-38.464,62.97c-27.399,16.54-26.25-19.038-57.81-2.788c-23.003,11.844-58,24-19.117,21.069
	c21.698-21.328,71.908-23.999,77.914-84.298c7.89-79.22,53.258-96.486,36.491-123.908
	C153.591,336.144,144.119,391.866,125.38,370.538z"/>
<path fill="#FFFFFF" d="M452.898,189.281c0,0,42.862-49.717,56.13,20.59c8.332,44.15,12.135,103.941-14.385,76.956
	c-26.52-26.985-41.206-18.76-51.129-4.586C436.286,292.563,377.806,299.308,452.898,189.281z"/>
<g>
	<path fill="#A660A2" d="M69.5,564.5c31.753-16.25,32.857,0.33,60.424-16.21c18.517-11.11,25.366-24.52,30.381-38.767
		c-2.335-20.011-8.087-42.934-11.528-54.672c-5.954-20.313,48.622-57.891,44.652-100.548c-3.14-33.745-51.604-12.831-71.72-2.619
		c1.733,11.229,3.253,17.854,3.253,17.854c18.854,21.328,28.384-34.394,42.668-11.172c16.869,27.422-28.776,44.688-36.714,123.908
		c-6.043,60.3-61.585,21.898-83.416,43.226C-7.773,579.502,46.356,576.345,69.5,564.5z"/>
	<path fill="#A660A2" d="M320.52,498.706c-2.542,3.129-5.119,7.09-7.752,12.005c-8.504,15.874-2.973,28.804,2.238,45.136
		c2.422-5.369,4.987-10.946,7.625-16.699C329.328,524.544,326.108,511.559,320.52,498.706z"/>
	<path fill="#A660A2" d="M373.479,516.792c7.61,10.741,18.444,21.892,32.659,35.693c-0.429-2.361-0.663-5.076-0.663-8.257
		C405.475,523.487,388.689,523.268,373.479,516.792z"/>
</g>
<path fill="#A0589E" d="M202.308,253.755c0,0-27.615,18.281-18.739,38.594s23.67,39.61,13.808,55.86
	c-9.863,16.25,24.656,45.704,51.285,22.344c26.629-23.36,18.739-28.438,0.986-77.189s3.945-70.079-19.725-55.86
	C206.253,251.724,202.308,253.755,202.308,253.755z"/>
<path fill="#A0589E" d="M202.308,153.207c0-16.282,3.945-39.61,23.67-24.375s-13.808,20.313-9.863,35.547
	C220.06,179.613,202.308,176.566,202.308,153.207z"/>
<path fill="#A0589E" d="M469.582,379.694c-44.537-19.311-45.123,26.392-43.444,46.219c5.396-2.34,11.932-3.823,19.774-3.562
	c18.158,0.603,22.164,19.563,19.574,44.332c8.502,1.746,18.167-9.722,22.504-23.939c-7.22-19.076-11.057-32.119,5.262-28.518
	c7.788,1.719,14.425,5.162,20.2,9.747c0.799-1.466,1.623-3.011,2.484-4.669C546.509,360.397,525.798,404.069,469.582,379.694z"/>
<path fill="#A0589E" d="M304.878,436.57c1.886-6.886,5.116-12.295,9.115-16.294c-7.7-6.092-7.064-7.174-16.018,5.121
	c-7.51,10.311-0.725,19.799,5.238,25.361C303.052,446.202,303.531,441.488,304.878,436.57z"/>
<path fill="#A0589E" d="M345.314,49.611c-5.5,0.399-12.583,0.999-20.834,2.056c3.318,18.189,12.488,47.323,37.601,56.851
	c37.478,14.219,77.914-28.438,70.024,12.188s-31.56,70.079,8.876,79.22s102.57-61.954,110.46-11.172
	c6.721,43.26,23.467,87.244,58.765,77.981c-2.694-22.968-7.882-48.949-16.356-76.965C564.257,91.932,415.338,44.533,345.314,49.611z
	"/>
<path fill="#FFFFFF" d="M277.428,189.747c0,0-44.418-48.247-55.446,22.469c-6.925,44.407-8.829,104.294,16.821,76.431
	c25.649-27.863,40.588-20.137,50.956-6.305C297.31,292.415,355.973,297.187,277.428,189.747z"/>
<path fill="#FFFFFF" d="M452.898,189.281c0,0,42.862-49.717,56.13,20.59c8.332,44.15,12.135,103.941-14.385,76.956
	c-26.52-26.985-41.206-18.76-51.129-4.586C436.286,292.563,377.806,299.308,452.898,189.281z"/>
<path fill="#2D314B" d="M279.793,193.018c-26.556,5.217-67.842,22.462-19.754,78.977c13.367-5.734,22.617,0.87,29.719,10.346
	C297.232,292.311,354.746,297.069,279.793,193.018z"/>
<path fill="#25191D" d="M437.549,119.878c0,0,21.698-24.375,46.354-23.36C508.559,97.534,403.03,176.754,437.549,119.878z"/>
<path fill="#25191D" d="M247.873,100.003c-24.656,1.016,80.873,80.235,46.354,23.36C294.227,123.362,272.53,98.987,247.873,100.003"
	/>
<path fill="#FFFFFF" d="M260.496,226.333c-5.368-12.161,36.491-9.141,29.588,6.094C283.18,247.661,265.428,237.505,260.496,226.333z
	"/>
<g>
	<path fill="#FFFFFF" d="M452.898,189.281c0,0,42.862-49.717,56.13,20.59c8.332,44.15,12.135,103.941-14.385,76.956
		c-26.52-26.985-41.206-18.76-51.129-4.586C436.286,292.563,377.806,299.308,452.898,189.281z"/>
	<path fill="#2D314B" d="M450.777,192.423c-71.822,106.734-14.422,100.041-7.264,89.818c7.02-10.026,16.429-17.058,30.719-10.773
		C523.607,213.014,476.889,196.844,450.777,192.423z"/>
	<path fill="#FFFFFF" d="M437.035,230.395c0,0,11.835-18.281,22.684-6.094S434.077,248.677,437.035,230.395z"/>
	<path fill="#FFFFFF" d="M476.485,196.879c0,0-12.821,24.375,14.794,14.219C518.894,200.942,479.444,198.91,476.485,196.879z"/>
</g>
<path fill="#FFFFFF" d="M263.455,192.816c0,0,16.766,22.344-19.725,10.156S263.455,192.816,263.455,192.816z"/>
<path fill="#FFFFFF" d="M318.685,299.677c0,0,74.284,8.932,94.24-5.104C432.882,280.536,374.121,429.835,318.685,299.677z"/>
<path fill="#835589" d="M47.5,525.5c-55.273,54.002-1.144,50.845,22,39c4.798-2.456,8.887-4.152,12.483-5.336
	c1.733-3.614,3.402-7.673,4.795-12.264c1.994-6.569,4.665-16.68,7.213-28.369C76.92,518.923,58.178,515.068,47.5,525.5z"/>
<path fill="#A660A2" d="M215.268,522.361c-5.301,9.287-14.543,18.178-25.528,29.431c-0.356,0.882-0.946,1.561-1.891,1.943
	c-0.943,0.973-1.899,1.968-2.863,2.978c-0.207,0.216-0.416,0.439-0.623,0.657c-0.757,0.796-1.519,1.605-2.287,2.426
	c-0.278,0.297-0.556,0.596-0.835,0.896c-0.753,0.81-1.511,1.635-2.272,2.471c-0.25,0.274-0.498,0.544-0.748,0.821
	c-2.003,2.214-4.034,4.523-6.083,6.938c-0.265,0.313-0.532,0.634-0.798,0.95c-0.758,0.901-1.517,1.816-2.278,2.747
	c-0.32,0.391-0.64,0.785-0.96,1.182c-0.76,0.942-1.522,1.902-2.285,2.875c-0.276,0.353-0.553,0.7-0.829,1.058
	c-1.038,1.339-2.076,2.702-3.115,4.104c-0.001,0.001-0.003,0.002-0.004,0.003c-28.599,38.592-43.961,72.94-15.367,78.659
	c10,2,44-30,52.848-59.367c3.107-10.312,7.242-21.232,12.139-31.814c4.512-15.054,13.849-29.419,24.386-40.327
	C233.241,526.317,224.621,522.663,215.268,522.361z"/>
<path fill="#835589" d="M154.39,635.713c-9.127-6.647-13.116-11.651-15.717-15.296c-10.761,21.883-11.147,38.288,7.827,42.083
	c5.785,1.157,19.6-9.075,31.933-23.584C172.081,639.428,163.073,638.044,154.39,635.713z"/>
<path fill="#A660A2" d="M299.248,642.319c0.991,19.226,3.748,36.949,22.396,43.082c8.579-6.236,13.812-23.286,15.954-40.356
	C326.784,646.758,311.604,643.168,299.248,642.319z"/>
<path fill="#835589" d="M308.297,676.447c3.164,3.927,7.463,7.018,13.347,8.954c3.971-2.887,7.224-8.093,9.786-14.544
	C325.885,673.406,316.492,674.944,308.297,676.447z"/>
<path fill="#A660A2" d="M449.447,533.989c-1.184,3.655-7.197,28.261-7.197,28.261s-18.268,61.307-14.759,77.523
	c0.071-0.034,0.142-0.071,0.213-0.106c2.837,12.257,8.926,22.251,18.944,28.203c15.177,9.017,21.025-2.602,21.226-18.01
	c-0.007-2.831-0.196-5.773-0.549-8.729c0.038-0.013,0.073-0.031,0.111-0.044c-0.885-8.21-3.041-16.597-5.994-22.982
	c-6.036-13.052,2.7-35.525,13.808-56.604C469.307,548.152,458.06,540.253,449.447,533.989z"/>
<path fill="#835589" d="M446.146,543.892C445.155,541.784,447.338,545.831,446.146,543.892c-3.123,3.353-4.263,9.441-4.646,10.608
	c5.365,7.16-28.851,61.133-16,84.25c6.25,6.75,13.75-48,48.041-74.698c0,0,0,0,0,0c0.002-0.005,0.005-0.01,0.008-0.014
	c20.201-29.288,22.451-35.288,25.852-44.4c0.273-0.733-17.951,0.581-17.651-0.138c-21.75-1.5-20.017,3.372-30.299,8.237
	C449.698,533.328,447.906,538.754,446.146,543.892z"/>
<path fill="#A660A2" d="M400.5,577.5"/>
<path fill="#A660A2" d="M417.25,566.5l22.25-33c0,0,19,25,14,49s-14.519,50.046-25.759,56.523s-18.144,2.155-3.241-47.523
	C430.5,571.5,417.25,566.5,417.25,566.5z"/>
<path fill="#A660A2" d="M436.5,529.5c0,0-16,3-18,15s-7.75,12.25-7.75,12.25s10.75,7.75,11.75,35.5c0.47,13.03-1.836,16.835-3,24.75
	c-1.25,8.5,8,8.5,10,1.5s-3.444-23.822,2.778-35.911C438.5,570.5,451.75,543.5,436.5,529.5z"/>
<path fill="#A660A2" d="M599.716,481.649C589.921,500.634,616.805,503.354,602,540c-8.675,21.472-17.879,29.24-30.319,35.182
	c-3.663,9.5-8.371,17.755-14.181,23.318c-37.5,25-5,51.5,19.5,20c13-9,23.5-59,28.5-78
	C609.011,526.896,611.362,505.589,599.716,481.649z"/>
<path fill="#835589" d="M567.25,627.941c-9.727-4.041-17.198-11.353-20.308-20.528c-1.07,1.198-1.999,2.382-2.788,3.546
	c-2.455,5.063-3.545,9.186-3.555,12.463C542.109,632.717,554.406,636.826,567.25,627.941z"/>
<g>
	<path fill="#835589" d="M605.267,502.43c0.169,0.192,0.366,0.436,0.551,0.658c-0.024-0.05-0.044-0.092-0.067-0.142
		C605.597,502.79,605.437,502.623,605.267,502.43z"/>
	<path fill="#835589" d="M605.751,502.946c0.525,0.53,0.959,0.849,1.31,0.987c-1.229-6.806-3.427-14.031-6.987-21.522
		c-0.77,0.041-1.407,1.006-1.794,3.288C607.919,503.444,600.572,492.112,605.751,502.946z"/>
</g>
</svg>
