<?xml version="1.0" encoding="utf-8"?>
<!-- Generator: Adobe Illustrator 17.0.0, SVG Export Plug-In . SVG Version: 6.00 Build 0)  -->
<!DOCTYPE svg PUBLIC "-//W3C//DTD SVG 1.1//EN" "http://www.w3.org/Graphics/SVG/1.1/DTD/svg11.dtd">
<svg version="1.1" id="Слой_1" xmlns="http://www.w3.org/2000/svg" xmlns:xlink="http://www.w3.org/1999/xlink" x="0px" y="0px"
	 width="600px" height="600px" viewBox="0 0 600 600" enable-background="new 0 0 600 600" xml:space="preserve">
<g id="Слой_1_1_">
	<g>
		<g>
			<path fill="#7FDCFF" d="M120.335,451.333c86.1,5.381,118.666-100.667,9.333-40.667s-124.667-174,20-244.667s257.277,25.66,256,94
				c-0.439,23.486-0.878,51.813,2.299,77.963c0.699,5.749,1.572,11.393,2.658,16.857s2.386,10.748,3.938,15.778
				C425.837,407.149,434.5,451.5,485.5,421.5c45-8,140,132,48,116c-12-26-8-37.333-32-60s-74.543-13.825-75-13
				c-18.166,32.833,32,57.667-30,69c2.333-31.666,23.834-50.167-32.833-70.834c0,0-146.834-16.833-100.167,29.834
				c25,43.834-19-41-50.333,35.167c0,0-61.75,39-65.5,22.333c20.833-56.5,48.765-68.191-42.667-56c-30,4,94.167-15.833,29.5-18.5
				C134.501,475.499,42.5,494.5,120.335,451.333z"/>
			<path fill="#30CBFF" d="M420,415c-68-70.5-76.5-114-79-152c3.312-19.874,25.946-38.644-35-97
				c-27.5-20.5-72.719-28.733-120.757-14.782c0,0.003-8.91,170.116-6.91,208.783c1.088,21.036,74.986,67.525,154.816,112.632
				C349.725,465.861,363,462,363,462c22.665,8.266,39.797,12.429,30.167,24.833c22.862,12.56,7.843,38.674,28.333,49.667
				c65,3-16-31.333,12-62c12-13.333,55-15,72,8c15.802,21.379,10,24,9,40.333c0,17.667,30,19.333,37,15.667
				c-4.391-8.817-11.771-9.022-14.333-15c-10-23.333,18.667-21-12.667-69S478,475,420,415z"/>
			<g>
				<path fill="#006C8A" d="M129,410c6.176-3.389,11.894-6.244,17.181-8.623c-9.118-7.809-23.906-17.114-42.514-28.71
					c-39.443-24.58-39.675-77.094-50.286-93.67C26.351,363.137,57.664,449.148,129,410z"/>
				<path fill="#46B6FF" d="M401.5,539.5l2.333,17.333c37.781-8.103,43.449-5.76,43.667-27.333c-39.725,8.795,7.5-97-68.5-104
					c-42,10.667-119.334,4.5-126.667-49.5s-24.292-75.743-22-108c5.764-81.108-22.541-108.049-45.035-116.799
					c-0.019,0.005-0.037,0.011-0.056,0.017c-1.07,0.311-2.143,0.632-3.219,0.963c-0.152,0.047-0.304,0.097-0.456,0.144
					c-0.951,0.296-1.904,0.596-2.859,0.908c-0.129,0.042-0.259,0.087-0.388,0.13c-0.984,0.323-1.969,0.652-2.958,0.993
					c-0.079,0.027-0.158,0.056-0.236,0.083c-1.043,0.361-2.088,0.73-3.136,1.11c-0.026,0.009-0.051,0.019-0.077,0.028
					c-4.463,1.623-8.971,3.425-13.521,5.414h-0.001c-3.032,30.246-11.976,108.629-32.058,213.675
					c-2.759,14.433-3.161,26.825-1.62,37.551c0.695-0.34,1.392-0.69,2.094-1.052c0.727-0.377,1.457-0.762,2.193-1.165
					c1.509-0.828,2.986-1.619,4.441-2.385c0.091-0.048,0.181-0.096,0.271-0.144c0.001,0,0.001-0.001,0.002-0.001
					c1.313-0.689,2.6-1.348,3.869-1.987c0.001,0,0.002-0.001,0.003-0.001c0.157-0.079,0.315-0.158,0.472-0.237
					c1.294-0.648,2.565-1.27,3.813-1.867c0,0,0.001-0.001,0.002-0.001c0.125-0.06,0.25-0.119,0.374-0.178
					c1.289-0.613,2.557-1.203,3.798-1.762l0,0c0.162-0.073,0.321-0.143,0.482-0.215h0.001c2.457-1.1,4.82-2.098,7.088-2.995h0.001
					c0.103-0.041,0.208-0.084,0.31-0.124h0.001c2.304-0.905,4.508-1.704,6.619-2.409h0.001c0.173-0.058,0.345-0.115,0.517-0.171l0,0
					c0.957-0.315,1.896-0.611,2.813-0.885h0.001c0.108-0.032,0.215-0.063,0.323-0.095c0.979-0.29,1.939-0.561,2.872-0.806l0,0
					c0.08-0.021,0.158-0.039,0.237-0.06c0.001,0,0.002,0,0.003-0.001c1.862-0.483,3.632-0.877,5.316-1.19c0.001,0,0.001,0,0.001,0
					c0.082-0.015,0.163-0.031,0.245-0.046c0.82-0.149,1.617-0.277,2.395-0.388l0,0c0.134-0.019,0.268-0.038,0.4-0.056
					c0,0,0,0,0.001,0c0.769-0.103,1.517-0.188,2.245-0.254c0.082-0.007,0.165-0.014,0.247-0.021h0.001
					c0.705-0.06,1.393-0.106,2.059-0.133c0.076-0.003,0.149-0.004,0.225-0.006h0.001c1.382-0.047,2.68-0.02,3.895,0.075l0,0
					c0.077,0.006,0.157,0.01,0.233,0.017l0,0c1.286,0.11,2.476,0.3,3.576,0.559c0.039,0.009,0.078,0.018,0.117,0.028l0,0
					c0.523,0.126,1.025,0.268,1.506,0.426c0.026,0.009,0.053,0.018,0.079,0.027l0,0c0.461,0.154,0.906,0.319,1.329,0.501l0,0
					c0.018,0.008,0.034,0.016,0.051,0.024h0.001c0.419,0.183,0.817,0.381,1.198,0.59l0,0c0.039,0.022,0.081,0.042,0.12,0.064l0,0
					c0.369,0.208,0.718,0.43,1.051,0.663l0,0c0.008,0.006,0.017,0.012,0.025,0.018c0.372,0.26,0.721,0.535,1.049,0.824
					c0.05,0.044,0.099,0.089,0.148,0.133l0,0c0.288,0.264,0.559,0.538,0.812,0.823c0.032,0.037,0.063,0.074,0.095,0.111l0,0
					c0.251,0.292,0.488,0.592,0.703,0.904l0,0c0.016,0.023,0.03,0.047,0.045,0.07l0,0c0.224,0.331,0.429,0.672,0.614,1.024
					c0.005,0.009,0.01,0.017,0.015,0.026l0,0c0.19,0.365,0.356,0.742,0.504,1.129c0.009,0.022,0.018,0.044,0.027,0.066l0,0
					c0.143,0.379,0.265,0.769,0.369,1.167c0.008,0.029,0.016,0.058,0.023,0.088v0.001c0.311,1.226,0.445,2.539,0.402,3.922l0,0
					c0,0.002,0,0.003,0,0.005c-0.015,0.468-0.052,0.945-0.106,1.428c-0.002,0.025-0.005,0.05-0.008,0.076l0,0
					c-0.053,0.456-0.126,0.92-0.214,1.388c-0.008,0.046-0.017,0.093-0.026,0.139l0,0c-0.087,0.445-0.189,0.895-0.306,1.35l0,0
					c-0.017,0.066-0.035,0.132-0.053,0.198l0,0c-0.124,0.464-0.262,0.932-0.418,1.405c0,0,0,0,0,0.001
					c-0.015,0.046-0.032,0.092-0.047,0.137v0.001c-0.335,0.999-0.739,2.016-1.212,3.045l-0.001,0.001
					c-0.007,0.016-0.014,0.031-0.021,0.047c-0.26,0.564-0.542,1.132-0.843,1.702c-0.006,0.012-0.013,0.025-0.019,0.037l0,0
					c-0.557,1.053-1.182,2.115-1.874,3.182c0,0,0,0,0,0.001c-0.033,0.051-0.067,0.101-0.1,0.152v0.001
					c-0.344,0.525-0.702,1.051-1.078,1.577c-0.003,0.005-0.007,0.01-0.01,0.014c0,0.001-0.001,0.001-0.002,0.002
					c-0.387,0.54-0.79,1.081-1.21,1.62c0,0.001-0.001,0.001-0.001,0.002c-0.011,0.014-0.021,0.027-0.031,0.041
					c0,0,0,0.001-0.001,0.001c-0.407,0.522-0.832,1.043-1.27,1.564l0,0c-0.041,0.049-0.082,0.098-0.123,0.148c0,0,0,0-0.001,0.001
					c-0.915,1.08-1.897,2.155-2.942,3.219c-0.04,0.04-0.08,0.08-0.119,0.12l0,0c-0.512,0.519-1.038,1.035-1.58,1.547
					c-0.009,0.008-0.018,0.017-0.027,0.025l0,0c-1.11,1.048-2.284,2.081-3.518,3.095c-0.039,0.032-0.077,0.064-0.116,0.096
					c0,0-0.001,0-0.001,0.001c-3.15,2.577-6.694,5.023-10.601,7.246c-0.001,0-0.001,0.001-0.002,0.001
					c-0.022,0.013-0.045,0.026-0.067,0.039c-0.823,0.467-1.663,0.924-2.519,1.37c-0.004,0.002-0.009,0.005-0.013,0.007l0,0
					c-4.033,2.104-8.419,3.966-13.126,5.495h-0.001c-0.087,0.028-0.174,0.057-0.261,0.085l0,0c-1.854,0.596-3.757,1.139-5.709,1.626
					l0,0c-0.051,0.013-0.102,0.025-0.153,0.037c-1.009,0.25-2.03,0.486-3.065,0.704c-0.017,0.003-0.033,0.007-0.05,0.01
					c-0.001,0-0.002,0-0.003,0.001c-1.015,0.214-2.042,0.413-3.081,0.594c29.635,30.927,99.521,36.368,147.992,54.054
					c11.576-11.693,5.333,9.333,11.333,0.667c0.917-0.397,3.333,4,30-26c8-12,27.023-14.889,27.26-14.964
					c0.004-0.001,0.008-0.002,0.011-0.004c0.001,0,0.002-0.001,0.003-0.001c0.473-0.151,0.908-0.288,1.301-0.41
					c0.005-0.002,0.011-0.003,0.016-0.005c0.021-0.007,0.042-0.013,0.062-0.019c0.196-0.061,0.383-0.119,0.557-0.173
					c0.008-0.003,0.016-0.005,0.024-0.008c0.002-0.001,0.003-0.001,0.005-0.002c0.159-0.049,0.311-0.096,0.451-0.139
					c0.015-0.005,0.029-0.009,0.044-0.013c0.139-0.042,0.265-0.081,0.384-0.117c0.001,0,0.003-0.001,0.004-0.001
					c0.022-0.007,0.042-0.013,0.064-0.019c0.004-0.001,0.007-0.002,0.011-0.003c0.1-0.03,0.193-0.058,0.278-0.084
					c0.004-0.001,0.009-0.003,0.013-0.004c0.01-0.003,0.021-0.006,0.031-0.009c0.002-0.001,0.004-0.001,0.007-0.002
					c0.282-0.085,0.472-0.141,0.567-0.169c0.001,0,0.003-0.001,0.004-0.001c0.01-0.003,0.009-0.003,0.017-0.005
					C362.979,462.006,363,462,363,462c56.667,20.667,13.333,18.5,37.5,44.167C389.833,525.5,400.176,539.405,401.5,539.5z"/>
			</g>
			<path fill="#3E90FF" d="M329.5,480.5c8-18-21.667-10.333-34.5-5.834c-25.5,9.834-50.338,8.668-34.5-40.166
				c12-37-32.027-55.372-22-103c8-38-76.5-50.5-58.5-86c31.5-50-3-91.5-3-91.5s-0.017-0.062-0.052-0.179
				c-9.13,3.066-18.451,6.873-27.948,11.513c-40.997,20.026-69.14,53.172-85.94,89.024c7.89,48.68,31.657,105.085,61.9,157.737
				c1.333-0.657,2.677-1.347,4.04-2.095c96.684-53.058,82.401,23.73,18.262,38.487C176.376,493.131,286.5,448.5,265.5,565.5
				c29,60,28,0,44-8C315.5,539.5,306.5,513.5,329.5,480.5z"/>
			<path fill="#0871FF" d="M236,444.5c13.5-90-50-27-60-89c5-42,13.502-63.333-12.5-101c-15.998-31.833-56.451-52.724-61.422-55.863
				C9.642,289.958,33.347,462.492,128.999,410c109.333-60,89.501,44.5,22.501,41.5c-31.983-1.999-49.447,18.312-66,23
				c12.78,24.448-22.312-0.798-7.001,19.667c2.074-13.692,13.271,0.841,25.834-0.834c91.432-12.191,51.334-3.666,23.167,80.667
				c97-10.5,72-29.5,115-74.5c41.792-14.193-14.179,73.494,27,93c19,9,35,8,40-21C326.5,507.5,231.5,500.5,236,444.5z"/>
			<path fill="#0060A8" d="M154.5,593.5c36.667-4,41-17,57-54c-29-3-37-28.5-26.5-77.5c8.787-41.007,62.417-38.834,13.083-69.501
				c-49.333-30.667-42.25-29.666-51.583-100.999c-5.793-44.278-49.211-54.085-65.827-68.054
				c-12.525,17.682-21.738,36.985-27.858,56.364c-1.676,7.097-3.627,14.849-5.893,23.294
				c-14.41,75.287,17.37,142.102,81.828,106.729C242.5,356.5,198.5,447.5,119.417,450.5c-30.917,13-60.917,33-81.983,55.635
				C14.32,530.969,34.5,555.5,34.5,555.5c20,33,72-39,96-59c42-25,13.666,9-7,47C114.333,567,134.917,597,154.5,593.5z"/>
			<path fill="#009EC3" d="M447.5,529.5c-13.833,4.167-39.333,12-42-6c6-28.667-4.333-45.333-14-54.999
				c-13.744-13.743-29.333-12-40-6.667c-2.073,1.037-9.776,5.532-11,7.666c8.922-3.182,30,13,30,13c41,36.666-4,55.667,14,81
				C415.833,585.5,462.167,549.5,447.5,529.5z"/>
		</g>
		<path fill="#210046" stroke="#210046" stroke-miterlimit="10" d="M395.384,206.007c0,0-42.687,8.449-56.163,3.993
			c-13.475-4.456-8.308,7.889,4.783,10.131C357.095,222.372,392.205,212.089,395.384,206.007z"/>
		<path fill="#210046" stroke="#210046" stroke-miterlimit="10" d="M210.778,211.312c0,0,48.683,9.636,64.051,4.554
			s9.475,8.997-5.455,11.554C254.445,229.976,214.403,218.247,210.778,211.312z"/>
		<path fill="#210046" d="M340.424,344.952c9.523-11.192-5.211-16.974-5.357-16.806c-4.127,4.76-19.729-4.987-31.917,16.928
			C294.53,360.577,335.951,350.21,340.424,344.952z"/>
		<g>
			<path fill="#210046" d="M346.113,292.488c-3.203-11.388,7.118,8.897,20.641-4.271c47.287-46.043-14.591-63.702-22.064-51.958
				c0,0-17.082,12.456-11.032,44.485C336.061,293.473,346.113,292.488,346.113,292.488z"/>
			<g>
				<path fill="#210046" d="M380.633,252.638c2.031-0.373,3.543-1.454,4.626-3.203c0.067-0.108,0.017-0.653,0.018-0.732
					c0.006-0.589,0.007-1.179,0.007-1.768s-0.001-1.179-0.007-1.768c0-0.039-0.065-0.656-0.018-0.732
					c-1.084,1.749-2.595,2.83-4.626,3.203C380.3,247.7,380.892,252.591,380.633,252.638L380.633,252.638z"/>
				<path fill="#210046" d="M381.7,253.706c4.989,0.554,9.1-2.446,10.676-7.118c0.509-1.507-0.501-3.516,0-5
					c-1.577,4.672-5.687,7.672-10.676,7.118C381.846,248.722,381.48,253.682,381.7,253.706L381.7,253.706z"/>
				<path fill="#210046" d="M379.565,256.553c6.17,1.348,14.562-0.905,16.726-7.473c0.499-1.514-0.491-3.509,0-5
					c-2.165,6.568-10.556,8.822-16.726,7.473C379.876,251.621,379.182,256.469,379.565,256.553L379.565,256.553z"/>
			</g>
			<path fill="#BDE7FF" d="M361.501,244.201c0,0-13.523-11.032-15.659,5.338C343.707,265.909,376.803,267.689,361.501,244.201z"/>
			<path fill="#DEF6FF" d="M365.06,280.641c0.036-0.026,0.074-0.048,0.114-0.067c-0.597,0.252-1.194,0.504-1.792,0.756
				c0.055-0.023,0.105-0.038,0.164-0.048c-0.665,0.089-1.329,0.179-1.994,0.268c0.035-0.004,0.069-0.004,0.104,0
				c-0.665-0.089-1.329-0.179-1.994-0.268c0.052,0.009,0.097,0.022,0.145,0.043c-0.597-0.252-1.194-0.504-1.792-0.756
				c0.031,0.015,0.061,0.033,0.089,0.054c-0.506-0.391-1.012-0.782-1.518-1.173c0.044,0.036,0.082,0.073,0.12,0.116
				c-0.391-0.506-0.782-1.012-1.173-1.518c0.065,0.084,0.114,0.172,0.157,0.269c-0.252-0.597-0.504-1.194-0.756-1.792
				c0.052,0.134,0.085,0.269,0.105,0.411c-0.089-0.665-0.179-1.329-0.268-1.994c0.015,0.155,0.013,0.305-0.006,0.459
				c0.089-0.665,0.179-1.329,0.268-1.994c-0.022,0.133-0.056,0.257-0.104,0.383c0.252-0.597,0.504-1.194,0.756-1.792
				c-0.056,0.127-0.122,0.241-0.206,0.352c0.391-0.506,0.782-1.012,1.173-1.518c-0.076,0.089-0.155,0.166-0.246,0.239
				c0.506-0.391,1.012-0.782,1.518-1.173c-0.104,0.073-0.209,0.132-0.324,0.185c0.597-0.252,1.194-0.504,1.792-0.756
				c-0.172,0.066-0.342,0.107-0.525,0.132c0.665-0.089,1.329-0.179,1.994-0.268c-0.22,0.02-0.434,0.018-0.653-0.005
				c0.665,0.089,1.329,0.179,1.994,0.268c-0.152-0.024-0.293-0.058-0.437-0.111c0.597,0.252,1.194,0.504,1.792,0.756
				c-0.086-0.04-0.163-0.082-0.241-0.135c0.506,0.391,1.012,0.782,1.518,1.173c-0.065-0.054-0.119-0.107-0.172-0.173
				c0.391,0.506,0.782,1.012,1.173,1.518c-0.031-0.042-0.057-0.086-0.079-0.132c0.252,0.597,0.504,1.194,0.756,1.792
				c-0.03-0.073-0.052-0.142-0.068-0.219c0.089,0.665,0.179,1.329,0.268,1.994c-0.014-0.109-0.015-0.212-0.006-0.321
				c-0.089,0.665-0.179,1.329-0.268,1.994c0.022-0.147,0.06-0.285,0.112-0.424c-0.252,0.597-0.504,1.194-0.756,1.792
				c0.089-0.209,0.201-0.399,0.336-0.581c-0.391,0.506-0.782,1.012-1.173,1.518c0.145-0.182,0.304-0.343,0.486-0.488
				c-0.506,0.391-1.012,0.782-1.518,1.173c0.128-0.094,0.259-0.175,0.403-0.244c-0.597,0.252-1.194,0.504-1.792,0.756
				c0.138-0.058,0.274-0.099,0.422-0.121c-0.665,0.089-1.329,0.179-1.994,0.268c0.086-0.007,0.166-0.007,0.252-0.001
				c-0.665-0.089-1.329-0.179-1.994-0.268c0.086,0.014,0.163,0.033,0.245,0.061c-0.597-0.252-1.194-0.504-1.792-0.756
				c0.026,0.012,0.053,0.024,0.079,0.035c0.597,0.252,1.194,0.504,1.792,0.756c1.329,0.357,2.658,0.357,3.988,0
				c1.875-0.516,3.5-1.77,4.482-3.447c1.015-1.732,1.289-3.843,0.756-5.779c-0.468-1.702-1.765-3.732-3.447-4.482
				c-1.61-0.718-2.457-1.135-4.278-1.126c-1.74,0.008-2.84,0.451-4.375,1.192c-1.447,0.699-3.017,2.394-3.755,3.794
				c-1.477,2.801-1.618,5.869-0.114,8.706c0.65,1.225,1.895,2.414,3.093,3.09c1.499,0.846,2.871,1.111,4.581,1.197
				c5.052,0.253,9.356-4.148,9.304-9.115c-0.024-2.282-0.891-4.612-2.548-6.215c-2.541-2.458-6.688-3.164-9.747-1.189
				c-1.666,1.076-2.912,2.54-3.447,4.482c-0.532,1.936-0.259,4.047,0.756,5.779C356.795,281.358,361.622,282.861,365.06,280.641
				L365.06,280.641z"/>
		</g>
		<g>
			<path fill="#210046" d="M282.662,301.955c0.088-11.987-4.661,10.647-21.698,1.573c-59.575-31.729-2.815-66.127,7.816-56.76
				c0,0,20.385,7.392,23.08,40.283C292.93,300.123,282.662,301.955,282.662,301.955z"/>
			<g>
				<path fill="#210046" d="M236.794,267.111c-2.114,0.192-3.898-0.421-5.474-1.836c0.03,0.027-0.018,0.753-0.018,0.732
					c-0.006,0.589-0.007,1.179-0.007,1.768s0.001,1.179,0.007,1.768c0,0.008-0.038,0.682,0.018,0.732
					c1.576,1.414,3.361,2.028,5.474,1.836C236.982,272.094,236.681,267.121,236.794,267.111L236.794,267.111z"/>
				<path fill="#210046" d="M236.022,268.448c-4.79,1.883-9.643,0.205-12.559-3.97c0.77,1.102-0.794,3.863,0,5
					c2.916,4.175,7.769,5.853,12.559,3.97C236.622,273.212,235.488,268.658,236.022,268.448L236.022,268.448z"/>
				<path fill="#210046" d="M238.921,270.629c-5.744,2.986-14.64,3.224-18.675-2.636c0.766,1.112-0.79,3.852,0,5
					c4.035,5.859,12.931,5.622,18.675,2.636C239.633,275.259,238.269,270.968,238.921,270.629L238.921,270.629z"/>
			</g>
			<path fill="#BDE7FF" d="M259.647,256.024c0,0,10.453-14.507,17.032,0.852C283.257,272.234,250.812,283.162,259.647,256.024z"/>
			<path fill="#DEF6FF" stroke="#DEF6FF" stroke-miterlimit="10" d="M265.644,279.287c-1.276-0.392-3.109-0.431-4.391-0.009
				c-1.695,0.557-2.072,0.864-3.426,1.994c-0.536,0.448-0.888,1.092-1.298,1.652c-0.91,1.245-0.986,2.729-1.165,4.178
				c-0.104,0.841,0.135,1.749,0.291,2.547c0.162,0.827,2.612,4.36,4.059,5.452c0.69,0.52,1.584,0.866,2.44,1.011
				c1.967,0.332,2.769,0.377,4.766-0.047c0.939-0.199,1.925-0.576,2.692-1.158c1.694-1.286,1.626-1.132,2.867-2.868
				c0.432-0.605,0.635-1.361,0.895-2.049c0.484-1.282,0.347-3.26-0.008-4.539c-0.482-1.738-1.145-2.484-2.239-3.854
				c-1.038-1.3-3.067-2.332-4.632-2.769c-1.695-0.473-2.952-0.354-4.638-0.045c-1.555,0.285-2.696,1.219-3.867,2.184
				c-1.459,1.202-2.197,3.484-2.197,5.303c0,1.981-0.936,0.93,0,0c0.02-0.017,8.254-4.81,8.919-4.899
				c-0.191,0.024-0.374,0.029-0.565,0.006c0.665,0.089,1.329,0.179,1.994,0.268c-0.135-0.023-0.262-0.057-0.389-0.108
				c0.597,0.252,1.194,0.504,1.792,0.756c-0.114-0.053-0.217-0.114-0.317-0.19c0.506,0.391,1.346,1.014,1.271,0.921
				c0.391,0.506,1.47,2.356,1.722,2.954c-0.058-0.145,0.126,1.266,0.144,1.123c-0.089,0.665-0.543,5.266,0.517,1.413
				c0.532-1.936,0.259-4.047-0.756-5.779C269.12,281.016,267.528,279.865,265.644,279.287L265.644,279.287z"/>
		</g>
	</g>
</g>
<g id="Слой_2">
</g>
<g>
	<path fill="#008EC2" d="M6.086,83.115c0,0,9.655-43.586,46.06-55.574s92.111,18.042,155.826-7.443S376.4,4.961,397.182,18.857
		s67.473,25.386,87.227,20.31c19.754-5.076,64.501,7.521,62.347,41.687s-24.791,78.456-87.457,67.832
		c-62.667-10.624-91.816-31.077-128.275-20.088s-102.795,6.572-138.664-8.509s-84.93,3.601-114.507,12.214
		S0.857,134.474,6.086,83.115z"/>
	<path fill="#005483" stroke="#005A89" stroke-miterlimit="10" d="M130.571,117.742c-6.735-5.458-12.899-12.115-18.071-20.242
		C93.159,67.107,49.013,53.416,23.555,47.853C10.28,64.192,6.086,83.115,6.086,83.115c-5.228,51.358,42.19,57.802,71.767,49.188
		C92.115,128.15,110.911,121.664,130.571,117.742z"/>
	<path fill="#0060A8" d="M447.5,82.5c-28.369-6.018-119.554-62.288-144.588-77.963c-32.609,0.279-67.559,4.61-94.94,15.561
		c-63.715,25.485-119.421-4.545-155.826,7.443C15.741,39.529,6.086,83.115,6.086,83.115c-5.229,51.359,42.19,57.801,71.767,49.188
		c29.577-8.613,78.638-27.295,114.507-12.214c35.869,15.081,102.205,19.498,138.664,8.509
		c36.459-10.989,65.608,9.464,128.275,20.088c28.668,4.86,48.955-1.776,62.739-13.674C503.532,110.403,465.74,86.369,447.5,82.5z"/>
	<path fill="#0871FF" d="M494.038,148.633C446.291,108.639,359.63,68.369,330.5,70.5c-41,3-94-25-111-37
		c-5.705-4.027-9.723-8.392-14.468-12.263c-57.392,21.52-108.09-1.126-143.748,4.182C72.972,39.746,98.201,66.231,124.5,65.5
		c36-1,111,0,132,13c11.536,7.141,42.99,31.18,77.617,49.243c35.05-8.971,64.298,10.621,125.182,20.943
		C472.628,150.946,484.143,150.718,494.038,148.633z"/>
	<path fill="#3E90FF" d="M546.756,80.854c0.166-2.627,0.052-5.125-0.304-7.499C512.58,61.09,459.384,58.558,447.5,64.5
		c-20,10-110.588-51.963-144.588-59.963c-6.594-1.551-34.691,3.427-42.795,2.843c-18.612,2.421-36.599,6.501-52.144,12.719
		c-8.69,3.476-17.23,5.913-25.594,7.571C207.12,44.246,269.873,54.951,278.5,67.5c11,16,94,28,124,31
		c24.489,2.449,46.312,26.886,68.19,51.556C524.74,153.758,544.738,112.864,546.756,80.854z"/>
	<path fill="#30CBFF" d="M484.409,39.167c-19.754,5.076-66.445-6.414-87.227-20.31c-6.421-4.293-20.859-8.246-39.618-10.91
		C372.217,27.941,403.633,66.991,424.5,65.5c28-2,63,79,119,34c0.044-0.035,0.085-0.068,0.129-0.103
		c1.74-6.259,2.75-12.556,3.127-18.543C548.91,46.688,504.163,34.091,484.409,39.167z"/>
	<path fill="#46B6FF" d="M452.5,66.5c-15.076,6.167-46.114-28.046-64.161-50.196C376.5,7.5,326.939,6.457,302.912,4.537
		C319.903,18.994,369.18,45.693,377.5,61.5c10,19,50,30,80,41c21.16,7.759,29.841,29.699,36.538,46.133
		C529.5,144.5,543.5,106.5,543.5,99.5C540.5,91.5,474.5,57.5,452.5,66.5z"/>
	<path fill="#476385" d="M172.952,115.113c-17.648-6.05-42.371-11.123-55.452-9.613c-26,3-64-18-92-29
		c-6.923-2.72-12.252-3.479-16.359-3.087c-2.189,5.794-3.055,9.702-3.055,9.702c-5.229,51.359,42.19,57.801,71.767,49.188
		C102.37,125.163,140.27,111.124,172.952,115.113z"/>
</g>
</svg>
