<?xml version="1.0" encoding="utf-8"?>
<!-- Generator: Adobe Illustrator 17.0.0, SVG Export Plug-In . SVG Version: 6.00 Build 0)  -->
<!DOCTYPE svg PUBLIC "-//W3C//DTD SVG 1.1//EN" "http://www.w3.org/Graphics/SVG/1.1/DTD/svg11.dtd">
<svg version="1.1" id="Слой_1" xmlns="http://www.w3.org/2000/svg" xmlns:xlink="http://www.w3.org/1999/xlink" x="0px" y="0px"
	 width="600px" height="600px" viewBox="0 0 600 600" enable-background="new 0 0 600 600" xml:space="preserve">
<g>
	<g>
		<path fill="#7FDCFF" d="M475.886,477.667C389.786,483.048,357.22,377,466.553,437s124.667-174-20-244.667s-257.277,25.66-256,94
			c0.439,23.486,0.878,51.813-2.299,77.963c-0.699,5.749-1.572,11.393-2.658,16.857s-2.386,10.748-3.938,15.778
			c-11.274,36.552-35.838,59.671-88.438,40.735c-100-36-101.88,203.662-15.333,120c19.999-19.333-29.334-38.666-5.334-61.333
			s88,6,88.667,6.667s-37.364,116.593,76.667,68.667c46-19.333-62-62-5.333-82.667c0,0,130.667,38,84,84.667
			s62.39,14.362,63.333-7.333c0,0,28,48,68.667,10s-48.765-68.191,42.667-56c30,4-16.667,84,83.333,40.667
			C574.553,561,635.886,467.667,475.886,477.667z"/>
		<path fill="#30CBFF" d="M179.22,433.333C300.553,344.667,249.22,300,245.886,280c-3.312-19.874-15.828-43.044,39.613-94.356
			c34.332-15.72,76.773-22.377,124.811-8.426c0,0.003,8.91,170.116,6.91,208.783c-1.088,21.036-74.986,67.525-154.816,112.632
			C245.828,491.861,232.553,488,232.553,488c-22.665,8.266-18.986,20.052-9.356,32.456c-22.862,12.56-45.317,24.649-65.807,35.642
			c-5.6-23.295,4.17-53.757,3.829-54.098c-0.666-0.667-64.666-29.333-88.666-6.667s25.333,42,5.333,61.333
			c-9.698,9.375-18.282,14.679-25.746,16.777c4.391-8.817,9.184-17.466,11.746-23.444c10-23.333-48.667-42.667-17.333-90.667
			S57.886,522,179.22,433.333z"/>
		<g>
			<path fill="#006C8A" d="M466.553,436c-6.176-3.389-11.894-6.244-17.181-8.623c9.118-7.809,23.906-17.114,42.514-28.71
				c39.443-24.58,39.675-77.094,50.286-93.67C569.202,389.137,537.889,475.148,466.553,436z"/>
			<path fill="#46B6FF" d="M234.947,571.877c-0.307,0.124-0.609,0.243-0.914,0.365c-0.654,0.262-1.305,0.52-1.949,0.77
				c-0.346,0.135-0.689,0.266-1.032,0.397c-0.612,0.234-1.22,0.464-1.822,0.688c-0.331,0.123-0.663,0.247-0.991,0.367
				c-0.633,0.232-1.259,0.456-1.882,0.677c-0.279,0.099-0.56,0.2-0.836,0.297c-0.864,0.302-1.719,0.594-2.563,0.874
				c-0.023,0.008-0.048,0.016-0.071,0.024c-0.885,0.293-1.757,0.573-2.62,0.843c-0.211,0.066-0.419,0.128-0.629,0.193
				c-0.641,0.198-1.278,0.391-1.906,0.576c-0.145,0.043-0.288,0.084-0.432,0.125c-0.116,0.034-0.231,0.067-0.346,0.1
				c-0.582,0.168-1.159,0.33-1.731,0.487c-0.252,0.069-0.504,0.138-0.754,0.205c-0.606,0.162-1.204,0.317-1.798,0.467
				c-0.194,0.049-0.39,0.1-0.582,0.148c-1.6,0.396-3.157,0.748-4.672,1.057c-0.005,0.001-0.009,0.002-0.014,0.003
				c-0.084,0.017-0.166,0.032-0.25,0.049c-0.655,0.131-1.301,0.255-1.94,0.371c-0.115,0.021-0.228,0.04-0.343,0.06
				c-0.055,0.01-0.111,0.019-0.166,0.029c-0.567,0.099-1.128,0.193-1.682,0.279c-0.111,0.017-0.222,0.034-0.333,0.051
				c-0.059,0.009-0.118,0.018-0.176,0.027c-0.575,0.087-1.143,0.166-1.704,0.239c-0.123,0.016-0.248,0.034-0.371,0.049
				c-0.002,0-0.005,0.001-0.007,0.001c-1.407,0.177-2.773,0.313-4.097,0.408l0,0c-32.585,2.328-40.457-19.775-40.675-41.348
				c39.725,8.795,24.384-88.049,66.228-77.422c42,10.667,114-7.333,121.333-61.333s24.292-75.743,22-108
				c-5.764-81.108,22.541-108.049,45.035-116.799c0.019,0.005,0.037,0.011,0.056,0.017c1.07,0.311,2.143,0.632,3.219,0.963
				c0.152,0.047,0.304,0.097,0.456,0.144c0.951,0.296,1.904,0.596,2.859,0.908c0.129,0.042,0.259,0.087,0.388,0.13
				c0.984,0.323,1.969,0.652,2.958,0.993c0.079,0.027,0.158,0.056,0.236,0.083c1.043,0.361,2.088,0.73,3.136,1.11
				c0.026,0.009,0.051,0.019,0.077,0.028c4.463,1.623,8.971,3.425,13.521,5.414h0.001c3.032,30.246,11.976,108.629,32.058,213.675
				c2.759,14.433,3.161,26.825,1.62,37.551c-0.695-0.34-1.392-0.69-2.094-1.052c-0.727-0.377-1.457-0.762-2.193-1.165
				c-1.509-0.828-2.986-1.619-4.441-2.385c-0.091-0.048-0.181-0.096-0.271-0.144c-0.001,0-0.001-0.001-0.002-0.001
				c-1.313-0.689-2.6-1.348-3.869-1.987c-0.001,0-0.002-0.001-0.003-0.001c-0.157-0.079-0.315-0.158-0.472-0.237
				c-1.294-0.648-2.565-1.27-3.813-1.867c0,0-0.001-0.001-0.002-0.001c-0.125-0.06-0.25-0.119-0.374-0.178
				c-1.289-0.613-2.557-1.203-3.798-1.762l0,0c-0.162-0.073-0.321-0.143-0.482-0.215h-0.001c-2.457-1.1-4.82-2.098-7.088-2.995
				h-0.001c-0.103-0.041-0.208-0.084-0.31-0.124h-0.001c-2.304-0.905-4.508-1.704-6.619-2.409h-0.001
				c-0.173-0.058-0.345-0.115-0.517-0.171l0,0c-0.957-0.315-1.896-0.611-2.813-0.885h-0.001c-0.108-0.032-0.215-0.063-0.323-0.095
				c-0.979-0.29-1.939-0.561-2.872-0.806l0,0c-0.08-0.021-0.158-0.039-0.237-0.06c-0.001,0-0.002,0-0.003-0.001
				c-1.862-0.483-3.632-0.877-5.316-1.19c-0.001,0-0.001,0-0.001,0c-0.082-0.015-0.163-0.031-0.245-0.046
				c-0.82-0.149-1.617-0.277-2.395-0.388l0,0c-0.134-0.019-0.268-0.038-0.4-0.056c0,0,0,0-0.001,0
				c-0.769-0.103-1.517-0.188-2.245-0.254c-0.082-0.007-0.165-0.014-0.247-0.021h-0.001c-0.705-0.06-1.393-0.106-2.059-0.133
				c-0.076-0.003-0.149-0.004-0.225-0.006h-0.001c-1.382-0.047-2.68-0.02-3.895,0.075l0,0c-0.077,0.006-0.157,0.01-0.233,0.017l0,0
				c-1.286,0.11-2.476,0.3-3.576,0.559c-0.039,0.009-0.078,0.018-0.117,0.028l0,0c-0.523,0.126-1.025,0.268-1.506,0.426
				c-0.026,0.009-0.053,0.018-0.079,0.027l0,0c-0.461,0.154-0.906,0.319-1.329,0.501l0,0c-0.018,0.008-0.034,0.016-0.051,0.024
				h-0.001c-0.419,0.183-0.817,0.381-1.198,0.59l0,0c-0.039,0.022-0.081,0.042-0.12,0.064l0,0c-0.369,0.208-0.718,0.43-1.051,0.663
				l0,0c-0.008,0.006-0.017,0.012-0.025,0.018c-0.372,0.26-0.721,0.535-1.049,0.824c-0.05,0.044-0.099,0.089-0.148,0.133l0,0
				c-0.288,0.264-0.559,0.538-0.812,0.823c-0.032,0.037-0.063,0.074-0.095,0.111l0,0c-0.251,0.292-0.488,0.592-0.703,0.904l0,0
				c-0.016,0.023-0.03,0.047-0.045,0.07l0,0c-0.224,0.331-0.429,0.672-0.614,1.024c-0.005,0.009-0.01,0.017-0.015,0.026l0,0
				c-0.19,0.365-0.356,0.742-0.504,1.129c-0.009,0.022-0.018,0.044-0.027,0.066l0,0c-0.143,0.379-0.265,0.769-0.369,1.167
				c-0.008,0.029-0.016,0.058-0.023,0.088v0.001c-0.311,1.226-0.445,2.539-0.402,3.922l0,0c0,0.002,0,0.003,0,0.005
				c0.015,0.468,0.052,0.945,0.106,1.428c0.002,0.025,0.005,0.05,0.008,0.076l0,0c0.053,0.456,0.126,0.92,0.214,1.388
				c0.008,0.046,0.017,0.093,0.026,0.139l0,0c0.087,0.445,0.189,0.895,0.306,1.35l0,0c0.017,0.066,0.035,0.132,0.053,0.198l0,0
				c0.124,0.464,0.262,0.932,0.418,1.405c0,0,0,0,0,0.001c0.015,0.046,0.032,0.092,0.047,0.137v0.001
				c0.335,0.999,0.739,2.016,1.212,3.045l0.001,0.001c0.007,0.016,0.014,0.031,0.021,0.047c0.26,0.564,0.542,1.132,0.843,1.702
				c0.006,0.012,0.013,0.025,0.019,0.037l0,0c0.557,1.053,1.182,2.115,1.874,3.182c0,0,0,0,0,0.001
				c0.033,0.051,0.067,0.101,0.1,0.152v0.001c0.344,0.525,0.702,1.051,1.078,1.577c0.003,0.005,0.007,0.01,0.01,0.014
				c0,0.001,0.001,0.001,0.002,0.002c0.387,0.54,0.79,1.081,1.21,1.62c0,0.001,0.001,0.001,0.001,0.002
				c0.011,0.014,0.021,0.027,0.031,0.041c0,0,0,0.001,0.001,0.001c0.407,0.522,0.832,1.043,1.27,1.564l0,0
				c0.041,0.049,0.082,0.098,0.123,0.148c0,0,0,0,0.001,0.001c0.915,1.08,1.897,2.155,2.942,3.219c0.04,0.04,0.08,0.08,0.119,0.12
				l0,0c0.512,0.519,1.038,1.035,1.58,1.547c0.009,0.008,0.018,0.017,0.027,0.025l0,0c1.11,1.048,2.284,2.081,3.518,3.095
				c0.039,0.032,0.077,0.064,0.116,0.096c0,0,0.001,0,0.001,0.001c3.15,2.577,6.694,5.023,10.601,7.246
				c0.001,0,0.001,0.001,0.002,0.001c0.022,0.013,0.045,0.026,0.067,0.039c0.823,0.467,1.663,0.924,2.519,1.37
				c0.004,0.002,0.009,0.005,0.013,0.007l0,0c4.033,2.104,8.419,3.966,13.126,5.495h0.001c0.087,0.028,0.174,0.057,0.261,0.085l0,0
				c1.854,0.596,3.757,1.139,5.709,1.626l0,0c0.051,0.013,0.102,0.025,0.153,0.037c1.009,0.25,2.03,0.486,3.065,0.704
				c0.017,0.003,0.033,0.007,0.05,0.01c0.001,0,0.002,0,0.003,0.001c1.015,0.214,2.042,0.413,3.081,0.594
				c-29.635,30.927-89.013,36.889-137.484,54.575c-11.576-11.693-30.365-21.607-47.144-28.865c-0.009-0.004-0.018-0.008-0.026-0.011
				c-0.917-0.397-1.828-0.785-2.731-1.166c-0.019-0.008-0.038-0.016-0.058-0.024c-2.745-1.155-5.419-2.236-7.982-3.238
				c-0.001,0-0.002-0.001-0.003-0.001c-0.842-0.329-1.672-0.65-2.489-0.962c-0.031-0.012-0.062-0.024-0.093-0.035
				c-0.797-0.304-1.58-0.6-2.349-0.888c-0.029-0.011-0.059-0.022-0.088-0.033c-0.782-0.292-1.55-0.576-2.301-0.851
				c-0.006-0.002-0.012-0.004-0.018-0.007c-1.522-0.557-2.975-1.077-4.348-1.56c-0.027-0.01-0.054-0.019-0.081-0.028
				c-0.658-0.231-1.297-0.454-1.916-0.667c-0.033-0.012-0.066-0.023-0.099-0.034c-0.615-0.212-1.21-0.415-1.783-0.609
				c-0.026-0.009-0.053-0.018-0.079-0.027c-1.797-0.608-3.383-1.129-4.717-1.558h-0.001c-0.012-0.004-0.024-0.008-0.036-0.012
				c-0.007-0.002-0.012-0.004-0.019-0.006c-0.256-0.082-0.503-0.161-0.74-0.236c-0.004-0.001-0.008-0.002-0.011-0.004
				c-0.001,0-0.002-0.001-0.003-0.001c-0.473-0.151-0.908-0.288-1.301-0.41c-0.005-0.002-0.011-0.003-0.016-0.005
				c-0.021-0.007-0.042-0.013-0.062-0.019c-0.196-0.061-0.383-0.119-0.557-0.173c-0.008-0.003-0.016-0.005-0.024-0.008
				c-0.002-0.001-0.003-0.001-0.005-0.002c-0.159-0.049-0.311-0.096-0.451-0.139c-0.015-0.005-0.029-0.009-0.044-0.013
				c-0.139-0.042-0.265-0.081-0.384-0.117c-0.001,0-0.003-0.001-0.004-0.001c-0.022-0.007-0.042-0.013-0.064-0.019
				c-0.004-0.001-0.007-0.002-0.011-0.003c-0.1-0.03-0.193-0.058-0.278-0.084c-0.004-0.001-0.009-0.003-0.013-0.004
				c-0.01-0.003-0.021-0.006-0.031-0.009c-0.002-0.001-0.004-0.001-0.007-0.002c-0.282-0.085-0.472-0.141-0.567-0.169
				c-0.001,0-0.003-0.001-0.004-0.001c-0.01-0.003-0.009-0.003-0.017-0.005c-0.032-0.009-0.053-0.015-0.053-0.015
				c-56.667,20.667,51.333,63.333,5.333,82.667c-0.987,0.415-1.959,0.814-2.923,1.205
				C234.958,571.873,234.953,571.875,234.947,571.877z"/>
		</g>
		<path fill="#3E90FF" d="M277.642,505.342c7.609-6.931,15.844-9.439,22.911-4.676c30.667,20.667,90,16,58.667-24.667
			s36-49.333,7.333-88.667S452.969,311.306,437.22,270c-35.334-92.667-18.667-90-18.667-90s0.017-0.062,0.052-0.179
			c9.13,3.066,18.451,6.873,27.948,11.513c40.997,20.026,69.14,53.172,85.94,89.024c-7.89,48.68-31.657,105.085-61.9,157.737
			c-1.333-0.657-2.677-1.347-4.04-2.095c-96.684-53.058-82.401,23.73-18.262,38.487c-29.114,44.644-61.59,84.19-90.832,110.583
			c-29.448,14.165-73.754,20.444-40.906-12.404C343.968,545.252,310.183,520.828,277.642,505.342z"/>
		<path fill="#0871FF" d="M383.22,500.667c-64-62.667,17.333-64,8.667-102.667c-8.667-38.667,35.333-52,56.667-106.667
			c18.695-47.906,39.949-63.557,44.92-66.696C585.91,315.958,562.205,488.492,466.553,436c-109.333-60-76.767,46.048,9.333,40.667
			c31.983-1.999,55.115,0.134,71.668,4.822c-12.78,24.448-27.266,47.747-42.577,68.212c-2.074-13.692-1.195-28.693-13.758-30.368
			c-91.432-12.191-2,18-42.667,56s-68.667-10-68.667-10c-0.446,10.267-25.104,22.908-46.013,28.433
			C365.902,573.3,416.757,533.505,383.22,500.667z"/>
		<path fill="#0060A8" d="M389.535,577.24c3.372-1.232,7.675-1.726,13.018-1.24c44,4,26-46.667,32-74.667s-86.667-52-37.333-82.667
			c49.333-30.667,62.667-12.667,72-84c5.793-44.278,28.794-71.084,45.41-85.053c12.525,17.682,21.738,36.985,27.858,56.364
			c1.676,7.097,3.627,14.849,5.893,23.294c14.41,75.287-17.37,142.102-81.828,106.729c-109.333-60-76.767,46.048,9.333,40.667
			c160-10,98.667,83.333,98.667,83.333c-100,43.333-53.333-36.667-83.333-40.667c-91.432-12.191-2,18-42.667,56
			C422.129,600.025,401.057,588.407,389.535,577.24z"/>
		<path fill="#476385" d="M510.49,565.324c16.843-20.361,56.203-9.694,46.063-55.324c-4-18-27.942-23.361-53.137-34.044
			C628.443,477.993,574.553,560,574.553,560C557.22,576.667,521.22,582,510.49,565.324z"/>
		<path fill="#466AFF" d="M223.22,562c8.71-16.84-4.319-25.588,2.745-38.137c10.473,12.405,24.977,25.16,23.557,35.424
			c-0.331,1.086-0.682,2.174-1.057,3.262c-1.589,3.003-4.915,5.738-10.578,8.118c-0.987,0.415-1.959,0.814-2.923,1.205
			c-0.313,0.127-0.62,0.247-0.93,0.371c-0.654,0.262-1.305,0.52-1.949,0.77c-0.345,0.134-0.688,0.265-1.03,0.397
			c-0.613,0.235-1.221,0.464-1.824,0.689c-0.331,0.123-0.663,0.247-0.991,0.367c-0.635,0.232-1.263,0.458-1.887,0.679
			c-0.277,0.098-0.556,0.199-0.83,0.295c-0.867,0.303-1.726,0.597-2.573,0.878c-0.02,0.007-0.041,0.014-0.061,0.021
			c-0.885,0.293-1.757,0.573-2.62,0.843c-0.211,0.066-0.419,0.128-0.629,0.193c-0.641,0.198-1.278,0.391-1.906,0.576
			c-0.261,0.077-0.518,0.15-0.777,0.225c-0.583,0.168-1.161,0.331-1.733,0.487c-0.251,0.069-0.502,0.138-0.752,0.204
			c-0.607,0.162-1.206,0.318-1.801,0.468c-0.193,0.049-0.388,0.1-0.58,0.147c-1.6,0.396-3.158,0.749-4.673,1.057
			c-0.089,0.018-0.176,0.034-0.264,0.052c-0.655,0.132-1.303,0.255-1.942,0.371c-0.06,0.011-0.119,0.021-0.178,0.031
			C212.495,574.784,220.098,568.035,223.22,562z"/>
		<path fill="#009EC3" d="M162.348,568.228c7.254-8.412,24.155-18.126,37.538-25.561c24-13.333,0.667-28.667,2.667-48
			s29.333-12,40-6.667c2.073,1.037,3.663,2.783,4.887,4.917c-8.922-3.182-14.887-4.917-14.887-4.917
			c-56.667,20.667,51.333,63.333,5.333,82.667C193.109,589.486,171.782,583.039,162.348,568.228z"/>
	</g>
	<path fill="#210046" stroke="#210046" stroke-miterlimit="10" d="M221.836,229.007c0,0,42.687,8.449,56.163,3.993
		c13.475-4.456,8.308,7.889-4.783,10.131C260.125,245.372,225.015,235.089,221.836,229.007z"/>
	<path fill="#210046" stroke="#210046" stroke-miterlimit="10" d="M386.775,232.979c0,0-48.683,9.636-64.051,4.554
		s-9.475,8.997,5.455,11.554C343.108,251.643,383.15,239.914,386.775,232.979z"/>
	<path fill="#210046" d="M255.129,370.952c-9.523-11.192,5.211-16.974,5.357-16.806c4.127,4.76,19.729-4.987,31.917,16.928
		C301.023,386.577,259.602,376.21,255.129,370.952z"/>
	<g>
		<path fill="#210046" d="M249.44,318.488c3.203-11.388-7.118,8.897-20.641-4.271c-47.287-46.043,14.591-63.702,22.064-51.958
			c0,0,17.082,12.456,11.032,44.485C259.492,319.473,249.44,318.488,249.44,318.488z"/>
		<g>
			<path fill="#210046" d="M214.92,278.638c-2.031-0.373-3.543-1.454-4.626-3.203c-0.067-0.108-0.017-0.653-0.018-0.732
				c-0.006-0.589-0.007-1.179-0.007-1.768s0.001-1.179,0.007-1.768c0-0.039,0.065-0.656,0.018-0.732
				c1.084,1.749,2.595,2.83,4.626,3.203C215.253,273.7,214.661,278.591,214.92,278.638L214.92,278.638z"/>
			<path fill="#210046" d="M213.853,279.706c-4.989,0.554-9.1-2.446-10.676-7.118c-0.509-1.507,0.501-3.516,0-5
				c1.577,4.672,5.687,7.672,10.676,7.118C213.707,274.722,214.073,279.682,213.853,279.706L213.853,279.706z"/>
			<path fill="#210046" d="M215.988,282.553c-6.17,1.348-14.562-0.905-16.726-7.473c-0.499-1.514,0.491-3.509,0-5
				c2.165,6.568,10.556,8.822,16.726,7.473C215.677,277.621,216.371,282.469,215.988,282.553L215.988,282.553z"/>
		</g>
		<path fill="#BDE7FF" d="M238.052,271.868c0,0,13.523-11.032,15.659,5.338C255.846,293.576,222.75,295.356,238.052,271.868z"/>
		<path fill="#DEF6FF" d="M233.6,309.239c-0.036-0.026-0.074-0.048-0.114-0.067c0.597,0.252,1.194,0.504,1.792,0.756
			c-0.055-0.023-0.105-0.038-0.164-0.048c0.665,0.089,1.329,0.179,1.994,0.268c-0.035-0.004-0.069-0.004-0.104,0
			c0.665-0.089,1.329-0.179,1.994-0.268c-0.052,0.009-0.097,0.022-0.145,0.043c0.597-0.252,1.194-0.504,1.792-0.756
			c-0.031,0.015-0.061,0.033-0.089,0.054c0.506-0.391,1.012-0.782,1.518-1.173c-0.044,0.036-0.082,0.073-0.12,0.116
			c0.391-0.506,0.782-1.012,1.173-1.518c-0.065,0.084-0.114,0.172-0.157,0.269c0.252-0.597,0.504-1.194,0.756-1.792
			c-0.052,0.134-0.085,0.269-0.105,0.411c0.089-0.665,0.179-1.329,0.268-1.994c-0.015,0.155-0.013,0.305,0.006,0.459
			c-0.089-0.665-0.179-1.329-0.268-1.994c0.022,0.133,0.056,0.257,0.104,0.383c-0.252-0.597-0.504-1.194-0.756-1.792
			c0.056,0.127,0.122,0.241,0.206,0.352c-0.391-0.506-0.782-1.012-1.173-1.518c0.076,0.089,0.155,0.166,0.246,0.239
			c-0.506-0.391-1.012-0.782-1.518-1.173c0.104,0.073,0.209,0.132,0.324,0.185c-0.597-0.252-1.194-0.504-1.792-0.756
			c0.172,0.066,0.342,0.107,0.525,0.132c-0.665-0.089-1.329-0.179-1.994-0.268c0.22,0.02,0.434,0.018,0.653-0.005
			c-0.665,0.089-1.329,0.179-1.994,0.268c0.152-0.024,0.293-0.058,0.437-0.111c-0.597,0.252-1.194,0.504-1.792,0.756
			c0.086-0.04,0.163-0.082,0.241-0.135c-0.506,0.391-1.012,0.782-1.518,1.173c0.065-0.054,0.119-0.107,0.172-0.173
			c-0.391,0.506-0.782,1.012-1.173,1.518c0.031-0.042,0.057-0.086,0.079-0.132c-0.252,0.597-0.504,1.194-0.756,1.792
			c0.03-0.073,0.052-0.142,0.068-0.219c-0.089,0.665-0.179,1.329-0.268,1.994c0.014-0.109,0.015-0.212,0.006-0.321
			c0.089,0.665,0.179,1.329,0.268,1.994c-0.022-0.147-0.06-0.285-0.112-0.424c0.252,0.597,0.504,1.194,0.756,1.792
			c-0.089-0.209-0.201-0.399-0.336-0.581c0.391,0.506,0.782,1.012,1.173,1.518c-0.145-0.182-0.304-0.343-0.486-0.488
			c0.506,0.391,1.012,0.782,1.518,1.173c-0.128-0.094-0.259-0.175-0.403-0.244c0.597,0.252,1.194,0.504,1.792,0.756
			c-0.138-0.058-0.274-0.099-0.422-0.121c0.665,0.089,1.329,0.179,1.994,0.268c-0.086-0.007-0.166-0.007-0.252-0.001
			c0.665-0.089,1.329-0.179,1.994-0.268c-0.086,0.014-0.163,0.033-0.245,0.061c0.597-0.252,1.194-0.504,1.792-0.756
			c-0.026,0.012-0.053,0.024-0.079,0.035c-0.597,0.252-1.194,0.504-1.792,0.756c-1.329,0.357-2.658,0.357-3.988,0
			c-1.875-0.516-3.5-1.77-4.482-3.447c-1.015-1.732-1.289-3.843-0.756-5.779c0.468-1.702,1.765-3.732,3.447-4.482
			c1.61-0.718,2.457-1.135,4.278-1.126c1.74,0.008,2.84,0.451,4.375,1.192c1.447,0.699,3.017,2.394,3.755,3.794
			c1.477,2.801,1.618,5.869,0.114,8.706c-0.65,1.225-1.895,2.414-3.093,3.09c-1.499,0.846-2.871,1.111-4.581,1.197
			c-5.052,0.253-9.356-4.148-9.304-9.115c0.024-2.282,0.891-4.612,2.548-6.215c2.541-2.458,6.688-3.164,9.747-1.189
			c1.666,1.076,2.912,2.54,3.447,4.482c0.532,1.936,0.259,4.047-0.756,5.779C241.865,309.956,237.038,311.459,233.6,309.239
			L233.6,309.239z"/>
	</g>
	<g>
		<path fill="#210046" d="M312.891,327.288c-0.088-11.987,4.661,10.647,21.698,1.573c59.575-31.729,2.815-66.127-7.816-56.76
			c0,0-20.385,7.392-23.08,40.283C302.623,325.456,312.891,327.288,312.891,327.288z"/>
		<g>
			<path fill="#210046" d="M358.759,293.111c2.114,0.192,3.898-0.421,5.474-1.836c-0.03,0.027,0.018,0.753,0.018,0.732
				c0.006,0.589,0.007,1.179,0.007,1.768s-0.001,1.179-0.007,1.768c0,0.008,0.038,0.682-0.018,0.732
				c-1.576,1.414-3.361,2.028-5.474,1.836C358.571,298.094,358.872,293.121,358.759,293.111L358.759,293.111z"/>
			<path fill="#210046" d="M359.531,294.448c4.79,1.883,9.643,0.205,12.559-3.97c-0.77,1.102,0.794,3.863,0,5
				c-2.916,4.175-7.769,5.853-12.559,3.97C358.931,299.212,360.065,294.658,359.531,294.448L359.531,294.448z"/>
			<path fill="#210046" d="M356.632,296.629c5.744,2.986,14.64,3.224,18.675-2.636c-0.766,1.112,0.79,3.852,0,5
				c-4.035,5.859-12.931,5.622-18.675,2.636C355.92,301.259,357.284,296.968,356.632,296.629L356.632,296.629z"/>
		</g>
		<path fill="#BDE7FF" d="M336.906,285.024c0,0-10.453-14.507-17.032,0.852C313.296,301.234,345.741,312.162,336.906,285.024z"/>
		<path fill="#DEF6FF" d="M327.17,308.082c1.276-0.392,3.109-0.431,4.391-0.009c1.695,0.557,2.072,0.864,3.426,1.994
			c0.536,0.448,0.888,1.092,1.298,1.652c0.91,1.245,0.986,2.729,1.165,4.178c0.104,0.841-0.135,1.749-0.291,2.547
			c-0.162,0.827-0.547,1.633-0.984,2.352c-0.965,1.585-1.628,2.008-3.075,3.1c-0.69,0.52-1.584,0.866-2.44,1.011
			c-1.967,0.332-2.769,0.377-4.766-0.047c-0.939-0.199-1.925-0.576-2.692-1.158c-1.694-1.286-1.626-1.132-2.867-2.868
			c-0.432-0.605-0.635-1.361-0.895-2.049c-0.484-1.282-0.347-3.26,0.008-4.539c0.482-1.738,1.145-2.484,2.239-3.854
			c1.038-1.3,3.067-2.332,4.632-2.769c1.695-0.473,2.952-0.354,4.638-0.045c1.555,0.285,2.696,1.219,3.867,2.184
			c1.459,1.202,2.197,3.484,2.197,5.303c0,1.981-0.797,3.903-2.197,5.303s-3.322,2.197-5.303,2.197
			c-0.665-0.089-1.329-0.179-1.994-0.268c-1.271-0.356-2.374-0.999-3.31-1.929c-0.02-0.017-0.041-0.034-0.061-0.051
			c0.506,0.391,1.012,0.782,1.518,1.173c-0.065-0.046-0.129-0.083-0.2-0.119c0.597,0.252,1.194,0.504,1.792,0.756
			c-0.098-0.04-0.193-0.067-0.296-0.086c0.665,0.089,1.329,0.179,1.994,0.268c-0.136-0.016-0.266-0.016-0.402-0.003
			c0.665-0.089,1.329-0.179,1.994-0.268c-0.202,0.029-0.391,0.084-0.58,0.161c0.597-0.252,1.194-0.504,1.792-0.756
			c-0.221,0.099-0.423,0.219-0.616,0.365c0.506-0.391,1.012-0.782,1.518-1.173c-0.158,0.129-0.3,0.268-0.427,0.427
			c0.391-0.506,0.782-1.012,1.173-1.518c-0.079,0.108-0.147,0.218-0.205,0.34c0.252-0.597,0.504-1.194,0.756-1.792
			c-0.047,0.115-0.08,0.226-0.096,0.349c0.089-0.665,0.179-1.329,0.268-1.994c-0.004,0.071-0.003,0.137,0.004,0.207
			c-0.089-0.665-0.179-1.329-0.268-1.994c0.013,0.071,0.031,0.134,0.056,0.201c-0.252-0.597-0.504-1.194-0.756-1.792
			c0.033,0.069,0.069,0.129,0.114,0.191c-0.391-0.506-0.782-1.012-1.173-1.518c0.055,0.065,0.112,0.122,0.176,0.178
			c-0.506-0.391-1.012-0.782-1.518-1.173c0.139,0.106,0.285,0.186,0.445,0.257c-0.597-0.252-1.194-0.504-1.792-0.756
			c0.218,0.085,0.438,0.147,0.669,0.186c-0.665-0.089-1.329-0.179-1.994-0.268c0.191,0.024,0.374,0.029,0.565,0.006
			c-0.665,0.089-1.329,0.179-1.994,0.268c0.135-0.023,0.262-0.057,0.389-0.108c-0.597,0.252-1.194,0.504-1.792,0.756
			c0.114-0.053,0.217-0.114,0.317-0.19c-0.506,0.391-1.012,0.782-1.518,1.173c0.092-0.077,0.172-0.159,0.247-0.252
			c-0.391,0.506-0.782,1.012-1.173,1.518c0.083-0.112,0.15-0.229,0.207-0.356c-0.252,0.597-0.504,1.194-0.756,1.792
			c0.058-0.145,0.099-0.291,0.123-0.445c-0.089,0.665-0.179,1.329-0.268,1.994c0.017-0.143,0.019-0.283,0.001-0.426
			c0.089,0.665,0.179,1.329,0.268,1.994c-0.015-0.091-0.038-0.176-0.071-0.262c0.252,0.597,0.504,1.194,0.756,1.792
			c-0.028-0.061-0.059-0.115-0.098-0.169c0.391,0.506,0.782,1.012,1.173,1.518c-0.03-0.036-0.061-0.066-0.097-0.096
			c0.506,0.391,1.012,0.782,1.518,1.173c-0.038-0.026-0.074-0.047-0.117-0.065c0.597,0.252,1.194,0.504,1.792,0.756
			c-0.029-0.011-0.058-0.019-0.088-0.024c0.665,0.089,1.329,0.179,1.994,0.268c-0.051-0.006-0.097-0.007-0.148-0.004
			c0.665-0.089,1.329-0.179,1.994-0.268c-0.058,0.008-0.111,0.021-0.167,0.038c-3.908,1.199-8.166-1.385-9.226-5.238
			c-0.532-1.936-0.259-4.047,0.756-5.779C323.694,309.811,325.286,308.66,327.17,308.082L327.17,308.082z"/>
	</g>
</g>
<g>
	<path fill="#008EC2" d="M556.933,93.115c0,0-9.655-43.586-46.06-55.574s-92.111,18.042-155.826-7.443s-168.428-15.137-189.21-1.241
		S98.364,54.243,78.61,49.167c-19.754-5.076-64.501,7.521-62.347,41.687s24.791,78.456,87.457,67.832
		c62.667-10.624,91.816-31.077,128.275-20.088s102.795,6.572,138.664-8.509s84.93,3.601,114.507,12.214
		S562.162,144.474,556.933,93.115z"/>
	<path fill="#005483" stroke="#005A89" stroke-miterlimit="10" d="M432.448,127.742c6.735-5.458,12.899-12.115,18.071-20.242
		c19.341-30.393,63.487-44.084,88.945-49.647c13.275,16.339,17.469,35.262,17.469,35.262c5.228,51.358-42.19,57.802-71.767,49.188
		C470.904,138.15,452.108,131.664,432.448,127.742z"/>
	<path fill="#0060A8" d="M115.519,92.5c28.369-6.018,119.554-62.288,144.588-77.963c32.609,0.279,67.559,4.61,94.94,15.561
		c63.715,25.485,119.421-4.545,155.826,7.443c36.405,11.988,46.06,55.574,46.06,55.574c5.229,51.359-42.19,57.801-71.767,49.188
		c-29.577-8.613-78.638-27.295-114.507-12.214c-35.869,15.081-102.205,19.498-138.664,8.509
		c-36.459-10.989-65.608,9.464-128.275,20.088c-28.668,4.86-48.955-1.776-62.739-13.674C59.486,120.403,97.278,96.369,115.519,92.5z
		"/>
	<path fill="#0871FF" d="M68.981,158.633c47.746-39.994,134.408-80.265,163.538-78.133c41,3,94-25,111-37
		c5.705-4.027,9.723-8.392,14.468-12.263c57.392,21.52,108.09-1.126,143.748,4.182c-11.689,14.328-36.917,40.812-63.216,40.081
		c-36-1-111,0-132,13c-11.536,7.141-42.99,31.18-77.617,49.243c-35.05-8.971-64.298,10.621-125.182,20.943
		C90.39,160.946,78.875,160.718,68.981,158.633z"/>
	<path fill="#3E90FF" d="M16.263,90.854c-0.166-2.627-0.052-5.125,0.304-7.499c33.872-12.265,87.067-14.797,98.952-8.855
		c20,10,110.588-51.963,144.588-59.963c6.594-1.551,34.691,3.427,42.795,2.843c18.612,2.421,36.599,6.501,52.144,12.719
		c8.69,3.476,17.23,5.913,25.594,7.571c-24.742,16.577-87.495,27.282-96.122,39.831c-11,16-94,28-124,31
		c-24.489,2.449-46.312,26.886-68.19,51.556C38.279,163.758,18.281,122.864,16.263,90.854z"/>
	<path fill="#30CBFF" d="M78.61,49.167c19.754,5.076,66.445-6.414,87.227-20.31c6.421-4.293,20.859-8.246,39.618-10.91
		c-14.654,19.994-46.069,59.043-66.936,57.553c-28-2-63,79-119,34c-0.044-0.035-0.085-0.068-0.129-0.103
		c-1.74-6.259-2.75-12.556-3.127-18.543C14.109,56.688,58.856,44.091,78.61,49.167z"/>
	<path fill="#46B6FF" d="M110.519,76.5c15.076,6.167,46.114-28.046,64.161-50.196c11.839-8.804,61.4-9.848,85.428-11.768
		c-16.991,14.457-66.269,41.156-74.588,56.963c-10,19-50,30-80,41c-21.16,7.759-29.841,29.699-36.538,46.133
		C33.519,154.5,19.519,116.5,19.519,109.5C22.519,101.5,88.519,67.5,110.519,76.5z"/>
	<path fill="#476385" d="M390.067,125.113c17.648-6.05,42.371-11.123,55.452-9.613c26,3,64-18,92-29
		c6.923-2.72,12.252-3.479,16.359-3.087c2.189,5.794,3.055,9.702,3.055,9.702c5.229,51.359-42.19,57.801-71.767,49.188
		C460.648,135.163,422.748,121.124,390.067,125.113z"/>
</g>
</svg>
