<?xml version="1.0" encoding="utf-8"?>
<!-- Generator: Adobe Illustrator 17.0.0, SVG Export Plug-In . SVG Version: 6.00 Build 0)  -->
<!DOCTYPE svg PUBLIC "-//W3C//DTD SVG 1.1//EN" "http://www.w3.org/Graphics/SVG/1.1/DTD/svg11.dtd">
<svg version="1.1" id="Слой_1" xmlns="http://www.w3.org/2000/svg" xmlns:xlink="http://www.w3.org/1999/xlink" x="0px" y="0px"
	 width="700px" height="700px" viewBox="0 0 700 700" enable-background="new 0 0 700 700" xml:space="preserve">
<path fill="#F5CC4F" d="M264.969,264.505c0,0,43.299-475.258,200-10.309c0,0,6.186,21.649,22.68,12.371
	s426.804-78.732,38.144,178.35c0,0-27.835,12.371-20.619,26.804c7.216,14.433,157.732,437.113-139.175,71.134
	c0,0-12.371-12.371-22.68,1.031C333.01,557.289,37.488,937.031,225,437c0,0,4-16-15-19c-7.964-1.257-464-165,44-144
	C254,274,260.938,275.01,264.969,264.505z"/>
<path fill="#EBAF44" d="M479,579c-35-27-53-56-51-77s-38.587-28.378-56-47c-72-77-51-98-51-98c30,11-171.241-125.623,16.456,194.368
	c3.121-3.937,5.159-6.566,5.863-7.481c10.309-13.402,22.68-1.031,22.68-1.031c190.56,234.892,196.813,144.912,174.937,46.502
	C523.201,586.657,501.734,596.538,479,579z"/>
<path fill="#E8B460" d="M466,635c-49-59-45-105-78-125s-36.939-47.984-43-56c-31-41-60-24-15-115s-57-133-57-133
	c-0.098,0.07-0.193,0.14-0.291,0.21c-5.445,33.106-7.74,58.295-7.74,58.295C260.938,275.01,254,274,254,274
	c-14.983-0.619-29.117-1.076-42.459-1.383c-24.825,46.974-18.95,97.602,3.176,146.532C228.29,423.834,225,437,225,437
	c-0.203,0.541-0.401,1.073-0.603,1.612c24.978,46.123,62.971,90.055,101.459,127.157c9.666-11.825,16.091-20.099,17.463-21.883
	c10.309-13.402,22.68-1.031,22.68-1.031c56.748,69.95,97.151,111.088,125.334,131.774C492.362,670.348,486.326,659.474,466,635z"/>
<path fill="#E4995C" d="M372,519c-21-64-65-22-111-73s-21-36,21-154c14.202-39.9,6.334-64.475-10.298-79.533
	c-4.722,29.971-6.733,52.038-6.733,52.038C260.938,275.01,254,274,254,274c-508-21-51.964,142.743-44,144c19,3,15,19,15,19
	C37.488,937.031,333.01,557.289,343.32,543.887c10.309-13.402,22.68-1.031,22.68-1.031c26.023,32.076,48.604,58.087,68.15,78.852
	C445.663,585.095,390.403,575.085,372,519z"/>
<path fill="#EAAA5A" d="M180,347c-33-52,39-74,39-74l-1.072-0.226c-449.547-11.74-15.694,144-7.928,145.226c19,3,15,19,15,19
	c-37.251,99.335-55.437,163.946-60.585,203.611c3.434,1.748,6.337,2.589,8.585,2.389c45-4,14-43,22-59
	C286.128,401.743,213,399,180,347z"/>
<path fill="#EAAC5A" d="M592.501,251.499L592,252c0,0,46,36,31,70c-14.892,33.756-62.3,45.831-38.513,82.213
	C767.66,269.916,681.412,247.84,592.501,251.499z"/>
<g>
	<path fill="#ECB15F" stroke="#F0BB44" stroke-miterlimit="10" d="M514,387c-27.062-10.283-6.961,22.202,12.421,57.501
		c18.994-12.574,36.07-24.365,51.373-35.419C559.456,407.287,540.334,397.007,514,387z"/>
	<path fill="#ECB15F" stroke="#F0BB44" stroke-miterlimit="10" d="M525.898,532.534C507.133,552.658,499.287,576.532,527,585
		c4.46,1.363,9.013,2.278,13.591,2.808C536.332,568.885,531.065,549.713,525.898,532.534z"/>
</g>
<path fill="#FFFFFF" d="M321.224,302.967c0,0-13.789-53.457-42.293,41.449S352.778,391.307,321.224,302.967z"/>
<path fill="#FFFFFF" d="M403.593,306.449c0,0,14.39-55.013,43.998,42.375C477.199,446.212,370.686,397.407,403.593,306.449z"/>
<path fill="#312539" d="M403.593,308c-4.26,11.774-6.168,22.773-6.353,32.805c21.294,34.135,49.801,67.442,46.946-4.707
	C416.88,253.929,403.593,308,403.593,308z"/>
<path fill="#312539" d="M321.224,302.967c0,0-11.659-45.181-35.693,21.314c-3.942,46.684-3.311,106.725,41.717,8.721
	C326.875,323.695,325.032,313.629,321.224,302.967z"/>
<path fill="#312539" d="M400,243c0,0,18-8,22-17S423,259,400,243z"/>
<path fill="#312539" d="M318,238c0,0-21-4-28-14S302,256,318,238z"/>
<g>
	<g>
		<path fill="#312539" d="M436.567,345.25c9.757-4.57,13.778-15.153,12.866-25.5c0.012,0.133-0.879,0.353-0.866,0.5
			c0.796,9.028-2.23,20.329-11.134,24.5C437.132,344.891,436.867,345.109,436.567,345.25L436.567,345.25z"/>
	</g>
</g>
<g>
	<g>
		<path fill="#312539" d="M441.567,338.25c8.343,0.712,16.294-1.658,22.699-7.027c8.277-6.938,12.063-18.046,13.167-28.473
			c-0.02,0.189-0.845,0.299-0.866,0.5c-0.938,8.855-3.734,17.603-9.386,24.602c-6.128,7.589-15.197,10.712-24.748,9.898
			C442.156,337.726,441.835,338.273,441.567,338.25L441.567,338.25z"/>
	</g>
</g>
<g>
	<g>
		<path fill="#312539" d="M442.567,338.25c12.265,10.877,32.73,4.512,42.866-6.5c-0.214,0.232-0.649,0.264-0.866,0.5
			c-9.753,10.596-29.4,15.905-41.134,5.5C443.349,337.675,442.64,338.315,442.567,338.25L442.567,338.25z"/>
	</g>
</g>
<g>
	<g>
		<path fill="#312539" d="M299.433,325.75c-15.254,3.855-32.718-7.247-31-24c-0.019,0.188-0.845,0.3-0.866,0.5
			c-1.718,16.753,15.746,27.855,31,24C298.88,326.171,299.124,325.828,299.433,325.75L299.433,325.75z"/>
	</g>
</g>
<g>
	<g>
		<path fill="#312539" d="M291.567,320.25c-14.563,13.293-42.89,7.438-48.134-12.5c0.02,0.078-0.89,0.408-0.866,0.5
			c5.607,21.318,34.958,25.108,49.866,11.5C292.194,319.968,291.809,320.03,291.567,320.25L291.567,320.25z"/>
	</g>
</g>
<g>
	<g>
		<path fill="#312539" d="M288.567,324.25c-8.959,10.733-23.444,16.046-36.134,8.5c-0.146-0.087-0.732,0.58-0.866,0.5
			c13.278,7.895,28.69,1.493,37.866-9.5C289.234,323.988,288.769,324.008,288.567,324.25L288.567,324.25z"/>
	</g>
</g>
<g>
	<g>
		<path fill="#312539" d="M337.984,411.683c0.267,11.406-0.132,5.721,1.525,2.324c0.859-1.762,2.283-3.188,3.784-4.406
			c2.895-2.351,6.715-3.391,10.367-3.666c7.787-0.585,14.685,4.065,15.388,12.065c-0.29-3.303,0.195-6.685-0.096-10
			c-0.918-10.437-11.521-13.806-20.481-11.125c-11.279,3.375-10.681,13.799-10.455,23.442c0.043,1.848,0.052-1.53,0.051-1.794
			C338.059,416.243,338.037,413.962,337.984,411.683L337.984,411.683z"/>
	</g>
</g>
</svg>
