<?xml version="1.0" encoding="utf-8"?>
<!-- Generator: Adobe Illustrator 17.0.0, SVG Export Plug-In . SVG Version: 6.00 Build 0)  -->
<!DOCTYPE svg PUBLIC "-//W3C//DTD SVG 1.1//EN" "http://www.w3.org/Graphics/SVG/1.1/DTD/svg11.dtd">
<svg version="1.1" id="Слой_1" xmlns="http://www.w3.org/2000/svg" xmlns:xlink="http://www.w3.org/1999/xlink" x="0px" y="0px"
	 width="700px" height="700px" viewBox="0 0 700 700" enable-background="new 0 0 700 700" xml:space="preserve">
<path fill="#F5CC4F" d="M264.969,264.505c0,0,94.531-479.005,200-10.309c0,0,5.318,19.9,22.68,12.371
	C598.5,218.5,869.5,153.5,530.5,429.167c0,0-19,10.333-13,27.333c39,58,186,344-151.501,86.355c0,0-12.371-12.371-22.68,1.031
	C330.833,554.833,44.5,746.5,225,437c0,0,4-16-15-19c-0.5-41.5-354-163,43.5-127.5C253.5,290.5,260.938,275.01,264.969,264.505z"/>
<path fill="#EBAF44" d="M480,578c-35-27-53-56-51-77s-38.587-28.378-56-47c-72-77-51-98-51-98c30,11-172.697-127.991,15,192
	c3.121-3.937,6.615-4.198,7.319-5.113c10.309-13.402,22.68-1.031,22.68-1.031C614.5,756.5,609.5,647.5,566.5,554.5
	C548.765,551.799,502.734,595.538,480,578z"/>
<path fill="#E8B460" d="M479.5,621.5c-49-59-58.5-91.5-91.5-111.5s-36.939-47.984-43-56c-31-41-60-24-15-115s-50.5-132.5-50.5-132.5
	c-0.098,0.07,0.098-0.07,0,0c-5.445,33.106-14.531,58.005-14.531,58.005C260.938,275.01,256.5,290.5,256.5,290.5
	c-14.983-0.619-44.658-2.693-58-3c-24.825,46.974-5.909,82.719,16.217,131.649C228.29,423.834,225,437,225,437
	c-0.203,0.541-0.401,1.073-0.603,1.612c24.978,46.123,58.615,81.786,97.103,118.888c9.666-11.825,20.447-11.83,21.819-13.614
	c10.309-13.402,22.68-1.031,22.68-1.031C454.5,609.5,493.317,634.814,521.5,655.5C522.529,651.219,499.826,645.974,479.5,621.5z"/>
<path fill="#E4995C" d="M372,519c-21-64-65-22-111-73s-21-36,21-154c14.202-39.9,12.132-63.442-4.5-78.5
	c-4.722,29.971-12.531,51.005-12.531,51.005C262.5,280.5,246.5,280.5,246.5,280.5c-292-93-44.464,136.243-36.5,137.5
	c19,3,15,19,15,19C-70.5,852.5,326.5,569.5,343.32,543.887c13.347-10.72,22.68-1.031,22.68-1.031
	c26.023,32.076,66.833,51.644,91.5,71.644C469.013,577.887,390.403,575.085,372,519z"/>
<path fill="#EAAA5A" d="M180,347c-33-52,41.5-73.5,41.5-73.5c-420-112-19.266,143.274-11.5,144.5
	c17.5,9.5,11.167,17.833,11.167,17.833c-2.5,12.5-66.667,99.667-98.667,174.667c-22,40,6,59,30,52c45-17,16-31,42.5-78.5
	C286.128,401.743,213,399,180,347z"/>
<path fill="#EAAC5A" d="M600.5,230.5c0,0,37.5,34.5,22.5,68.5c-14.892,33.756-58.287,45.118-34.5,81.5
	C751.5,251.5,705.5,205.5,600.5,230.5z"/>
<g>
	<path fill="#ECB15F" d="M505.333,376.667c-27.062-10.283-7.215,29.534,12.167,64.833c15-16,34.697-32.946,50-44
		C549.162,395.705,531.667,386.674,505.333,376.667z"/>
	<path fill="#ECB15F" d="M537.5,491.5c-17.704,21.063-16.31,47.31,11.802,54.34c4.524,1.132,9.599-0.633,14.198-0.34
		C558.272,526.821,543.545,508.39,537.5,491.5z"/>
</g>
<path fill="#FFFFFF" d="M321.224,302.967c0,0-13.789-53.457-42.293,41.449S352.778,391.307,321.224,302.967z"/>
<path fill="#FFFFFF" d="M403.593,306.449c0,0,14.39-55.013,43.998,42.375S370.686,397.407,403.593,306.449z"/>
<path fill="#312539" d="M403.593,308c-4.26,11.774-6.168,22.773-6.353,32.805c21.294,34.135,49.801,67.442,46.946-4.707
	C416.88,253.929,403.593,308,403.593,308z"/>
<path fill="#312539" d="M321.224,302.967c0,0-11.659-45.181-35.693,21.314c-3.942,46.684-3.311,106.725,41.717,8.721
	C326.875,323.695,325.032,313.629,321.224,302.967z"/>
<path fill="#312539" d="M404.667,245.667c0,0,18-8,22-17S427.667,261.667,404.667,245.667z"/>
<path fill="#312539" d="M316,240c0,0-21-4-28-14S300,258,316,240z"/>
<g>
	<g>
		<path fill="#312539" d="M436.567,345.25c9.757-4.57,13.778-15.153,12.866-25.5c0.012,0.133-0.879,0.353-0.866,0.5
			c0.796,9.028-2.23,20.329-11.134,24.5C437.132,344.891,436.867,345.109,436.567,345.25L436.567,345.25z"/>
	</g>
</g>
<g>
	<g>
		<path fill="#312539" d="M441.567,338.25c8.343,0.712,16.294-1.658,22.699-7.027c8.277-6.938,12.063-18.046,13.167-28.473
			c-0.02,0.189-0.845,0.299-0.866,0.5c-0.938,8.855-3.734,17.603-9.386,24.602c-6.128,7.589-15.197,10.712-24.748,9.898
			C442.156,337.726,441.835,338.273,441.567,338.25L441.567,338.25z"/>
	</g>
</g>
<g>
	<g>
		<path fill="#312539" d="M442.567,338.25c12.265,10.877,32.73,4.512,42.866-6.5c-0.214,0.232-0.649,0.264-0.866,0.5
			c-9.753,10.596-29.4,15.905-41.134,5.5C443.349,337.675,442.64,338.315,442.567,338.25L442.567,338.25z"/>
	</g>
</g>
<g>
	<g>
		<path fill="#312539" d="M299.433,325.75c-15.254,3.855-32.718-7.247-31-24c-0.019,0.188-0.845,0.3-0.866,0.5
			c-1.718,16.753,15.746,27.855,31,24C298.88,326.171,299.124,325.828,299.433,325.75L299.433,325.75z"/>
	</g>
</g>
<g>
	<g>
		<path fill="#312539" d="M291.567,320.25c-14.563,13.293-42.89,7.438-48.134-12.5c0.02,0.078-0.89,0.408-0.866,0.5
			c5.607,21.318,34.958,25.108,49.866,11.5C292.194,319.968,291.809,320.03,291.567,320.25L291.567,320.25z"/>
	</g>
</g>
<g>
	<g>
		<path fill="#312539" d="M288.567,324.25c-8.959,10.733-23.444,16.046-36.134,8.5c-0.146-0.087-0.732,0.58-0.866,0.5
			c13.278,7.895,28.69,1.493,37.866-9.5C289.234,323.988,288.769,324.008,288.567,324.25L288.567,324.25z"/>
	</g>
</g>
<g>
	<g>
		<path fill="#312539" d="M337.984,411.683c0.267,11.406-0.132,5.721,1.525,2.324c0.859-1.762,2.283-3.188,3.784-4.406
			c2.895-2.351,6.715-3.391,10.367-3.666c7.787-0.585,14.685,4.065,15.388,12.065c-0.29-3.303,0.195-6.685-0.096-10
			c-0.918-10.437-11.521-13.806-20.481-11.125c-11.279,3.375-10.681,13.799-10.455,23.442c0.043,1.848,0.052-1.53,0.051-1.794
			C338.059,416.243,338.037,413.962,337.984,411.683L337.984,411.683z"/>
	</g>
</g>
</svg>
