<?xml version="1.0" encoding="utf-8"?>
<!-- Generator: Adobe Illustrator 17.0.0, SVG Export Plug-In . SVG Version: 6.00 Build 0)  -->
<!DOCTYPE svg PUBLIC "-//W3C//DTD SVG 1.1//EN" "http://www.w3.org/Graphics/SVG/1.1/DTD/svg11.dtd">
<svg version="1.1" id="Слой_1" xmlns="http://www.w3.org/2000/svg" xmlns:xlink="http://www.w3.org/1999/xlink" x="0px" y="0px"
	 width="700px" height="700px" viewBox="0 0 700 700" enable-background="new 0 0 700 700" xml:space="preserve">
<path fill="#F5CC4F" d="M264.969,264.505c0,0,43.299-475.258,200-10.309c0,0,5.03,19.199,22.68,12.371
	c20.851-8.067,431.511-94.482,42.851,162.6c0,0-21.333,12.667-20.667,28.667c10,43.333,162.667,436.667-143.834,85.022
	c0,0-12.371-12.371-22.68,1.031C330.833,554.833-35.5,875.5,225,437c0,0,4-16-15-19c-7.964-1.257-353.5-179.5,44-144
	C254,274,260.938,275.01,264.969,264.505z"/>
<path fill="#EBAF44" d="M479,579c-35-27-53-56-51-77s-38.587-28.378-56-47c-72-77-51-98-51-98c30,11-172.697-127.991,15,192
	c3.121-3.937,6.615-4.198,7.319-5.113c10.309-13.402,22.68-1.031,22.68-1.031C573.167,777.833,571.833,679.833,546.5,583.167
	C528.765,580.466,501.734,596.538,479,579z"/>
<path fill="#E8B460" d="M466,635c-49-59-45-105-78-125s-36.939-47.984-43-56c-31-41-60-24-15-115s-57-133-57-133
	c-0.098,0.07-0.193,0.14-0.291,0.21c-5.445,33.106-7.74,58.295-7.74,58.295C260.938,275.01,254,274,254,274
	c-14.983-0.619-29.117-1.076-42.459-1.383c-24.825,46.974-18.95,97.602,3.176,146.532C228.29,423.834,225,437,225,437
	c-0.203,0.541-0.401,1.073-0.603,1.612c24.978,46.123,58.615,81.786,97.103,118.888c9.666-11.825,20.447-11.83,21.819-13.614
	c10.309-13.402,22.68-1.031,22.68-1.031c57.834,72.978,109.651,112.292,137.834,132.978C504.862,671.552,486.326,659.474,466,635z"
	/>
<path fill="#E4995C" d="M372,519c-21-64-65-22-111-73s-21-36,21-154c14.202-39.9,6.334-64.475-10.298-79.533
	c-4.722,29.971-6.733,52.038-6.733,52.038C260.938,275.01,254,274,254,274c-449.5-39.5-51.964,142.743-44,144c19,3,15,19,15,19
	c-273.5,438.5,99.5,126.5,118.32,106.887c13.347-10.72,22.68-1.031,22.68-1.031c26.023,32.076,47.833,58.311,72.5,78.311
	C450.013,584.554,390.403,575.085,372,519z"/>
<path fill="#EAAA5A" d="M180,347c-33-52,37.928-74.226,37.928-74.226C-209.5,226.5,202.234,416.774,210,418
	c17.5,9.5,11.167,17.833,11.167,17.833C218.667,448.333,128.5,589.5,119.5,629.5c-4,26,10,51,33,33c38-23,34.5-62.5,42.5-78.5
	C286.128,401.743,213,399,180,347z"/>
<path fill="#EAAC5A" d="M593.833,247.833c0,0,45.5,28.167,30.5,62.167c-14.892,33.756-62.287,44.118-38.5,80.5
	C769.006,256.203,691.167,239.167,593.833,247.833z"/>
<g>
	<path fill="#ECB15F" d="M507.333,379.667c-27.062-10.283-6.961,22.202,12.421,57.501c18.994-12.574,36.07-24.365,51.373-35.419
		C552.789,399.954,533.667,389.674,507.333,379.667z"/>
	<path fill="#ECB15F" d="M526.5,514.5c-17.704,21.063-24.31,45.31,3.802,52.34c4.524,1.132,6.932,0.033,11.531,0.327
		C536.606,548.488,532.545,531.39,526.5,514.5z"/>
</g>
<path fill="#FFFFFF" d="M321.224,302.967c0,0-13.789-53.457-42.293,41.449S352.778,391.307,321.224,302.967z"/>
<path fill="#FFFFFF" d="M403.593,306.449c0,0,14.39-55.013,43.998,42.375S370.686,397.407,403.593,306.449z"/>
<path fill="#312539" d="M403.593,308c-4.26,11.774-6.168,22.773-6.353,32.805c21.294,34.135,49.801,67.442,46.946-4.707
	C416.88,253.929,403.593,308,403.593,308z"/>
<path fill="#312539" d="M321.224,302.967c0,0-11.659-45.181-35.693,21.314c-3.942,46.684-3.311,106.725,41.717,8.721
	C326.875,323.695,325.032,313.629,321.224,302.967z"/>
<path fill="#312539" d="M404.667,245.667c0,0,18-8,22-17S427.667,261.667,404.667,245.667z"/>
<path fill="#312539" d="M316,240c0,0-21-4-28-14S300,258,316,240z"/>
<g>
	<g>
		<path fill="#312539" d="M436.567,345.25c9.757-4.57,13.778-15.153,12.866-25.5c0.012,0.133-0.879,0.353-0.866,0.5
			c0.796,9.028-2.23,20.329-11.134,24.5C437.132,344.891,436.867,345.109,436.567,345.25L436.567,345.25z"/>
	</g>
</g>
<g>
	<g>
		<path fill="#312539" d="M441.567,338.25c8.343,0.712,16.294-1.658,22.699-7.027c8.277-6.938,12.063-18.046,13.167-28.473
			c-0.02,0.189-0.845,0.299-0.866,0.5c-0.938,8.855-3.734,17.603-9.386,24.602c-6.128,7.589-15.197,10.712-24.748,9.898
			C442.156,337.726,441.835,338.273,441.567,338.25L441.567,338.25z"/>
	</g>
</g>
<g>
	<g>
		<path fill="#312539" d="M442.567,338.25c12.265,10.877,32.73,4.512,42.866-6.5c-0.214,0.232-0.649,0.264-0.866,0.5
			c-9.753,10.596-29.4,15.905-41.134,5.5C443.349,337.675,442.64,338.315,442.567,338.25L442.567,338.25z"/>
	</g>
</g>
<g>
	<g>
		<path fill="#312539" d="M299.433,325.75c-15.254,3.855-32.718-7.247-31-24c-0.019,0.188-0.845,0.3-0.866,0.5
			c-1.718,16.753,15.746,27.855,31,24C298.88,326.171,299.124,325.828,299.433,325.75L299.433,325.75z"/>
	</g>
</g>
<g>
	<g>
		<path fill="#312539" d="M291.567,320.25c-14.563,13.293-42.89,7.438-48.134-12.5c0.02,0.078-0.89,0.408-0.866,0.5
			c5.607,21.318,34.958,25.108,49.866,11.5C292.194,319.968,291.809,320.03,291.567,320.25L291.567,320.25z"/>
	</g>
</g>
<g>
	<g>
		<path fill="#312539" d="M288.567,324.25c-8.959,10.733-23.444,16.046-36.134,8.5c-0.146-0.087-0.732,0.58-0.866,0.5
			c13.278,7.895,28.69,1.493,37.866-9.5C289.234,323.988,288.769,324.008,288.567,324.25L288.567,324.25z"/>
	</g>
</g>
<g>
	<g>
		<path fill="#312539" d="M337.984,411.683c0.267,11.406-0.132,5.721,1.525,2.324c0.859-1.762,2.283-3.188,3.784-4.406
			c2.895-2.351,6.715-3.391,10.367-3.666c7.787-0.585,14.685,4.065,15.388,12.065c-0.29-3.303,0.195-6.685-0.096-10
			c-0.918-10.437-11.521-13.806-20.481-11.125c-11.279,3.375-10.681,13.799-10.455,23.442c0.043,1.848,0.052-1.53,0.051-1.794
			C338.059,416.243,338.037,413.962,337.984,411.683L337.984,411.683z"/>
	</g>
</g>
</svg>
