<?xml version="1.0" encoding="utf-8"?>
<!-- Generator: Adobe Illustrator 17.0.0, SVG Export Plug-In . SVG Version: 6.00 Build 0)  -->
<!DOCTYPE svg PUBLIC "-//W3C//DTD SVG 1.1//EN" "http://www.w3.org/Graphics/SVG/1.1/DTD/svg11.dtd">
<svg version="1.1" id="Слой_2" xmlns="http://www.w3.org/2000/svg" xmlns:xlink="http://www.w3.org/1999/xlink" x="0px" y="0px"
	 width="700px" height="700px" viewBox="0 0 700 700" enable-background="new 0 0 700 700" xml:space="preserve">
<path fill="#8FC05B" d="M497.878,12.457c0,0-290.422,136.459-329.073,363.825s17.658,284.402,17.658,284.402
	s190.265,22.124,301.002-169.276S451.073,97.121,497.878,12.457z"/>
<path fill="#4E855A" d="M483.96,189.915c38.026,41.824,30.533,186.081,12.751,215.227c-17.782,29.146-42.925,2.034-76.324,109.344
	c-10.874,34.938-22.57,64.38-31.374,87.542c35.041-25.066,69.471-60.527,98.454-110.621
	c82.118-141.934,22.434-290.184,5.185-391.857C476.587,124.766,460.46,164.068,483.96,189.915z"/>
<path fill="#52AC62" d="M490.982,88.881C468.509,108.303,435.622,111.567,422,132c-24,36-56.857,28.888-91.391,66.998
	c-34.534,38.109-23.805,30.841-65.196,61.557c-19.508,14.477-45.016,21.389-66.536,24.653
	c-14.052,28.446-24.593,58.845-30.072,91.074c-33.788,198.757,4.991,267.351,15.285,281.466c10.245,1.185,22.271,2.323,35.495,3.319
	c59.422-3.115,185.602-27.448,267.881-169.659C572.506,344.424,505.477,190.671,490.982,88.881z"/>
<path fill="#518258" d="M487.466,491.407c69.245-119.683,37.665-243.852,15.719-340.804
	c-22.018,18.447-77.244,68.601-81.129,110.561C417.195,313.663,340.026,364.851,283,362c-20-1-82-40-106-23
	c-2.154,8.34-9.538,30.397-11,39c-33.788,198.757,7.797,265.632,18.09,279.747c10.245,1.185,22.271,2.323,35.495,3.319
	C279.008,657.952,405.188,633.619,487.466,491.407z"/>
<path fill="#496E4E" d="M444.624,343.24c-8.688,93.827-62.452,153.476-104.516,164.939c-47.703,13-120.345-35.725-180.61-64.782
	c-15.426,147.568,15.557,201.958,24.594,214.35c10.245,1.185,22.271,2.323,35.495,3.319
	c59.422-3.115,185.602-27.448,267.881-169.659c65.778-113.692,40.574-231.429,19.074-326.041
	C489.11,196.274,451.432,269.708,444.624,343.24z"/>
<path fill="#425841" d="M529.766,327.649c-34.247,30.032-42.036,166.767-89.017,206.748
	c-57.308,48.768-83.272,44.111-146.946,12.304c-40.641-20.301-100.391-16.671-138.303-11.389
	c2.357,79.627,21.753,113.059,28.59,122.435c10.245,1.185,22.271,2.323,35.495,3.319c59.422-3.115,185.602-27.448,267.881-169.659
	C519.09,436.749,529.679,381.158,529.766,327.649z"/>
<path fill="#374936" d="M424.977,572.078c-27.001,5.007-59.836-1-101.563,7.781c-74.352,15.646-61.47,25.852-98.853,35.909
	c-18.958,5.1-43.661-8.006-63.41-22.163c6.926,38.74,21.401,63.895,26.25,70.544c14.748,3.619,18.036,0.772,31.26,1.768
	C264.396,663.52,350.602,643.688,424.977,572.078z"/>
<path fill="#233C35" d="M186.464,660.683c0,0,23.422-402.266,311.414-648.226C497.878,12.457,247.668,203.334,186.464,660.683z"/>
<path fill="#233C35" d="M455.965,125.738c0,0-92.591,117.601-135.59,106.86l-4.463,7.473
	C315.912,240.071,351.542,262.521,455.965,125.738z"/>
<path fill="#233C35" d="M278.594,315.231c0.69-2.004,1.498-3.979,2.357-5.943c-4.833-5.285-28.459-35.532,0.888-94.904
	c0,0-36.426,67.6-4.22,99.873C277.952,314.591,278.274,314.912,278.594,315.231z"/>
<path fill="#233C35" d="M231.248,448.53c0,0,81.111,6.384,119.507-68.92c0,0-19.703,77.035-123.763,74.158L231.248,448.53z"/>
<path fill="#233C35" d="M205.117,554.26c0,0-21.714-23.415-10.823-59.583c0,0-15.354,43.641,9.06,65.053L205.117,554.26z"/>
<path fill="#233C35" d="M417.868,170.652c0,0,23.369,5.544,33.437-8.169C461.374,148.77,442.489,189.83,417.868,170.652z"/>
<path fill="#233C35" d="M289.714,441.552c0,0,32.511,15.403,84.534-3.438C426.27,419.273,316.728,475.597,289.714,441.552z"/>
<path fill="#233C35" d="M265.146,286.065c0,0-10.182-12.208-9.044-24.495C257.239,249.283,249.669,276.746,265.146,286.065z"/>
<path fill="#233C35" d="M197.133,586.191c0,0,47.777,13.437,84.938-34.944c0,0-29.264,58.124-86.598,39.297L197.133,586.191z"/>
<path fill="#233C35" d="M312.094,579.938c0,0-41.54,0.66-48.501-5.618C256.633,568.043,258.096,592.963,312.094,579.938z"/>
<path fill="#B3BB5F" d="M302.601,148.787C317.804,150.869,367.968,117.238,384,98c25-30,42-32,55-41
	c7.27-5.033,14.537-15.38,19.534-23.526C420.013,55.626,359.052,94.819,302.601,148.787z"/>
</svg>
