<?xml version="1.0" encoding="utf-8"?>
<!-- Generator: Adobe Illustrator 17.0.0, SVG Export Plug-In . SVG Version: 6.00 Build 0)  -->
<!DOCTYPE svg PUBLIC "-//W3C//DTD SVG 1.1//EN" "http://www.w3.org/Graphics/SVG/1.1/DTD/svg11.dtd">
<svg version="1.1" id="Слой_1" xmlns="http://www.w3.org/2000/svg" xmlns:xlink="http://www.w3.org/1999/xlink" x="0px" y="0px"
	 width="700px" height="700px" viewBox="0 0 700 700" enable-background="new 0 0 700 700" xml:space="preserve">
<path fill="#A879B2" d="M258.252,70.909c119.141-66.616,246.745,70.134,287.585,173.359c3.746,9.469,6.745,18.644,8.919,27.34
	c25.874,103.496-44.056,291.608-120.979,316.783c-74.475,24.374-39.161-30.769-60.14-82.517
	c-20.979-51.748-85.315,20.28-156.643,49.65S57.552,452.727,220.49,317.063S258.252,70.909,258.252,70.909"/>
<path fill="#454D89" d="M554.755,271.608c-0.345-1.381-0.719-2.778-1.105-4.182c-15.005-1.797-47.525-0.076-46.447,48.937
	c1.399,63.636,6.993,101.399-20.979,126.573c-15.468,13.921-72.847,32.12-115.736,56.605c1.137,1.864,2.189,3.966,3.148,6.332
	c20.979,51.748-14.335,106.891,60.14,82.518C510.699,563.217,580.629,375.105,554.755,271.608z"/>
<path fill="#91589E" d="M545.836,244.268C521.55,182.883,465.838,109.15,399.611,73.47c-15.652,19.615-42.058,57.897-48.352,99.537
	c-9.091,60.14,2.098,97.203-60.839,101.399c-8.56,0.571-16.33-1.165-23.525-4.286c-11.895,15.202-27.132,30.896-46.405,46.944
	c-162.937,135.664-74.825,267.832-3.497,238.462c71.329-29.371,135.664-101.399,156.643-49.65
	c20.979,51.748-14.335,106.891,60.14,82.518c76.923-25.175,146.853-213.287,120.979-316.783
	C552.581,262.912,549.583,253.737,545.836,244.268z"/>
<path fill="#7C5387" d="M554.755,271.608c-2.174-8.696-5.173-17.871-8.919-27.34c-14.62-36.954-40.64-78.373-73.477-113.281
	c-0.009,0.005-0.018,0.008-0.026,0.013c0,0-37.333,102.667-78,133.333C353.667,295,323,287,309,307s-36.667,47.333-60.667,38
	c-7.637-2.97-20.404-12.69-34.929-21.9c-153.236,133.514-66.681,261.359,3.589,232.424c71.329-29.371,135.664-101.399,156.643-49.65
	c20.979,51.748-14.335,106.891,60.14,82.518C510.699,563.217,580.629,375.105,554.755,271.608z"/>
<path fill="#653D54" d="M373.636,505.874c20.979,51.748-14.335,106.891,60.14,82.518c60.646-19.848,116.944-140.972,125.375-242.062
	C538.829,306.755,494.321,245.626,441,329c-73.333,114.667-84,119.333-117.333,97.333c-33.333-22-171.333,52-148.667,105.333
	c4.934,11.61,7.118,20.059,7.498,26.176c11.194,2.944,23.06,2.39,34.495-2.318C288.322,526.154,352.657,454.126,373.636,505.874z"/>
<path fill="#503147" d="M525.265,477.998c-17.112-21.362-45.75-47.215-69.598-20.331c-19.747,22.26-51.673,38.91-80.996,50.892
	c18.754,50.945-14.083,103.785,59.106,79.833C468.387,577.065,501.575,532.747,525.265,477.998z"/>
<path fill="#503147" d="M257.008,71.007c0,0,302.379,117.409,55.992,560.993l-17-7C296,625,553.743,254.663,257.008,71.007z"/>
<path fill="#503147" d="M349.127,85.057c0,0,19.282,78.28,22.496,93.333C374.837,193.444,379.122,157.315,349.127,85.057z"/>
<path fill="#503147" d="M441.255,192.441c0,0-26.781,137.491-36.422,152.545S426.257,350.004,441.255,192.441z"/>
<path fill="#503147" d="M384.478,452.369c0,0,58.919-12.043,77.13-69.247S456.252,425.272,384.478,452.369z"/>
<path fill="#503147" d="M351.27,240.613c0,0,43.803,88.083,51.42,91.326C414.473,336.957,355.555,249.645,351.27,240.613z"/>
<path fill="#503147" d="M379.122,466.419c0,0-20.354-50.179-20.354-67.24C358.769,382.118,356.626,444.341,379.122,466.419z"/>
<path fill="#503147" d="M307.349,127.208c0,0,23.567,8.029,29.995,8.029S341.629,145.272,307.349,127.208z"/>
<path fill="#503147" d="M429.471,264.699c0,0,24.639-3.011,34.28-23.082C473.392,221.545,461.608,271.724,429.471,264.699z"/>
</svg>
