<?xml version="1.0" encoding="utf-8"?>
<!-- Generator: Adobe Illustrator 17.0.0, SVG Export Plug-In . SVG Version: 6.00 Build 0)  -->
<!DOCTYPE svg PUBLIC "-//W3C//DTD SVG 1.1//EN" "http://www.w3.org/Graphics/SVG/1.1/DTD/svg11.dtd">
<svg version="1.1" id="Слой_1" xmlns="http://www.w3.org/2000/svg" xmlns:xlink="http://www.w3.org/1999/xlink" x="0px" y="0px"
	 width="700px" height="700px" viewBox="0 0 700 700" enable-background="new 0 0 700 700" xml:space="preserve">
<path fill="#D96877" d="M354.126,177.599c0,0,22.714-84.411,113.569-104.106s163.005,56.274,175.03,88.631
	c12.025,32.357,26.722,182.89-62.797,275.742c-85.925,89.124-213.778,185.703-211.105,218.061
	c2.672,32.357-196.408-156.16-239.164-199.772C91.31,417.036-33.345,232.466,98.929,98.815S348.782,129.766,354.126,177.599z"/>
<path fill="#D75C72" stroke="#D65678" stroke-miterlimit="10" d="M130.512,460.065c0.542,0.548,1.104,1.115,1.686,1.699
	c0.117,0.117,0.235,0.236,0.353,0.355c0.601,0.603,1.217,1.22,1.857,1.86c0.054,0.054,0.111,0.111,0.165,0.165
	c0.633,0.632,1.287,1.283,1.957,1.949c0.087,0.086,0.171,0.171,0.259,0.257c0.702,0.697,1.425,1.414,2.165,2.146
	c0.102,0.101,0.204,0.202,0.307,0.303c0.756,0.747,1.529,1.51,2.324,2.293c0.059,0.058,0.12,0.118,0.18,0.177
	c0.823,0.81,1.663,1.636,2.526,2.481c0.012,0.012,0.023,0.023,0.035,0.034c0.85,0.834,1.723,1.688,2.61,2.555
	c0.112,0.109,0.223,0.218,0.335,0.328c0.885,0.864,1.786,1.743,2.706,2.639c0.065,0.064,0.132,0.128,0.197,0.192
	c1.928,1.876,3.929,3.819,6,5.822c0.05,0.049,0.1,0.097,0.15,0.145c1.018,0.984,2.052,1.984,3.102,2.996
	c0.088,0.085,0.176,0.17,0.264,0.254c3.246,3.129,6.64,6.388,10.163,9.756c0.085,0.081,0.169,0.162,0.254,0.243
	c1.152,1.101,2.316,2.212,3.494,3.335c0.016,0.015,0.032,0.031,0.048,0.046c12.871-11.504,22.27-25.247,25.778-39.738
	c17.369-71.749,110.897-12.662,172.358-32.357c61.461-19.696,64.133-91.445,44.092-78.783c-20.042,12.662-53.346,3.454-80.167-8.441
	c-68.638-30.442-103.019-147.012-123.647-141.183c-39.691,11.215-79.075-79.267-82.879-127.272
	c-10.308,7.074-20.757,15.824-31.301,26.478C77.651,121.242,63.438,142.877,54,165c-51.658,141.506,52.604,270.687,74.614,293.138
	c0.516,0.526,1.062,1.08,1.623,1.648C130.329,459.879,130.419,459.97,130.512,460.065z"/>
<path fill="#D44E61" d="M577.279,439.768c50.283-52.155,67.683-122.506,71.147-179.893c-10.542-18.178-31.762-35.663-75.156-19.879
	c-73.486,26.73-177.703,157.567-253.861,125.209s-114.905-99.886-156.325-59.087c-31.725,31.249-36.015,113.67-25.478,162.552
	c57.935,57.274,231.06,219.349,228.566,189.159C363.502,625.472,491.354,528.892,577.279,439.768z"/>
<path fill="#D24A43" d="M580.105,439.939c49.515-51.358,67.138-120.357,70.972-177.25c-32.101-3.095-93.048-2.555-105.711,43.6
	c-17.369,63.308-66.806,160.38-114.905,174.449c-25.546,7.472-135.889,31.611-206.129,67.779
	C293.026,611.735,370.676,678.289,369,658C366.328,625.643,494.18,529.063,580.105,439.939z"/>
<path fill="#DF888E" d="M642.726,162.124c-12.025-32.357-84.175-108.327-175.03-88.631c-27.79,6.024-49.195,18.106-65.534,31.972
	c34.757-6.184,87.336-7.822,117.643,28.522c48.1,57.681,66.805,73.156,108.225,68.935c7.641-0.779,15.281,0.408,22.495,2.293
	C648.841,185.391,645.703,170.133,642.726,162.124z"/>
<path fill="#DC798B" d="M274.995,201.941c13.722-33.898,42.528-54.994,63.486-63.31C301.598,76.237,204.99-8.348,98.929,98.815
	c-8.376,8.463-15.718,17.131-22.121,25.953c14.546,0.746,38.046,5.831,41.181,30.544C122.574,191.45,258.95,241.575,274.995,201.941
	z"/>
</svg>
