<?xml version="1.0" encoding="utf-8"?>
<!-- Generator: Adobe Illustrator 17.0.0, SVG Export Plug-In . SVG Version: 6.00 Build 0)  -->
<!DOCTYPE svg PUBLIC "-//W3C//DTD SVG 1.1//EN" "http://www.w3.org/Graphics/SVG/1.1/DTD/svg11.dtd">
<svg version="1.1" id="Слой_1" xmlns="http://www.w3.org/2000/svg" xmlns:xlink="http://www.w3.org/1999/xlink" x="0px" y="0px"
	 width="700px" height="700px" viewBox="0 0 700 700" enable-background="new 0 0 700 700" xml:space="preserve">
<path fill="#DE8444" d="M228.29,218.915c-3.155,3.173-6.317,6.408-9.462,9.817c-6.659,7.222-12.681,14.446-18.145,21.641
	c3.323,29.189,9.104,106.72-13.769,167.407c-11.276,29.917-13.377,64.812-14.626,88.46c20.102,36.29,55.691,69.773,116.085,85.972
	C336.492,485.94,280.697,234.916,228.29,218.915z"/>
<path fill="#F8D84C" d="M487.583,137.633C342.281-62.493,184.309,51.943,123.65,125.902c11.711,5.139,34.924,10.434,55.238,3.899
	c11.558-12.988,25.276-22.191,41.097-23.701c19.505-9.924,36.263-12.228,37.414,10.357c5.042,3.848,18.572,23.806,10.756,42.196
	c-14.378,33.831-29.884,48.993-49.325,70.079c-1.608,1.745-3.17,3.49-4.706,5.234c0.652,2.371,1.397,4.846,2.269,7.463
	c22.287,66.941,76.206,132.444,41.697,166.994s-64.703,97.893-23.005,119.487c27.534,14.259,66.141,54.705,48.168,63.343
	c13.66,2.159,19.411,9.358,86.383,11.157C595.096,608.469,653.553,366.226,487.583,137.633z"/>
<path fill="#F6CD50" d="M487.583,137.633C412.1,33.67,332.171,15.141,265.034,31.179c19.136,13.409,49.331,38.657,51.286,65.571
	c2.876,39.589,15.816,52.546,43.855,53.985c28.038,1.44,66.141,33.111,76.206,64.062s9.346,108.69,55.357,105.091
	c25.432-1.989,65.799,56.939,88.202,113.817C592.522,348.982,563.572,242.294,487.583,137.633z"/>
<path fill="#E9B800" d="M487.583,137.633C425.505,52.134,360.423,24.425,301.92,26.197c9.566,15.129,35.166,52.049,60.771,58.316
	c32.351,7.918,80.52,38.869,74.05,53.265c-6.47,14.396,78.363,79.898,92.742,82.778c14.378,2.879-1.438,97.893,25.163,108.69
	c14.649,5.946,19.706,29.132,27.054,39.515C575.772,297.526,545.206,216.998,487.583,137.633z"/>
<path fill="#F0C445" d="M567.979,296.521c-14.999-51.356-41.552-105.388-80.396-158.888
	C422.598,48.129,354.317,21.948,293.741,26.63c25.96,30.4,100.611,27.582,102.021,60.044c1.438,33.111,30.914,95.734,62.547,119.487
	C484.191,225.596,544.243,316.826,567.979,296.521z"/>
<path fill="#D55C45" d="M200.574,405.546c-8.627-14.396,7.19-74.14,11.503-89.255c4.314-15.115-11.393-65.915-11.393-65.915l0,0
	c-2.6,3.424-5.071,6.841-7.42,10.25c-0.579-0.919-1.199-1.788-1.856-2.605c-3.834,3.875-8.167,8.941-12.932,15.2
	c0.009,0.588-0.012,1.215-0.087,1.907c-0.455,4.219-4.449,9.358-9.957,12.129c-6.938,10.234-14.507,22.456-22.51,36.558
	c5.666-0.003,10.078-0.46,16.715-2.919c-12.855,37.357-14.036,70.761-13.736,95.1c0.364,29.568,7.842,68.138,30.874,102.521
	c-1.56-16.08-5.778-33.189-2.926-47.466C182.601,442.255,209.201,419.941,200.574,405.546z"/>
<path fill="#DE8244" d="M168.279,253.195c-15.165,10.122-5.624,32.943-5.055,28.68c1.853-13.901,16.598-20.032,15.165-6.748
	c-1.18,10.932-26.107,28.053-39.597-5.905c-0.922-2.32-1.706-4.644-2.367-6.979c-19.746,3.031-46.109-23.056-48.038-4.821
	c3.549,25.295,14.631,46.002,33.555,59.038c11.398,7.852,25.076,9.617,37.294,6.355c3.909-0.945,3.505-1.079,7.953-2.969
	c17.372-7.379,26.697-23.767,28.353-29.467C207.044,250.788,177.486,247.049,168.279,253.195z"/>
<g>
	<path fill="#F2C245" d="M137.668,266.399c-5.486-16.658-4.923-33.148,0.908-54.309c13.48-48.924,52.924-131.552,116.061-95.43
		c4.942,2.827,8.955,7.042,11.629,12.212c0.735-8.846,4.448-21.594-22.772-31.647c-31.464-11.62-61.828,12.237-76.206,18.715
		c-14.378,6.478-24.102-4.426-37.384,4.319c-0.063,0.041-0.15,0.059-0.223,0.085c-7.703,4.306-15.971,19.602-21.435,31.856
		c-16.285,36.53-25.755,82.169-18.565,113.12c4.314,3.599,7.133-12.206,15.781-6.859
		C127.108,271.848,127.913,268.257,137.668,266.399z"/>
</g>
<g>
	<path fill="#FFFFFF" d="M384.046,292.268c0,0-16.956-104.601-81.965-25.349S386.259,396.404,384.046,292.268z"/>
	<path fill="#402C28" d="M330.466,241.417c-6.813,9.43-18.865,27.706-17.433,61.475c1.815,42.754,8.571,46.303,14.119,47.392
		c27.325,4.905,62.316-5.119,56.894-58.017C384.046,292.268,372.222,219.33,330.466,241.417z"/>
</g>
<g>
	<path fill="#FFFFFF" d="M455.798,291.311c0,0,11.948-106.439,79.011-28.823S458.244,396.705,455.798,291.311z"/>
	<path fill="#402C28" d="M505.93,237.802c7.077,9.271,19.67,27.285,19.763,61.49c0.118,43.306-6.33,47.158-11.706,48.476
		c-26.497,6.023-61.15-2.752-58.189-56.457C455.798,291.311,464.131,217.091,505.93,237.802z"/>
</g>
<path fill="#FFFFFF" d="M351.908,280.3c0,0,12.222-16.555,16.536-0.72s-0.719,31.672-7.908,27.353
	C353.346,302.614,349.032,297.575,351.908,280.3z"/>
<path fill="#FFFFFF" d="M333.215,319.169c0,0,3.595-10.078,9.346-2.879s5.751,10.797,0.719,12.956
	C338.249,331.406,328.902,329.247,333.215,319.169z"/>
<path fill="#FFFFFF" d="M477.401,285.463c0,0-3.573-24.585,10.508-18.544c14.081,6.042,8.606,26.543,3.462,30.2
	C486.227,300.776,482.044,300.775,477.401,285.463z"/>
<path fill="#FFFFFF" d="M504.32,312.691c0,0,12.941-0.72,8.627,7.198C508.634,327.807,492.098,325.648,504.32,312.691z"/>
<path fill="#402C28" d="M452.747,168.566c0,0,20.849,7.198,25.881,1.44C483.661,164.248,510.26,200.237,452.747,168.566z"/>
<path fill="#402C28" d="M344.98,169.846c-5.032-5.759-31.633,30.232,25.882-1.44c0,0-19.174,6.619-25.185,2.084
	C345.419,170.297,345.186,170.083,344.98,169.846"/>
<path fill="#F3C54A" d="M569.336,478.174c-29.78-2.596-79.41,29.531-96.649,40.38c-25.163,15.835-94.898,7.198-97.055-48.227
	c-2.156-55.425-77.644-115.888-98.493-133.164c-20.849-17.275,0.719-53.265,1.438-87.815c0.507-24.348-21.835-40.831-35.075-48.443
	c-7.572,9.624-15.704,18.096-24.674,27.827c-1.608,1.745-3.17,3.49-4.706,5.234c0.652,2.371,1.397,4.846,2.269,7.463
	c22.287,66.941,76.206,132.444,41.697,166.994c-9.978,9.99-19.591,22.389-27.214,35.487
	c20.007,58.766,53.857,116.097,106.999,156.98c8.727,0.651,19.159,1.181,31.76,1.52C473.559,605.204,542.001,555.24,569.336,478.174
	z"/>
<path fill="#E8AF45" d="M361.254,561.742c-30.914-5.039-61.828-64.782-47.449-85.657c14.378-20.874,19.411-69.821-6.47-87.815
	c-21.185-14.73-65.966-126.864-81.522-167.078c-2.273,2.454-4.598,4.953-6.984,7.541c-1.608,1.745-3.17,3.49-4.706,5.234
	c0.652,2.371,1.397,4.846,2.269,7.463c22.287,66.941,76.206,132.444,41.697,166.994s-64.703,97.893-23.005,119.487
	c27.534,14.259,66.141,54.705,48.168,63.343c13.66,2.159,19.411,9.358,86.383,11.157c25.463,0.685,48.787-1.809,69.907-7.081
	C436.988,558.902,387.482,566.017,361.254,561.742z"/>
<path fill="#EAAA50" d="M134.793,230.245c-4.137-1.749-8.691-1.936-12.157-0.332c-9.332,4.319-15.792-1.44-17.228-13.676
	c-0.814-6.939-7.629-11.561-13.378-14.265c-4.987,22.954-6.358,45.573-2.235,63.346c4.307,3.599,7.122-12.206,15.756-6.859
	c21.616,13.387,22.419,9.796,32.16,7.938C133.901,254.811,133.02,243.3,134.793,230.245z"/>
<path fill="#E69E50" d="M487.583,137.633c-26.882-37.024-54.327-63.204-81.558-80.855c-1.541,8.641-0.09,21.308,13.462,35.653
	c25.163,26.633,65.423,33.111,63.265,48.947c-1.553,11.405,13.3,21.689,25.494,26.551
	C501.792,157.826,494.906,147.72,487.583,137.633z"/>
<g>
	<path fill="#F6CD50" d="M466.112,600.249c0,0,38.361,7.68,50.242,22.191c11.882,14.512,22.052,37.901,14.739,44.512
		c-7.314,6.611-53.402,18.137-87.899-11.773C408.699,625.27,448.951,597.027,466.112,600.249z"/>
	<path fill="#F8D84C" d="M516.354,622.44c-11.882-14.512-50.242-22.191-50.242-22.191c-17.161-3.222-57.413,25.02-22.917,54.93
		c27.497,23.841,62.359,21.356,79.078,16.017c-6.07-2.151-13.113-3.047-17.777-4.638c-10.467-3.571-12.087-20.842-2.769-30.895
		C511.046,625.609,516.354,622.44,516.354,622.44z"/>
	<path fill="#F3C54A" d="M491.657,607.64c-12.977-4.874-25.546-7.391-25.546-7.391c-17.161-3.222-57.413,25.02-22.917,54.93
		c14.049,12.181,30.022,17.489,44.515,19.056c0.944-7.504-0.614-15.521-6.919-20.459c-11.587-9.075,6.165-20.236,11.827-26.984
		C496.394,622.292,493.802,613.201,491.657,607.64z"/>
	<path fill="#E8AF45" d="M471.86,617.862c0.348-7.334-6.654-13.049-14.411-17.106c-18.635,4.535-43.727,28.869-14.253,54.424
		c7.83,6.789,16.257,11.438,24.693,14.498c-1.998-7.546,1.629-15.173-1.604-20.709C461.301,640.44,471.091,634.033,471.86,617.862z"
		/>
	<path fill="#DE8444" d="M443.195,655.179c5.022,4.354,10.288,7.824,15.645,10.564c-3.889-10.502-10.357-26.631-8.861-37.063
		c1.481-10.323-4.633-15.508-10.416-18.086C428.34,621.003,423.161,637.809,443.195,655.179z"/>
	<path fill="#D55C45" d="M445.672,657.232c-5.217-8.507-5.132-19.873-11.025-33.426c-0.773-1.778-1.545-3.016-2.305-3.829
		c-4.981,9.863-3.939,22.378,10.853,35.203C444.014,655.889,444.841,656.568,445.672,657.232z"/>
</g>
<g>
	<path fill="#F6CD50" d="M289.343,614.081c0,0,37.213,11.993,47.573,27.84c10.36,15.845,18.172,40.375,10.301,46.164
		c-7.871,5.788-54.576,12.127-85.828-21.658S272.675,608.929,289.343,614.081z"/>
	<path fill="#F8D84C" d="M336.916,641.92c-10.36-15.845-47.573-27.84-47.573-27.84c-16.667-5.152-59.206,18.559-27.954,52.344
		c24.911,26.93,59.64,28.367,76.694,24.91c-5.798-2.833-12.68-4.521-17.141-6.636c-10.013-4.747-9.954-22.199,0.232-31.203
		C331.36,644.492,336.916,641.92,336.916,641.92z"/>
	<path fill="#F3C54A" d="M313.906,624.344c-12.37-6.332-24.563-10.263-24.563-10.263c-16.667-5.152-59.206,18.559-27.953,52.344
		c12.728,13.761,28.02,20.864,42.208,24.06c1.655-7.397,0.884-15.588-4.878-21.234c-10.591-10.377,8.045-19.539,14.295-25.65
		C317.182,639.527,315.493,630.146,313.906,624.344z"/>
	<path fill="#E8AF45" d="M293.336,632.337c1.05-7.294-5.328-13.797-12.613-18.724c-18.872,2.439-46.036,23.947-19.334,52.813
		c7.093,7.669,14.984,13.265,23.035,17.274c-1.252-7.771,3.071-14.988,0.404-20.886
		C280.719,653.725,291.022,648.421,293.336,632.337z"/>
	<path fill="#DE8444" d="M261.389,666.425c4.549,4.918,9.427,8.98,14.462,12.323c-2.837-10.938-7.687-27.792-5.202-38.054
		c2.457-10.155-3.093-16.026-8.566-19.256C249.979,630.584,243.24,646.805,261.389,666.425z"/>
	<path fill="#D55C45" d="M263.643,668.757c-4.344-9.093-3.167-20.448-7.694-34.661c-0.594-1.865-1.239-3.189-1.912-4.088
		c-5.876,9.301-6.048,21.932,7.353,36.418C262.131,667.227,262.884,668,263.643,668.757z"/>
</g>
<path fill="#FFFFFF" d="M408.5,380.5c0,0,13-33,32-3S400.5,437.5,408.5,380.5z"/>
</svg>
