<?xml version="1.0" encoding="utf-8"?>
<!-- Generator: Adobe Illustrator 17.0.0, SVG Export Plug-In . SVG Version: 6.00 Build 0)  -->
<!DOCTYPE svg PUBLIC "-//W3C//DTD SVG 1.1//EN" "http://www.w3.org/Graphics/SVG/1.1/DTD/svg11.dtd">
<svg version="1.1" id="Слой_1" xmlns="http://www.w3.org/2000/svg" xmlns:xlink="http://www.w3.org/1999/xlink" x="0px" y="0px"
	 width="700px" height="700px" viewBox="0 0 700 700" enable-background="new 0 0 700 700" xml:space="preserve">
<g>
	<path fill="#DE8444" d="M218.29,237.915c-3.155,3.173-6.317,6.408-9.462,9.817c-6.659,7.222-12.681,14.446-18.145,21.641
		c3.323,29.189,9.104,106.72-13.769,167.407c-11.276,29.917-13.377,64.812-14.626,88.46c20.102,36.29,55.691,69.773,116.085,85.972
		C326.492,504.94,270.697,253.916,218.29,237.915z"/>
	<path fill="#F8D84C" d="M477.583,156.633C332.281-43.493,174.309,70.943,113.65,144.902c11.711,5.139,34.924,10.434,55.238,3.899
		c11.558-12.988,25.276-22.191,41.097-23.701c19.505-9.924,36.263-12.228,37.414,10.357c5.042,3.848,18.572,23.806,10.756,42.196
		c-14.378,33.831-29.884,48.993-49.325,70.079c-1.608,1.745-3.17,3.49-4.706,5.234c0.652,2.371,1.397,4.846,2.269,7.463
		c22.287,66.941,76.206,132.444,41.697,166.994s-64.703,97.893-23.005,119.487c27.534,14.259,66.141,54.705,48.168,63.343
		c13.66,2.159,19.411,9.358,86.383,11.157C585.096,627.469,643.553,385.226,477.583,156.633z"/>
	<path fill="#F6CD50" d="M477.583,156.633C402.1,52.67,322.171,34.141,255.034,50.179c19.136,13.409,49.331,38.657,51.286,65.571
		c2.876,39.589,15.816,52.546,43.855,53.985c28.038,1.44,66.141,33.111,76.206,64.062s9.346,108.69,55.357,105.091
		c25.432-1.989,65.799,56.939,88.202,113.817C582.522,367.982,553.572,261.294,477.583,156.633z"/>
	<path fill="#E9B800" d="M477.583,156.633C415.505,71.134,350.423,43.425,291.92,45.197c9.566,15.129,35.166,52.049,60.771,58.316
		c32.351,7.918,80.52,38.869,74.05,53.265c-6.47,14.396,78.363,79.898,92.742,82.778c14.378,2.879-1.438,97.893,25.163,108.69
		c14.649,5.946,19.706,29.132,27.054,39.515C565.772,316.526,535.206,235.998,477.583,156.633z"/>
	<path fill="#F0C445" d="M557.979,315.521c-14.999-51.356-41.552-105.388-80.396-158.888
		C412.598,67.129,344.317,40.948,283.741,45.63c25.96,30.4,100.611,27.582,102.021,60.044
		c1.438,33.111,30.914,95.734,62.547,119.487C474.191,244.596,534.243,335.826,557.979,315.521z"/>
	<path fill="#D55C45" d="M190.574,424.546c-8.627-14.396,7.19-74.14,11.503-89.255c4.314-15.115-11.393-65.915-11.393-65.915l0,0
		c-2.6,3.424-5.071,6.841-7.42,10.25c-0.579-0.919-1.199-1.788-1.856-2.605c-3.834,3.875-8.167,8.941-12.932,15.2
		c0.009,0.588-0.012,1.215-0.087,1.907c-0.455,4.219-4.449,9.358-9.957,12.129c-6.938,10.234-14.507,22.456-22.51,36.558
		c5.666-0.003,10.078-0.46,16.715-2.919c-12.855,37.357-14.036,70.761-13.736,95.1c0.364,29.568,7.842,68.138,30.874,102.521
		c-1.56-16.08-5.778-33.189-2.926-47.466C172.601,461.255,199.201,438.941,190.574,424.546z"/>
	<path fill="#DE8244" d="M158.279,272.195c-15.165,10.122-5.624,32.943-5.055,28.68c1.853-13.901,16.598-20.032,15.165-6.748
		c-1.18,10.932-26.107,28.053-39.597-5.905c-0.922-2.32-1.706-4.644-2.367-6.979c-19.746,3.031-46.109-23.056-48.038-4.821
		c3.549,25.295,14.631,46.002,33.555,59.038c11.398,7.852,25.076,9.617,37.294,6.355c3.909-0.945,3.505-1.079,7.953-2.969
		c17.372-7.379,26.697-23.767,28.353-29.467C197.044,269.788,167.486,266.049,158.279,272.195z"/>
	<g>
		<path fill="#F2C245" d="M127.668,285.399c-5.486-16.658-4.923-33.148,0.908-54.309c13.48-48.924,52.924-131.552,116.061-95.43
			c4.942,2.827,8.955,7.042,11.629,12.212c0.735-8.846,4.448-21.594-22.772-31.647c-31.464-11.62-61.828,12.237-76.206,18.715
			c-14.378,6.478-24.102-4.426-37.384,4.319c-0.063,0.041-0.15,0.059-0.223,0.085c-7.703,4.306-15.971,19.602-21.435,31.856
			c-16.285,36.53-25.755,82.169-18.565,113.12c4.314,3.599,7.133-12.206,15.781-6.859
			C117.108,290.848,117.913,287.257,127.668,285.399z"/>
	</g>
	<g>
		<path fill="#FFFFFF" d="M374.046,311.268c0,0-16.956-104.601-81.965-25.349S376.259,415.404,374.046,311.268z"/>
		<path fill="#402C28" d="M320.466,260.417c-6.813,9.43-18.865,27.706-17.433,61.475c1.815,42.754,8.571,46.303,14.119,47.392
			c27.325,4.905,62.316-5.119,56.894-58.017C374.046,311.268,362.222,238.33,320.466,260.417z"/>
	</g>
	<g>
		<path fill="#FFFFFF" d="M445.798,310.311c0,0,11.948-106.439,79.011-28.823S448.244,415.705,445.798,310.311z"/>
		<path fill="#402C28" d="M495.93,256.802c7.077,9.271,19.67,27.285,19.763,61.49c0.118,43.306-6.33,47.158-11.706,48.476
			c-26.497,6.023-61.15-2.752-58.189-56.457C445.798,310.311,454.131,236.091,495.93,256.802z"/>
	</g>
	<path fill="#FFFFFF" d="M341.908,299.3c0,0,12.222-16.555,16.536-0.72s-0.719,31.672-7.908,27.353
		C343.346,321.614,339.032,316.575,341.908,299.3z"/>
	<path fill="#FFFFFF" d="M323.215,338.169c0,0,3.595-10.078,9.346-2.879s5.751,10.797,0.719,12.956
		C328.249,350.406,318.902,348.247,323.215,338.169z"/>
	<path fill="#FFFFFF" d="M467.401,304.463c0,0-3.573-24.585,10.508-18.544c14.081,6.042,8.606,26.543,3.462,30.2
		C476.227,319.776,472.044,319.775,467.401,304.463z"/>
	<path fill="#FFFFFF" d="M494.32,331.691c0,0,12.941-0.72,8.627,7.198C498.634,346.807,482.098,344.648,494.32,331.691z"/>
	<path fill="#FFFFFF" d="M372.102,395.182c0,0,68.897,3.69,82.676-7.346C461.968,382.077,428.877,479.579,372.102,395.182z"/>
	<path fill="#402C28" d="M449.747,203.566c0,0,20.849,7.198,25.881,1.44C480.661,199.248,507.26,235.237,449.747,203.566z"/>
	<path fill="#402C28" d="M327.98,202.846c-5.032-5.759-31.633,30.232,25.882-1.44c0,0-19.174,6.619-25.185,2.084
		C328.419,203.297,328.186,203.083,327.98,202.846"/>
	<path fill="#F3C54A" d="M559.336,497.174c-29.78-2.596-79.41,29.531-96.649,40.38c-25.163,15.835-94.898,7.198-97.055-48.227
		c-2.156-55.425-77.644-115.888-98.493-133.164c-20.849-17.275,0.719-53.265,1.438-87.815c0.507-24.348-21.835-40.831-35.075-48.443
		c-7.572,9.624-15.704,18.096-24.674,27.827c-1.608,1.745-3.17,3.49-4.706,5.234c0.652,2.371,1.397,4.846,2.269,7.463
		c22.287,66.941,76.206,132.444,41.697,166.994c-9.978,9.99-19.591,22.389-27.214,35.487
		c20.007,58.766,53.857,116.097,106.999,156.98c8.727,0.651,19.159,1.181,31.76,1.52
		C463.559,624.204,532.001,574.24,559.336,497.174z"/>
	<path fill="#E8AF45" d="M351.254,580.742c-30.914-5.039-61.828-64.782-47.449-85.657c14.378-20.874,19.411-69.821-6.47-87.815
		c-21.185-14.73-65.966-126.864-81.522-167.078c-2.273,2.454-4.598,4.953-6.984,7.541c-1.608,1.745-3.17,3.49-4.706,5.234
		c0.652,2.371,1.397,4.846,2.269,7.463c22.287,66.941,76.206,132.444,41.697,166.994s-64.703,97.893-23.005,119.487
		c27.534,14.259,66.141,54.705,48.168,63.343c13.66,2.159,19.411,9.358,86.383,11.157c25.463,0.685,48.787-1.809,69.907-7.081
		C426.988,577.902,377.482,585.017,351.254,580.742z"/>
	<path fill="#EAAA50" d="M124.793,249.245c-4.137-1.749-8.691-1.936-12.157-0.332c-9.332,4.319-15.792-1.44-17.228-13.676
		c-0.814-6.939-7.629-11.561-13.378-14.265c-4.987,22.954-6.358,45.573-2.235,63.346c4.307,3.599,7.122-12.206,15.756-6.859
		c21.616,13.387,22.419,9.796,32.16,7.938C123.901,273.811,123.02,262.3,124.793,249.245z"/>
	<path fill="#E69E50" d="M477.583,156.633c-26.882-37.024-54.327-63.204-81.558-80.855c-1.541,8.641-0.09,21.308,13.462,35.653
		c25.163,26.633,65.423,33.111,63.265,48.947c-1.553,11.405,13.3,21.689,25.494,26.551
		C491.792,176.826,484.906,166.72,477.583,156.633z"/>
	<g>
		<path fill="#F6CD50" d="M451.171,610.917c0,0,38.124-8.783,54.923-0.446c16.8,8.338,35.693,25.471,31.747,34.506
			s-41.211,38.502-84.958,25.434C409.137,657.344,434.204,615.041,451.171,610.917z"/>
		<path fill="#F8D84C" d="M506.094,610.471c-16.8-8.338-54.923,0.446-54.923,0.446c-16.967,4.124-42.034,46.426,1.713,59.494
			c34.871,10.416,65.623-6.192,78.665-17.937c-6.417,0.537-13.205,2.618-18.111,3.087c-11.009,1.052-19.592-14.023-15.235-27.02
			S506.094,610.471,506.094,610.471z"/>
		<path fill="#F3C54A" d="M477.495,607.143c-13.833,0.897-26.325,3.774-26.325,3.774c-16.967,4.124-42.034,46.426,1.713,59.494
			c17.817,5.322,34.559,3.588,48.413-0.947c-2.227-7.228-6.946-13.894-14.724-15.8c-14.295-3.504-2.707-20.98-0.322-29.46
			C487.84,618.549,481.738,611.329,477.495,607.143z"/>
		<path fill="#E8AF45" d="M463.656,624.605c-2.7-6.828-11.434-9.156-20.173-9.662c-15.119,11.801-27.977,44.303,9.401,55.469
			c9.93,2.966,19.523,3.736,28.471,3.055c-4.926-6.056-4.758-14.5-9.982-18.215C463.322,649.528,469.609,639.661,463.656,624.605z"
			/>
		<path fill="#DE8444" d="M452.883,670.411c6.368,1.902,12.596,2.898,18.606,3.192c-7.866-7.972-20.397-20.011-23.325-30.135
			c-2.897-10.018-10.603-12.228-16.935-12.199C425.283,645.374,427.477,662.822,452.883,670.411z"/>
		<path fill="#D55C45" d="M455.986,671.263c-8.255-5.607-12.854-16.002-23.801-25.93c-1.436-1.302-2.649-2.113-3.676-2.542
			c-0.482,11.039,5.617,22.017,24.375,27.62C453.922,670.721,454.955,671,455.986,671.263z"/>
	</g>
	<g>
		<path fill="#F6CD50" d="M283.695,616.316c0,0,38.58,6.342,51.175,20.477c12.595,14.134,23.959,37.234,17.033,44.126
			c-6.926,6.891-52.174,20.086-88.091-8.691S266.447,613.693,283.695,616.316z"/>
		<path fill="#F8D84C" d="M334.87,636.792c-12.595-14.134-51.175-20.477-51.175-20.477c-17.247-2.623-55.799,27.134-19.882,55.911
			c28.629,22.938,63.187,19.209,79.54,13.261c-6.154-1.942-13.21-2.591-17.936-4.021c-10.606-3.21-13.136-20.477-4.398-30.892
			C329.757,640.16,334.87,636.792,334.87,636.792z"/>
		<path fill="#F3C54A" d="M309.508,622.823c-13.172-4.428-25.813-6.507-25.813-6.507c-17.247-2.623-55.799,27.134-19.882,55.911
			c14.628,11.721,30.804,16.478,45.309,17.535c0.54-7.561-1.437-15.547-7.973-20.276c-12.013-8.692,5.058-20.516,10.333-27.486
			C314.999,637.352,311.938,628.325,309.508,622.823z"/>
		<path fill="#E8AF45" d="M290.351,633.778c-0.043-7.369-7.315-12.854-15.25-16.647c-18.302,5.211-41.976,30.509-11.288,55.096
			c8.152,6.532,16.785,10.896,25.342,13.667c-2.39-7.499,0.814-15.278-2.698-20.715C281.045,656.8,290.447,650.027,290.351,633.778z
			"/>
		<path fill="#DE8444" d="M263.812,672.227c5.228,4.189,10.654,7.483,16.13,10.042c-4.428-10.396-11.723-26.345-10.788-36.862
			c0.924-10.407-5.435-15.39-11.327-17.773C247.213,638.474,242.954,655.515,263.812,672.227z"/>
		<path fill="#D55C45" d="M266.387,674.199c-5.644-8.348-6.164-19.752-12.749-33.137c-0.864-1.756-1.698-2.97-2.497-3.759
			c-4.432,10.07-2.729,22.586,12.672,34.925C264.665,672.91,265.524,673.562,266.387,674.199z"/>
	</g>
</g>
</svg>
