<?xml version="1.0" encoding="utf-8"?>
<!-- Generator: Adobe Illustrator 25.2.3, SVG Export Plug-In . SVG Version: 6.00 Build 0)  -->
<svg version="1.1" xmlns="http://www.w3.org/2000/svg" xmlns:xlink="http://www.w3.org/1999/xlink" x="0px" y="0px"
	 viewBox="0 0 700 700" style="enable-background:new 0 0 700 700;" xml:space="preserve">
<style type="text/css">
	.st0{fill:#8B3600;}
	.st1{fill:#5C2600;}
	.st2{fill:#451F00;}
	.st3{fill:#2E1300;}
	.st4{fill:#170700;}
	.st5{fill:#B90005;}
	.st6{fill:#A20004;}
	.st7{stroke:#D00B00;stroke-miterlimit:10;}
</style>
<g id="Слой_2">
	<path class="st0" d="M580.73,318.72l61.38-56.13l-79.88,6.67l94.54-79.17l-110.64,50.75l73.69-69.36l-89.18,48.77l53.27-68.61
		L512.3,201l48.11-37.13l-70.65,18.67l32.91-135.42l-69.95,113.85l34.43-74.35l-60.46,64.26l15.48-97.04l-55.17,88.31l9.9-97.09
		l-34.29,95.35L352.47,19.09L329,142.34l-40.12-91.69l-8.49,103.69l-32.04-55.78l12.81,63.92L214.7,78.54L235.39,177l-25.41-31.83
		l12.73,40.76l-58.09-64.38l26.41,93.53l-55.98-37.39l55.41,48.5L87.84,197.91l67.31,70.85l-61.77-15.67l46.96,56.33L24.03,297.71
		l111.43,36.25l-50.85,5.51l49.4,7.43l-91.35,9.77l92.09,36.28L62.8,406.55l74.42,16.09L80,475.73l65.26-37.37l-55.9,81.12
		l2.23-1.88c0.37-0.48,0.84-0.89,1.42-1.2l62.62-52.7l-79.88,98.02l86.05-86.15l-15.77,52.6l26.14-35.85l-24.4,56.69l56.34-19.3
		l-48.51,113.1l108.1-72.72l2.45,29.4l20.51-20.23l-3.86,69.08l42.64-59.75l16.05,92.5l63.87-94.99l30.15,44.93l10.21-57.53
		l36.79,71.88l1.12-92.26l56.58,87.44L514.5,528.31l38.46,32.41l-26.37-44.94l66.72,26.73l-40.68-62.34l62.6,60.51l-47.44-91.34
		l61.41,26.23l-56.48-39.74l76.32-9.88l-69.51-16.1l80.65-41.92l-77.11-20.97l87.74,11.47L580.73,318.72z"/>
	<path class="st1" d="M583.09,346.96l87.74,11.47l-90.1-39.71l21.39-19.56l-103.29-51.93l-90.96-56.92l-85.04,61.91l-65.72-75.59
		l-26.89,33.08l-42.28-5.59l3.1,10.96l-55.98-37.39l55.41,48.5L87.84,197.91l67.31,70.85l-61.77-15.67l46.96,56.33L24.03,297.71
		l111.43,36.25l-50.85,5.51l49.4,7.43l-91.35,9.77l92.09,36.28L62.8,406.55l74.42,16.09L80,475.73l65.26-37.37l-55.9,81.12
		l2.23-1.88c0.37-0.48,0.84-0.89,1.42-1.2l62.62-52.7l-79.88,98.02l86.05-86.15l-15.77,52.6l26.14-35.85l-24.4,56.69l56.34-19.3
		l-48.51,113.1l108.1-72.72l2.45,29.4l20.51-20.23l-3.86,69.08l42.64-59.75l16.05,92.5l63.87-94.99l30.15,44.93l10.21-57.53
		l36.79,71.88l1.12-92.26l56.58,87.44L514.5,528.31l38.46,32.41l-26.37-44.94l66.72,26.73l-40.68-62.34l62.6,60.51l-47.44-91.34
		l61.41,26.23l-56.48-39.74l76.32-9.88l-69.51-16.1l80.65-41.92L583.09,346.96z"/>
	<line class="st0" x1="487.14" y1="86.63" x2="452.71" y2="160.98"/>
	<path class="st2" d="M525.01,574.15L525.01,574.15l-10.5-45.84l0.96,0.81l-15-70.78l-73.24-15.58l-30.26-143.63l-95.15,36.49
		l-72.79-39.6l-52.9,24.97l-41.94-12.17l-110.16-11.1l111.43,36.25l-50.85,5.51l49.4,7.43l-91.35,9.77l92.09,36.28L62.8,406.55
		l74.42,16.09L80,475.73l65.26-37.37l-55.9,81.12l2.23-1.88c0.37-0.48,0.84-0.89,1.42-1.2l62.62-52.7l-79.88,98.02l65.03-65.11
		l21.02-21.05l-15.77,52.6l26.14-35.85l-24.4,56.69l56.34-19.3l-48.51,113.1l108.1-72.72l2.45,29.4l20.51-20.23l-3.86,69.08
		l42.64-59.75l16.05,92.5l63.87-94.99l30.15,44.93l10.21-57.53l36.79,71.88l1.12-92.26l56.58,87.44L525.01,574.15z"/>
	<polygon class="st3" points="484.39,540.61 381.16,436.89 338.68,476.39 332.72,404.97 246.64,413.3 177.75,408.77 149.3,488.09 
		161.81,475.57 146.03,528.18 172.18,492.33 147.77,549.02 204.11,529.72 155.6,642.83 263.71,570.11 266.16,599.5 286.67,579.27 
		282.81,648.35 325.45,588.6 341.49,681.1 405.36,586.11 435.52,631.04 445.73,573.51 482.52,645.39 483.64,553.13 490.61,563.91 	
		"/>
	<polygon class="st4" points="420.44,566.64 299.47,512.79 269.62,551.83 249.01,510.16 203.21,531.83 155.6,642.83 263.71,570.11 
		266.16,599.5 286.67,579.27 282.81,648.35 325.45,588.6 341.49,681.1 405.36,586.11 435.52,631.04 445.73,573.51 482.52,645.39 
		483.64,553.13 435.74,544.81 	"/>
</g>
<g id="Слой_3">
	<circle cx="290.41" cy="306.37" r="42.1"/>
	<circle cx="452.47" cy="306.37" r="38.69"/>
	<circle class="st5" cx="452.47" cy="306.37" r="10.24"/>
	<circle class="st6" cx="290.41" cy="306.37" r="10.24"/>
	<polygon class="st7" points="291.22,395.02 322.51,420.03 369.73,399.57 405.19,420.03 444.83,395.02 497.5,434.5 463.5,422.5 
		405.01,450.77 368.5,429.5 328.2,450.21 280.5,420.5 238.5,434.5 	"/>
</g>
</svg>
