<?xml version="1.0" encoding="utf-8"?>
<!-- Generator: Adobe Illustrator 25.2.3, SVG Export Plug-In . SVG Version: 6.00 Build 0)  -->
<svg version="1.1" id="Слой_1" xmlns="http://www.w3.org/2000/svg" xmlns:xlink="http://www.w3.org/1999/xlink" x="0px" y="0px"
	 viewBox="0 0 700 700" style="enable-background:new 0 0 700 700;" xml:space="preserve">
<style type="text/css">
	.st0{fill:#8B3600;}
	.st1{fill:#5C2600;}
	.st2{fill:none;}
	.st3{fill:#451F00;}
	.st4{fill:#2E1300;}
	.st5{fill:#170700;}
	.st6{fill:#B90005;}
	.st7{fill:#A20004;}
	.st8{stroke:#D00B00;stroke-miterlimit:10;}
</style>
<g id="Слой_2_1_">
	<path class="st0" d="M582.52,338.08l65.84-50.83H568.2L669,216.22l-114.48,41.37l79.2-62.99l-92.93,41.18l58.79-63.94l-75.47,43.24
		l51.03-33l-71.96,12.73L547.24,62.6l-79.18,107.64l40.49-71.23l-65.6,59.01l23.5-95.42l-62.32,83.41l17.94-95.93l-42.1,92.17V20.5
		l-33.64,120.88l-32.36-94.71L296.89,149.3L269.6,91.05l7.45,64.77l-39.31-87.53l12.43,99.83l-22.67-33.83l9.29,41.68l-52.53-68.99
		l18.54,95.4l-52.67-41.92l51.19,52.94l-99.91-36.7l61.19,76.2l-60.25-20.75l42.12,60.05L29.5,270.84l108.03,45.39l-51.13,1.26
		l48.61,11.52l-91.85,2.14l88.76,43.81l-72.83,7.58l72.83,22.23L70.46,452.9l68.14-31.81l-62.45,76.19l2.38-1.69
		c0.41-0.45,0.92-0.82,1.52-1.08l66.79-47.31l-87.76,91.04l92.92-78.7l-20.09,51.11l29.03-33.55l-29.03,54.47l57.75-14.55
		L131.91,625.7l113.78-63.48v29.5l22.12-18.45l-9.59,68.52l47.46-56l8.3,93.51l71.55-89.35l26.31,47.28l14.96-56.48l30.69,74.69
		l8.79-91.84l49.11,91.84L499.1,541.43l35.64,35.5l-22.54-46.98l64.26,32.19l-35.36-65.5l57.35,65.5l-39.68-94.97l59.02,31.24
		l-52.98-44.3l76.88-3.49l-67.93-21.83l83.86-35.07l-75.1-27.31L669,385.15L582.52,338.08z"/>
	<path class="st1" d="M582.52,366.42L669,385.15l-86.48-47.07l22.94-17.71l-98.61-60.34l-85.91-64.29l-89.89,54.62l-59.21-80.79
		l-29.55,30.73l-41.67-9.09l2.17,11.18l-52.67-41.92l51.19,52.94l-99.91-36.7l61.19,76.2l-60.25-20.75l42.12,60.05L29.5,270.84
		l108.03,45.39l-51.13,1.26l48.61,11.52l-91.85,2.14l88.76,43.81l-72.83,7.58l72.83,22.23L70.46,452.9l68.14-31.81l-62.45,76.19
		l2.38-1.69c0.41-0.45,0.92-0.82,1.52-1.08l66.79-47.31l-87.76,91.04l92.92-78.7l-20.09,51.11l29.03-33.55l-29.03,54.47l57.75-14.55
		L131.91,625.7l113.78-63.48v29.5l22.12-18.45l-9.59,68.52l47.46-56l8.3,93.51l71.55-89.35l26.31,47.28l14.96-56.48l30.69,74.69
		l8.79-91.84l49.11,91.84L499.1,541.43l35.64,35.5l-22.54-46.98l64.26,32.19l-35.36-65.5l57.35,65.5l-39.68-94.97l59.02,31.24
		l-52.98-44.3l76.88-3.49l-67.93-21.83l83.86-35.07L582.52,366.42z"/>
	<line class="st2" x1="508.56" y1="99.02" x2="468.07" y2="170.24"/>
	<path class="st3" d="M505.74,587.99L505.74,587.99l-6.65-46.56l0.89,0.88l-9.06-71.78l-71.69-21.62l-18.21-145.65l-97.86,28.45
		l-69.24-45.52l-54.79,20.48l-40.78-15.62L29.5,270.84l108.03,45.39l-51.13,1.26l48.61,11.52l-91.85,2.14l88.76,43.81l-72.83,7.58
		l72.83,22.23L70.46,452.9l68.14-31.81l-62.45,76.19l2.38-1.69c0.41-0.45,0.92-0.82,1.52-1.08l66.79-47.31l-87.76,91.04l70.22-59.47
		l22.7-19.23l-20.09,51.11l29.03-33.55l-29.03,54.47l57.75-14.55L131.91,625.7l113.78-63.48v29.5l22.12-18.45l-9.59,68.52l47.46-56
		l8.3,93.51l71.55-89.35l26.31,47.28l14.96-56.48l30.69,74.69l8.79-91.84l49.11,91.84L505.74,587.99z"/>
	<polygon class="st4" points="468.07,551.19 373.81,439.25 328.2,475.07 328.2,403.4 241.72,404.54 173.44,394.3 138.5,470.98 
		152,459.55 131.91,510.66 160.95,477.11 131.91,531.57 189.66,517.03 131.91,625.71 245.69,562.23 245.69,591.73 267.81,573.27 
		258.22,641.79 305.68,585.8 313.98,679.31 385.52,589.96 411.83,637.24 426.79,580.76 457.48,655.45 466.27,563.6 472.32,574.93 	
		"/>
	<polygon class="st5" points="402.16,571.81 286.1,508.09 253.1,544.5 236.03,501.26 188.58,519.06 131.91,625.71 245.69,562.23 
		245.69,591.73 267.81,573.27 258.22,641.79 305.68,585.8 313.98,679.31 385.52,589.96 411.83,637.24 426.79,580.76 457.48,655.45 
		466.27,563.6 419.23,551.33 	"/>
</g>
<g id="Слой_3">
	<circle cx="290.65" cy="307.8" r="42.1"/>
	<circle cx="452.23" cy="307.8" r="38.69"/>
	<circle class="st6" cx="452.23" cy="307.8" r="10.24"/>
	<circle class="st7" cx="290.65" cy="307.8" r="10.24"/>
	<polygon class="st8" points="291.22,394.87 322.51,419.88 369.73,399.42 405.19,419.88 444.83,394.87 508.56,415.35 463.04,415.35 
		405.01,450.63 366.32,419.9 328.2,450.06 280.98,419.9 238.3,422.18 	"/>
</g>
</svg>
