<?xml version="1.0" encoding="utf-8"?>
<!-- Generator: Adobe Illustrator 25.2.3, SVG Export Plug-In . SVG Version: 6.00 Build 0)  -->
<svg version="1.1" id="Слой_1" xmlns="http://www.w3.org/2000/svg" xmlns:xlink="http://www.w3.org/1999/xlink" x="0px" y="0px"
	 viewBox="0 0 700 700" style="enable-background:new 0 0 700 700;" xml:space="preserve">
<style type="text/css">
	.st0{fill:#074700;}
	.st1{fill:#103600;}
	.st2{fill:#005822;}
	.st3{fill:#004117;}
	.st4{fill:#112500;}
	.st5{fill:#003333;}
	.st6{fill:#004D16;}
	.st7{fill:#003012;}
	.st8{fill:#1E4A00;}
	.st9{fill:#003C21;}
	.st10{fill:#005318;}
	.st11{fill:#002A22;}
	.st12{fill:#003907;}
	.st13{fill:#016400;}
	.st14{fill:#174400;}
	.st15{fill:#002D1B;}
	.st16{fill:#1F6F00;}
	.st17{fill:#113C00;}
	.st18{fill:none;stroke:#3A8138;stroke-width:4;stroke-miterlimit:10;}
	.st19{fill:#003611;}
	.st20{fill:#003311;}
	.st21{fill:#015200;}
	.st22{fill:#233000;}
	.st23{fill:#083F00;}
</style>
<g>
	<g>
		<g>
			<path class="st0" d="M52.6,275.1c0,0-0.5,0.8-1.3,2.2c-0.4,0.7-1,1.6-1.6,2.7c-0.3,0.5-0.7,1.1-1,1.7c-0.3,0.6-0.7,1.3-1,2
				c-3,5.5-6.8,13.9-10.1,24.5c-3.3,10.7-5.9,23.7-7.4,38.3c-0.7,7.3-1.1,15-1.2,22.9c-0.1,8,0,16.2,0.4,24.6
				c0.4,8.4,1.1,17,1.9,25.7c0.9,8.7,1.9,17.5,3,26.4c2.3,17.7,5.1,35.4,7.6,52.9c0.3,2.2,0.6,4.4,0.9,6.5c0.3,2.2,0.6,4.4,0.9,6.5
				c0.6,4.3,1.1,8.4,1.6,12.7c0.9,8.3,1.9,16.4,2.7,24.1c1.8,15.2,4,28.4,6.8,39.2c-0.1-0.5-0.2-1-0.3-1.4
				c2.5,7.4,5.7,14.1,8.9,20.2c3.5,6.5,6.6,12,9.2,16.8c0.7,1.3,1.4,2.5,2,3.7c0.6,1.2,1.3,2.3,1.8,3.5c1.1,2.3,2.2,4.5,3.2,6.4
				c0.5,1,0.9,2,1.3,2.9c0.4,1,0.8,1.9,1.2,2.7c0.7,1.7,1.4,3.3,2,4.8l0.1,0.3l0.3,1.3c2.2,8.5,3.4,15.1,4.3,20.5
				c0.9,5.4,1.4,9.5,1.7,12.6c0.7,6.3,0.8,8.8,0.9,10.4c0.4,8.7-0.5,17.2-2.6,25.1c-1,3.9-2.4,7.6-4.1,11.1
				c-1.6,3.4-3.6,6.6-5.7,9.2c-2.2,2.7-4.4,4.9-6.8,6.6c-0.6,0.4-1.2,0.8-1.7,1.2c-0.6,0.4-1.2,0.7-1.7,1c-0.6,0.3-1.1,0.5-1.7,0.8
				c-0.5,0.2-1.2,0.5-1.7,0.6c-1.1,0.4-2.2,0.6-3.1,0.6c-0.9-0.1-1.7-0.2-2.5-0.5c-1.6-0.5-3-1.2-4.1-2.3s-2-2.4-2.6-3.9
				c-0.3-0.8-0.5-1.6-0.7-2.5c-0.2-0.8-0.6-1.6-0.8-2.3c-0.1-0.4-0.3-0.7-0.4-1.1c-0.1-0.4-0.2-0.8-0.3-1.3
				c-0.2-0.8-0.4-1.7-0.6-2.6c-0.4-1.8-0.8-3.7-1.1-5.6c-0.4-2-0.6-4.1-0.9-6.5c-0.3-2.3-0.6-4.8-0.8-7.5
				c-0.5-5.4-0.9-11.4-1.2-18.1c-0.1-1.2-0.1-3.1-0.4-8.1c-0.2-2.5-0.5-5.8-1.1-10.2c-0.6-4.4-1.5-9.9-3-16.4
				c0.1,0.3,0.1,0.5,0.5,1.6c-0.3-1.1-0.7-2.2-1.1-3.5c-0.2-0.7-0.4-1.3-0.6-2c-0.2-0.7-0.4-1.5-0.7-2.3c-0.6-1.6-1.3-3.4-2-5.3
				c-0.3-1-0.8-2-1.2-3.1c-0.5-1.1-0.9-2.2-1.4-3.4c-0.2-0.6-0.5-1.2-0.8-1.8c-0.3-0.6-0.6-1.3-0.9-2c-0.6-1.3-1.2-2.7-1.9-4.2
				c-1.3-3-2.8-6.3-4.3-9.8c-0.8-1.9-1.6-3.8-2.4-5.8c-0.4-1-0.8-2-1.3-3.1c-0.4-1.1-0.8-2.2-1.2-3.4c-0.4-1.1-0.8-2.3-1.2-3.5
				c-0.2-0.6-0.4-1.2-0.6-1.8c-0.2-0.6-0.4-1.3-0.6-1.9c-0.7-2.6-1.5-5.3-2.2-8l-0.3-0.9l-0.1-0.5c-1.7-13.4-2.2-28.5-2.1-44.4
				c0.1-7.8,0.1-15.9,0.2-24.2c0-4,0-8.3,0-12.6c0-2.1-0.1-4.2-0.1-6.3c0-2.1-0.1-4.3-0.1-6.5c-0.8-34.7-2.5-72.6-0.1-107.3
				c0.6-8.7,1.4-17.2,2.5-25.3c1.1-8.2,2.5-16,4-23.4c3.3-14.8,7.4-27.9,12.1-38.4c0.6-1.3,1.2-2.6,1.8-3.8c0.6-1.2,1.1-2.5,1.7-3.6
				c1.2-2.3,2.3-4.5,3.4-6.4c1.2-2,2.2-3.8,3.2-5.4c1.1-1.6,2.1-3.1,2.9-4.4c0.4-0.7,0.9-1.3,1.3-1.9c0.4-0.6,0.8-1.1,1.2-1.6
				c0.7-1,1.4-1.8,1.9-2.5C52.1,275.8,52.6,275.1,52.6,275.1z"/>
		</g>
	</g>
</g>
<g>
	<g>
		<g>
			<path class="st1" d="M124.5,151.1c0,0,0.3,2,0.8,5.8c0.2,1.9,0.6,4.2,0.9,7c0.2,2.8,0.5,5.9,0.8,9.5c0.3,3.6,0.3,7.5,0.5,11.9
				c0.1,2.2,0,4.4,0,6.8c0,2.3,0,4.8-0.1,7.3c-0.4,10-1.3,21.4-3,33.7c-1.8,12.3-4.4,25.6-7.7,39.5c-3.4,13.9-7.5,28.5-12.2,43.5
				c-1.2,3.7-2.4,7.5-3.6,11.3c-0.6,1.9-1.2,3.8-1.9,5.7c-0.3,0.9-0.6,1.9-0.9,2.8l-0.2,0.7l-0.1,0.4l-0.2,0.4l-0.5,1.4
				c-1.4,3.8-2.8,7.8-4.3,11.6c-1.6,3.8-3.1,7.7-4.7,11.6c-6.5,15.4-13.7,30.7-20.9,46c-7.2,15.2-14.4,30.4-20.8,45.5
				c-6.4,15.1-12.1,30.1-16.1,44.7c-0.5,1.8-1,3.7-1.5,5.5c-0.1,0.5-0.3,0.9-0.4,1.4l-0.3,1.3l-0.6,2.6c-0.7,3.5-1.6,6.6-2.1,10.7
				c-0.3,1.9-0.6,3.9-0.9,5.8l-0.2,1.4l-0.1,0.7l0,0.2c0.1-0.2,0,0,0,0l0,0.3c-0.1,0.8-0.2,1.7-0.2,2.5c-0.2,1.7-0.3,3.3-0.5,4.9
				c-0.1,1.7-0.1,3.3-0.2,5c0,0.8-0.1,1.6-0.1,2.5c0,0.8,0,1.7,0,2.5c0,1.7,0.1,3.3,0.1,5l0,1.2l0.1,1.2c0.1,0.8,0.1,1.7,0.2,2.5
				c0.1,1.6,0.2,3.3,0.4,4.9c0.2,1.6,0.4,3.3,0.6,4.9c0.2,1.6,0.4,3.2,0.7,4.8c0.5,3.2,1,6.4,1.6,9.6c2.3,12.6,5.2,24.7,7.7,36.1
				c2.5,11.4,4.8,21.9,6.3,31.5c0.1,0.6,0.2,1.2,0.3,1.8l0.1,0.9l0.1,0.9c0.2,1.2,0.3,2.4,0.5,3.6c0.1,1.2,0.3,2.3,0.4,3.5
				c0.1,1.1,0.3,2.3,0.4,3.2c0.2,1.9,0.3,3.7,0.5,5.4c0.1,0.9,0.1,1.7,0.2,2.5c0.1,0.6,0.1,1.2,0.2,1.8c0.5,4.6,1.3,8.3,1.6,10.3
				c1.5,8.4,3.3,17.3,4.4,26c1.1,8.7,1.5,17.3,0.7,24.8c-0.2,1.9-0.5,3.7-0.8,5.4c-0.3,1.7-0.8,3.3-1.2,4.8
				c-0.2,0.8-0.5,1.5-0.7,2.2c-0.3,0.7-0.5,1.5-0.8,2.1c-0.6,1.4-1.2,2.6-1.8,3.6c-0.3,0.6-0.7,1-1,1.4c-0.4,0.4-0.7,0.8-1.1,1.1
				c-0.7,0.7-1.5,1.3-2.2,1.7c-1.5,0.9-3,1.4-4.6,1.4c-1.6,0-3.1-0.6-4.5-1.5c-0.7-0.5-1.4-1.1-2.1-1.8c-0.3-0.4-0.7-0.7-1-1.2
				c-0.3-0.4-0.7-0.9-1-1.2c-0.7-0.8-1.4-1.6-2.1-2.4c-0.3-0.4-0.7-0.8-1-1.3c-0.4-0.5-0.7-1-1.1-1.6c-0.7-1.1-1.4-2.2-2.1-3.4
				c-0.8-1.2-1.5-2.5-2.2-3.8c-3-5.3-6.3-11.8-9.5-19.8c-0.8-2-1.6-4-2.4-6.2c-0.4-1.1-0.8-2.2-1.2-3.3c-0.4-1.2-0.8-2.3-1.1-3.5
				c-0.8-2.3-1.4-4.8-2.1-7.4c-0.3-1.3-0.6-2.6-0.9-3.9c-0.3-1.3-0.6-2.7-0.8-4.1c-0.5-2.8-1.3-7.7-1.7-15.1c0-0.9-0.1-1.9-0.2-2.8
				c0-0.8,0-1.6-0.1-2.4c0-1.7-0.1-3.5-0.1-5.4c0-1-0.1-1.8-0.1-2.6c-0.1-0.8-0.1-1.7-0.2-2.6c-0.1-0.9-25.6-2.9-25.7-3.8l25.5,0.4
				l-0.1-0.8c0-0.5-0.1-1-0.2-1.5c-0.7-8.3-2-18.1-3.7-29.4c-1.6-11.3-3.7-24-5.2-38.3c-0.4-3.5-0.6-7.2-1-10.9
				c-0.2-1.8-0.2-3.8-0.3-5.7c-0.1-1.9-0.2-3.8-0.2-5.8c0-2,0-4,0-6c0-1,0-2,0-3l0-1.5l0.1-1.5c0.1-2,0.2-4.1,0.3-6.2
				c0.1-1,0.1-2.1,0.2-3.1c0.1-1.1,0.2-2.1,0.4-3.2c0.2-2.1,0.5-4.2,0.7-6.4c0.4-2.1,0.8-4.3,1.2-6.4c0.2-1.1,0.4-2.2,0.6-3.2
				l0.1-0.4l0.1-0.4l0-0.2l0.2-0.7l0.3-1.4c0.5-1.9,0.9-3.8,1.4-5.7c0.8-3.6,2.2-8.1,3.4-12.3c0.3-1.1,0.6-2.1,1-3.2l0.5-1.6
				c0.2-0.5,0.4-1,0.5-1.5c0.7-2,1.5-4,2.2-6c5.9-16.1,13.4-31.6,21.3-46.8c8-15.1,16.6-29.9,25-44.4c8.5-14.6,16.8-28.9,24.3-43.2
				c1.9-3.6,3.6-7.2,5.4-10.7c1.8-3.6,3.4-7.2,5-10.7l0.6-1.3l0.1-0.2c0.1-0.1,0,0,0-0.1l0.1-0.3l0.3-0.7c0.4-0.9,0.8-1.8,1.2-2.8
				c0.8-1.8,1.6-3.7,2.3-5.5c1.5-3.6,3-7.2,4.5-10.8c5.9-14.3,11.2-28.2,15.6-41.5c4.5-13.3,8.1-26,10.9-37.9
				c2.7-11.9,4.6-22.9,5.8-32.7c0.3-2.5,0.5-4.8,0.7-7.1c0.2-2.3,0.5-4.5,0.6-6.7c0.2-4.3,0.5-8.2,0.5-11.8c0-3.6,0-6.7,0-9.5
				c0-2.8-0.2-5.1-0.3-7C124.6,153.1,124.5,151.1,124.5,151.1z"/>
		</g>
	</g>
</g>
<g>
	<g>
		<g>
			<path class="st2" d="M171.6,324.6c0,0,0.2,2.4,0.5,6.8c0.1,2.2,0.4,4.9,0.7,8.1c0.3,3.2,0.6,6.8,1,10.8c0.8,8,1.8,17.6,2.8,28.4
				c1,10.8,2,22.9,2.3,35.9c0.3,13-0.1,27-2.3,41.5c-0.7,3.6-1.3,7.2-2.1,11c-0.5,1.9-1,3.8-1.5,5.7l-0.8,2.9
				c-0.2,1-0.5,1.8-0.8,2.7c-0.6,1.7-1.1,3.4-1.7,5.1l-0.8,2.5l-1,2.8c-0.7,1.9-1.4,3.7-2.2,5.5c-0.8,1.8-1.5,3.7-2.4,5.4
				c-3.4,7.1-7.4,13.6-11.4,19.8c-4.1,6.2-8.2,12-12,17.7c-3.9,5.6-7.5,11-10.5,16.3c-3,5.3-5.5,10.3-7.4,15.2
				c0.1-0.3,0.3-0.7,0.5-1.2c-2.6,8.1-4.4,16.2-5.7,24c-1.3,7.8-2,15.4-2.4,22.6c-0.4,7.2-0.4,13.9-0.3,20.3
				c0.2,6.3,0.6,12.2,1.1,17.5c0.1,1.3,0.3,2.5,0.4,3.7c0.1,0.6,0.1,1.2,0.2,1.8c0.1,0.7,0.2,1.3,0.3,2c0.2,1.3,0.3,2.6,0.5,3.8
				l0,0.2l0,0.1l0,0c-0.2-1.9-0.1-0.5-0.1-1l0,0l0.1,0.3l0.1,0.6c0.1,0.4,0.2,0.8,0.3,1.2c0.8,3.2,1.9,6.5,3,9.5
				c2.2,6,4,10.5,4.7,12.8c2.3,6.5,4,13.4,4.8,20.3c0.8,6.9,0.5,13.7-0.9,19.7c-0.7,3-1.8,5.7-3,8c-1.3,2.3-2.7,4.1-4.3,5.7
				c-0.8,0.8-1.6,1.4-2.4,1.9c-0.8,0.4-1.6,0.6-2.4,0.7c-1.6,0.3-3.2,0.3-4.7,0c-1.5-0.3-2.9-1-4.2-2c-0.6-0.5-1.2-1.1-1.8-1.7
				c-0.6-0.4-1.2-0.9-1.9-1.5c-0.1-0.1-0.3-0.2-0.5-0.4c-0.2-0.1-0.3-0.3-0.5-0.4c-0.3-0.3-0.6-0.6-0.9-0.9
				c-0.6-0.6-1.2-1.3-1.8-1.9c-1.2-1.3-2.3-2.7-3.5-4.3c-2.4-3.1-4.8-6.9-7.3-11.5c-2.5-4.7-5.1-10.3-7.4-16.9
				c-0.8-2.3-2.3-7-4.4-14.8c-1-4-2.2-8.7-3.1-14.8c-0.1-0.8-0.2-1.5-0.3-2.4c0-0.4-0.1-0.8-0.1-1.2l-0.1-0.6l0-0.1l-0.1-1l0,0
				l0-0.1l0-0.2c0-1.2-0.1-2.5-0.1-3.9c0-0.7,0-1.3-0.1-2c0-0.8,0-1.5,0-2.3c0-1.5,0-3.1-0.1-4.8c0.1-6.3,0.2-13,0.8-20.3
				c0.5-7.3,1.4-15.1,2.6-23.3c1.3-8.2,3-16.9,5.4-26c2.4-9.1,5.5-18.5,9.6-28.2l0.5-1.2c7.1-12.9,16.5-24.2,25.9-34.5
				c9.4-10.4,18.8-20.4,25.9-31.3c1-1.3,1.7-2.7,2.6-4.1c0.9-1.4,1.6-2.8,2.3-4.2l1.1-2.1l1.2-2.5c0.8-1.6,1.5-3.2,2.3-4.8l0.6-1.2
				c0.2-0.4,0.3-0.7,0.5-1.1l0.9-2.2c0.6-1.5,1.2-3,1.8-4.4c1.1-3.1,2.1-6.3,3.1-9.5c3.7-12.8,5.7-26,7.1-38.5
				c1.3-12.5,1.8-24.5,2.2-35.3c0.4-10.8,0.6-20.5,0.8-28.5c0.1-4,0.2-7.6,0.3-10.8c0.1-3.2,0.2-5.9,0.3-8.1
				C171.5,327,171.6,324.6,171.6,324.6z"/>
		</g>
	</g>
</g>
<g>
	<g>
		<g>
			<path class="st3" d="M405.6,90.1c0,0,1.1,1.8,3,5.2c1,1.7,2.2,3.8,3.7,6.3c1.4,2.5,2.9,5.4,4.6,8.7c6.8,13.1,15.8,32.3,23.2,56.9
				c7.4,24.6,13.2,54.3,15.7,86.7c0.1,1,0.2,2,0.3,3c0.1,1,0.1,2,0.2,3.1c0.1,2,0.3,4.1,0.4,6.1c0.3,4.1,0.5,8.3,0.7,12.5
				c0.1,2.1,0.2,4.2,0.3,6.3c0.1,2.1,0.1,4.2,0.2,6.3s0.1,4.2,0.2,6.3l0,0.8l0,0.4l0,0.5l0,1.6l0,3.3c0,8.8-0.6,17.7-1.5,26.6
				c-0.6,4.4-1.1,8.9-1.9,13.3c-0.4,2.2-0.7,4.5-1.1,6.7l-1.3,6.6c-1.9,8.8-4,17.6-6.5,26.1c-1.2,4.3-2.5,8.5-3.8,12.8
				c-1.4,4.2-2.7,8.4-4.1,12.6c-2.7,8.3-5.6,16.5-8.4,24.5c-2.8,8.1-5.5,16-8.2,23.9c-5.5,15.8-10.9,31-15.3,45.4
				c-4.4,14.4-7.8,27.9-9.7,40.6c-1.9,12.7-2.5,24.5-2.2,35.3c0.1,2.6,0.2,5.1,0.4,7.5c0,0.6,0.1,1.2,0.1,1.8
				c0.1,0.7,0.1,1.4,0.2,2.1c0.1,1.4,0.2,2.7,0.4,4c0.1,1.3,0.2,2.6,0.3,3.9c0.1,1.3,0.2,2.7,0.3,4c0.2,2.5,0.4,4.8,0.6,7.1
				c1.4,18.1,3.1,29.8,3.7,34.5c2.2,17.8,4.2,34,5.6,45.7c0.4,2.9,0.6,5.6,0.9,8c0.1,0.6,0.1,1.2,0.1,1.8c0,0.6,0.1,1.2,0.1,1.7
				c0,0.6,0.1,1.1,0.1,1.7c0,0.6,0,1,0,1.5c0,1-0.1,2-0.2,2.9c0,1-0.1,2-0.3,2.8c-0.4,1.7-1.1,3.2-2.2,4.3c-1.1,1.1-2.6,1.8-4.3,2.1
				c-0.9,0.2-1.8,0.2-2.8,0.2c-1-0.1-2.2-0.4-3.5-0.8c-0.6-0.2-1.3-0.5-1.9-0.7c-0.6-0.3-1.3-0.6-1.9-0.9c-0.7-0.3-1.4-0.7-2-1.1
				c-0.7-0.4-1.4-0.9-2-1.3c-2.8-1.9-5.6-4.5-8.4-7.5c-2.7-3.1-5.4-6.7-7.8-10.7c-2.4-4-4.6-8.4-6.5-13.1c-3.8-9.4-6.4-20-7.8-31
				c-0.4-2.7-0.8-7.5-1.3-14.1c-0.4-6.5-0.7-14.7-0.8-24.2c0-2.3-0.1-4.8-0.1-7.3c0-1.2,0-2.4,0-3.6c0-1.3,0-2.6-0.1-3.9
				c0-1.3,0-2.7-0.1-4c0-0.7,0-1.4,0-2.1c0-0.8,0-1.6,0-2.4c0.1-3.2,0.1-6.5,0.2-9.8c0.6-12.9,2.4-27.2,5.8-41.9
				c3.4-14.8,8.5-29.8,14.4-44.8c5.9-15,12.7-29.9,19.3-45.1c3.3-7.6,6.7-15.4,10.1-23.2c3.4-7.8,6.9-15.6,10.2-23.5
				c1.7-3.9,3.3-7.8,4.9-11.8c1.5-3.9,3.2-7.9,4.6-11.8c3-7.9,5.7-15.9,8.1-23.9l1.7-6c0.6-2,1-4,1.5-6c1.1-4,1.8-8.1,2.7-12.1
				c1.5-8.1,2.8-16.2,3.4-24.4l0.3-3l0.1-1.5l0-0.2c0,0,0-0.3,0-0.1l0-0.4l0-0.8c0.1-2.1,0.2-4.2,0.3-6.3s0.2-4.2,0.3-6.3
				c0.1-2,0.2-4.1,0.2-6.1c0.1-4.1,0.3-8.1,0.4-12.1c0-2,0.1-4,0.1-6c0-1,0-2,0-3c0-1,0-2,0-3c0.2-31.7-3-61-8.2-85.6
				c-5.2-24.6-12.5-44.4-18.2-57.9c-1.5-3.4-2.7-6.4-3.9-9c-1.2-2.6-2.3-4.8-3.1-6.5C406.5,92,405.6,90.1,405.6,90.1z"/>
		</g>
	</g>
</g>
<g>
	<g>
		<g>
			<path class="st4" d="M191.6,321.1c0,0-0.3,1.4-0.8,3.9c-0.2,1.3-0.6,2.8-0.9,4.7c-0.3,1.9-0.6,4-1,6.4c-0.3,2.4-0.6,5.1-1,8
				c-0.3,2.9-0.6,6-0.8,9.4c-0.4,6.7-0.6,14.3-0.6,22.7c0.1,8.3,0.5,17.3,1.2,26.9c0.7,9.6,1.6,19.7,2.6,30.2
				c2,21.1,4.4,43.9,4.6,67.6c0.1,11.8-0.4,23.9-1.9,36c-0.7,6-1.8,12-3,18c-0.6,3-1.4,5.9-2.1,8.9c-0.8,3-1.8,6.1-2.7,9.1
				c-0.9,2.6-1.8,5.2-2.7,7.8c-0.7,1.6-1.3,3.3-2,4.9c-0.7,1.5-1.4,2.9-2.1,4.4c-2.9,5.7-6,10.7-9.2,15.4
				c-6.4,9.3-12.8,17.4-18.7,24.7c-5.9,7.3-11.3,13.9-16.1,19.9c-4.7,6-8.7,11.3-12,15.9c-3.3,4.6-5.8,8.5-7.6,11.5
				c-1,1.5-1.6,2.8-2.3,3.8c-0.7,1.1-1.1,1.9-1.5,2.5c-2.9,4.8-5.6,8.9-8,12.5c-2.5,3.6-4.7,6.7-7.1,9.6c-0.5,0.7-1.1,1.4-1.7,2.1
				c-0.3,0.3-0.6,0.7-0.9,1c-0.3,0.3-0.6,0.6-0.8,0.8c-0.6,0.6-1.2,1.1-1.8,1.7c-0.3,0.3-0.7,0.5-0.9,0.9c-0.3,0.4-0.6,0.8-0.8,1.1
				c-2.3,2.8-5.1,4.6-8.2,5.1c-3.1,0.5-6.2-0.5-9.3-2.5c-0.4-0.3-0.8-0.5-1.1-0.8c-0.4-0.3-0.7-0.8-1.1-1.2c-0.7-0.9-1.4-2-2-3.2
				c-0.3-0.6-0.7-1.2-1-1.9c-0.3-0.6-0.5-1.2-0.8-1.9c-0.5-1.3-1-2.7-1.4-4.2c-1.5-5.9-1.7-13.2-0.3-20.7c1.4-7.5,4.4-15,8.5-21.8
				c0.5-0.9,1.2-2.1,2.2-3.4c1-1.4,2.1-3.1,3.5-4.9c2.7-3.7,6.3-8.3,10.7-13.2c4.4-5,9.5-10.4,15.2-16.2c5.7-5.8,12-11.8,18.4-18.2
				c6.5-6.4,13.1-13.1,19.3-20.1c3-3.5,5.9-7.1,8.3-10.7c0.6-0.9,1.2-1.8,1.7-2.7l0.8-1.3l0.4-0.7l0.2-0.3l0.1-0.2l0-0.1
				c0-0.1-0.1,0.3,0,0.1c1.2-2.4,2.4-4.9,3.6-7.4c0.9-2.2,1.9-4.3,2.8-6.6c0.9-2.4,1.9-4.8,2.7-7.2c1.7-4.9,3.2-10,4.5-15.2
				c2.6-10.4,4.4-21.3,5.7-32.3c2.6-22.1,3.1-44.7,3.7-66c0.3-10.6,0.7-20.9,1.2-30.6c0.6-9.7,1.3-18.9,2.3-27.4
				c1-8.4,2.2-16.1,3.5-22.8c0.7-3.4,1.4-6.5,2-9.4c0.7-2.9,1.4-5.5,2-7.9c0.7-2.3,1.3-4.4,1.9-6.2c0.5-1.8,1.1-3.3,1.5-4.6
				C191.2,322.4,191.6,321.1,191.6,321.1z"/>
		</g>
	</g>
</g>
<g>
	<g>
		<g>
			<path class="st5" d="M310.6,165.6c0,0-0.7,1.8-2.1,5.3c-0.3,0.9-0.7,1.8-1.1,2.9c-0.4,1.1-0.9,2.2-1.4,3.5
				c-1.1,2.5-2.4,5.3-3.8,8.5c-1.5,3.1-3.2,6.6-5.1,10.4c-1,1.9-2,3.8-3,5.8c-1,2-2.1,4.1-3.3,6.2c-4.6,8.6-10.2,18.1-16.2,28.5
				c-6,10.4-12.5,21.7-18.7,33.8c-1.6,3-3,6.2-4.5,9.3c-0.8,1.6-1.4,3.2-2.2,4.8c-0.7,1.6-1.4,3.2-2.1,4.9c-0.7,1.6-1.3,3.3-2,5
				c-0.6,1.7-1.3,3.3-1.9,5l-0.5,1.3l-0.4,1.3c-0.3,0.8-0.5,1.7-0.8,2.5c-0.5,1.7-1.1,3.4-1.6,5.1c-0.3,0.8-0.5,1.8-0.7,2.7
				c-0.2,0.9-0.5,1.8-0.7,2.8c-0.5,1.9-1,3.7-1.4,5.6c0,0.1,0.1-0.4,0-0.1l0,0.2l-0.1,0.3l-0.1,0.7l-0.2,1.4
				c-0.2,0.9-0.3,1.8-0.5,2.7c-0.3,1.8-0.7,3.7-1,5.5c-0.4,3.7-1,7.5-1.3,11.3c-0.1,1.9-0.3,3.8-0.4,5.7c-0.1,1.9-0.3,3.8-0.3,5.8
				c-0.5,15.4,0.4,31.3,2.3,47.1c3.9,31.8,11.5,63.5,19.2,93.9l0.7,2.9l0,0.2c0-0.1,0.1,0.4,0-0.1l0.1,0.3l0.2,0.7l0.4,1.3
				c0.5,1.8,1,3.5,1.6,5.2c0.6,1.7,1.1,3.5,1.7,5.2c0.6,1.7,1.2,3.4,1.8,5.2s1.2,3.4,1.9,5.1c0.7,1.7,1.3,3.4,2,5.1
				c1.4,3.4,2.7,6.7,4.1,10c5.5,13.3,11.3,26.1,16.6,38.4c5.3,12.3,10.1,24.2,14,35.4c3.9,11.2,7,21.8,9.1,31.3
				c0.1,0.6,0.3,1.2,0.4,1.8c0.1,0.6,0.2,1.2,0.3,1.8c0.2,1.2,0.4,2.3,0.7,3.4c0.2,1.1,0.4,2.2,0.6,3.3c0.2,1.1,0.3,2.1,0.5,3.2
				c0.3,2.1,0.6,4,0.8,5.9c0.2,1.9,0.3,3.7,0.5,5.3c0.4,3.3,0.4,6.3,0.5,8.7c0,1.2,0.1,2.3,0.1,3.3c0,1-0.1,1.8-0.1,2.5
				c-0.4,11.4-2.7,22.4-6.6,31.8c-0.2,0.6-0.4,1.2-0.7,1.7c-0.3,0.6-0.5,1.1-0.8,1.7c-0.5,1.1-1.1,2.2-1.6,3.3s-1.1,2.1-1.6,3.1
				c-0.6,1-1.2,1.9-1.8,2.9c-1.2,1.9-2.4,3.6-3.6,5.3c-1.3,1.6-2.6,3.1-3.9,4.5c-2.4,2.7-5.3,5.1-7.8,7c-1.3,0.9-2.5,1.8-3.7,2.3
				c-1.1,0.5-2.3,0.9-3.3,1.3c-4.3,1.3-7.8,1.2-10.4-0.6c-2.6-1.8-3.8-5.1-4-9.6c0-1.1,0-2.3,0.1-3.6c0.1-1.2,0-2.4,0-3.6
				c0.1-2.5,0.4-4.9,0.6-7.9c0.2-1.4,0.4-2.9,0.6-4.4c0.1-1.5,0.3-3.1,0.5-4.7c0.1-0.8,0.2-1.6,0.4-2.4c0.1-0.8,0.1-1.6,0.2-2.5
				s0.2-1.6,0.3-2.5c0.1-0.4,0.1-0.8,0.2-1.2c0.1-0.4,0.1-0.9,0.1-1.3c0.1-1.7,0.3-3.4,0.5-5.2c0.1-1.8,0.2-3.6,0.4-5.4
				c0.2-1.8,0.2-3.7,0.3-5.6c0-0.5,0.1-0.9,0.1-1.4l0-1.5c0-1,0.1-2,0.1-3c0.1-4,0.7-14-1.6-29.5c-1.1-7.7-3-16.9-5.7-27.1
				c-2.7-10.2-6.3-21.6-10.5-34c-4.1-12.4-8.9-25.7-13.5-40.1c-1.2-3.6-2.3-7.3-3.4-11c-0.5-1.9-1.1-3.8-1.7-5.7
				c-0.6-1.9-1.1-3.8-1.6-5.8c-2.1-7.8-4-15.8-5.4-24.3c-5.2-31.2-10.3-64.7-11.5-98.5c-0.6-16.9-0.1-33.8,1.9-50.3
				c0.2-2.1,0.6-4.1,0.9-6.2c0.3-2,0.6-4.1,1-6.1c0.7-4.1,1.7-8.1,2.5-12.1c0.5-2,1.1-3.9,1.6-5.9c0.6-2,1.1-4.1,1.7-6.1
				c0.6-1.8,1.3-3.6,1.9-5.4c0.3-0.9,0.6-1.8,1-2.7c0.3-0.9,0.6-1.8,1-2.7c0.8-1.9,1.5-3.7,2.3-5.5c0.4-0.9,0.8-1.8,1.2-2.7l0.6-1.4
				l0.6-1.3c0.8-1.7,1.7-3.4,2.5-5.1c0.8-1.7,1.6-3.4,2.5-5c0.9-1.6,1.8-3.3,2.7-4.9c0.9-1.6,1.7-3.2,2.7-4.8
				c1.9-3.1,3.6-6.2,5.5-9.2c7.4-11.9,14.9-22.6,21.8-32.5c6.9-9.9,13.2-18.8,18.6-26.9c1.4-2,2.6-4,3.9-5.9
				c1.2-1.9,2.4-3.7,3.5-5.5c2.2-3.6,4.1-6.9,5.9-9.8c1.7-3,3.2-5.7,4.5-8.1c0.7-1.2,1.2-2.3,1.7-3.3c0.5-1,1-1.9,1.4-2.8
				C309.7,167.4,310.6,165.6,310.6,165.6z"/>
		</g>
	</g>
</g>
<g>
	<g>
		<g>
			<path class="st6" d="M390.6,134.1c0,0,0.2,2,0.7,5.8c0.3,3.8,0.9,9.4,0.8,16.5c0,7.2-0.5,15.9-1.9,25.8c-1.4,9.9-3.8,21.1-7.1,33
				c-3.3,12-7.6,24.7-12.2,38.1c-4.6,13.4-9.6,27.4-14,42c-0.6,1.8-1.1,3.7-1.6,5.5c-0.3,0.9-0.5,1.8-0.8,2.8
				c-0.3,0.9-0.5,1.9-0.8,2.9l-0.4,1.4l-0.2,0.7l0,0.2c-0.1,0.3,0.1-0.2,0-0.1l-0.1,0.4c-0.2,0.9-0.4,1.9-0.6,2.8
				c-0.4,1.9-0.8,3.8-1.2,5.7c-1.4,7.6-2.5,15.4-3.2,23.2c-0.6,7.9-1,15.8-1,23.8c0.1,8,0.5,16,1.4,24c0.9,8,2,15.9,3.7,23.8
				c0.3,2,0.9,3.9,1.3,5.9c0.5,1.9,0.9,3.9,1.4,5.8c0.5,1.9,1,3.8,1.5,5.6c0.6,2,1.2,4,1.8,6l0.9,3l0.9,2.8c0.6,1.9,1.2,3.7,1.8,5.6
				c1.3,3.7,2.7,7.3,4.1,11c2.9,7.2,6.2,14.4,9.5,21.4c6.8,14.1,14.2,27.9,21,42c6.7,14,12.7,28.3,16.9,42.7
				c2.1,7.2,3.7,14.3,4.9,21.3c0.6,3.5,1,6.9,1.4,10.4c0.2,1.8,0.3,3.6,0.5,5.3c0.1,0.9,0.1,1.6,0.2,2.3c0,0.7,0.1,1.4,0.1,2.2
				s0.1,1.4,0.1,2.1l0,0.5l0,0.1l0,0.3l0,0.5l0,1c0.1,1.3,0.1,2.7,0.2,3.9c0.2,2.6,0.3,5.2,0.5,7.7c0.3,5.1,0.6,9.9,0.9,14.4
				c0.6,9,1,16.9,1.1,23.2c0.2,6.3,0.1,11,0,13.6c-0.4,10.7-2.1,21.1-5,30.6c-2.8,9.4-7,17.7-11.7,24c-1.2,1.6-2.4,3-3.5,4.3
				c-1.2,1.3-2.4,2.5-3.6,3.5c-1.2,1-2.4,1.9-3.6,2.7c-1.2,0.8-2.4,1.5-3.5,2c-0.6,0.3-1.1,0.5-1.6,0.7c-0.5,0.2-1,0.3-1.5,0.4
				c-1,0.2-1.9,0.3-2.8,0.3c-1.8,0-3.3-0.5-4.6-1.3c-1.3-0.9-2.3-2.1-3-3.8c-0.3-0.8-0.6-1.7-0.8-2.7c-0.1-0.5-0.2-1-0.3-1.5
				c-0.1-0.5-0.2-1-0.3-1.5c-0.2-1-0.3-2-0.4-3.2c-0.1-1.2-0.2-2.4-0.2-3.6c-0.1-1.3-0.1-2.6-0.1-3.9c0-1.4,0-2.8,0-4.2
				c0-5.8,0.3-12.4,0.4-19.8c0.2-7.4,0.4-15.8,0.8-24.9c0.1-2.3,0.3-6.3,0.5-11.9c0.2-5.6,0.3-12.9,0.3-21.8c0-4.5,0.1-9.4,0.1-14.5
				c0-2.6,0.1-5.4,0.1-8.2c0-1.4,0.1-2.9,0.1-4.3l0-1.1l0-0.6l0-0.3l0-0.1c0-0.4,0,0.4,0,0.3c0-0.7,0-1.4,0-2.1s0-1.4,0-2.2
				c0-0.7,0-1.5,0-2.1c0-1.2,0-2.4,0-3.6c-0.1-2.5-0.2-5.3-0.5-8c-0.5-5.5-1.3-11.2-2.5-17.1c-2.4-11.9-6.5-24.6-11.8-38.2
				c-5.2-13.6-11.5-28-17.5-43.5c-3-7.8-5.9-15.8-8.4-24.1c-1.3-4.1-2.5-8.3-3.6-12.6c-0.5-2.1-1.1-4.3-1.5-6.4l-0.7-3.2l-0.6-3.1
				c-0.4-2.1-0.8-4.1-1.3-6.2c-0.4-2.2-0.8-4.4-1.2-6.6c-0.4-2.2-0.7-4.4-1-6.6c-0.3-2.2-0.7-4.3-0.9-6.5
				c-1.1-8.7-1.6-17.5-1.8-26.3c-0.2-8.8,0.1-17.5,0.7-26.1c0.7-8.6,1.8-17.2,3.2-25.5c1.5-8.4,3.4-16.6,5.6-24.5
				c0.5-2,1.2-4,1.8-5.9c0.3-1,0.6-2,0.9-2.9l0.1-0.4c0,0,0.2-0.6,0.1-0.5l0.1-0.2l0.3-0.7l0.5-1.4c0.3-0.9,0.7-1.9,1-2.8
				c0.4-0.9,0.7-1.9,1.1-2.8c0.7-1.9,1.4-3.7,2.2-5.6c5.8-14.6,12.1-28.3,17.8-41.2c5.8-12.9,11-25,15.3-36.4
				c4.3-11.4,7.5-22,9.7-31.6c2.3-9.6,3.5-18.1,4.1-25.1c0.7-7,0.6-12.6,0.6-16.4C390.7,136.1,390.6,134.1,390.6,134.1z"/>
		</g>
	</g>
</g>
<g>
	<g>
		<g>
			<path class="st7" d="M288.1,344.2c0,0,0.5,1.1,1.5,3.1c0.2,0.5,0.5,1.1,0.8,1.7c0.3,0.6,0.5,1.4,0.8,2.1c0.3,0.8,0.7,1.6,1,2.5
				c0.3,0.9,0.6,1.9,0.9,2.9c2.7,8.1,4.7,20.3,5.4,35c0.4,7.3,0.6,15.3,1,23.5c0.1,2,0.2,4.1,0.3,6.3c0,0.5,0.1,1.1,0.1,1.6l0.1,0.8
				l0.1,0.7c0.1,1.1,0.2,2.1,0.3,3.2c0.5,4.3,0.8,8.6,1.6,13c2.6,17.6,7.4,36.1,13.8,54.4c0.8,2.3,1.6,4.5,2.5,6.8l1.2,3.4l0.6,1.7
				l0.7,1.7c0.9,2.3,1.8,4.6,2.7,6.9l0.7,1.7l0.3,0.9l0.2,0.4l0.1,0.2c0.2,0.5-0.2-0.6-0.1-0.5l0,0.1l1.5,3.3c1,2.2,2,4.3,3,6.5
				c1,2.2,1.9,4.3,3,6.4c2.1,4.2,4.2,8.4,6.3,12.6c8.6,16.5,17.5,32.1,25.3,46.1c2,3.5,3.8,6.9,5.7,10.2c1.8,3.4,3.6,6.6,5.2,9.7
				c0.8,1.5,1.6,3,2.4,4.5c0.7,1.4,1.5,2.8,2.2,4.2c1.4,2.7,2.7,5.2,3.9,7.6c0.3,0.6,0.6,1.2,0.9,1.7c0.1,0.3,0.3,0.6,0.4,0.8
				l0.1,0.2l0.1,0.1c-0.9-1.9-0.2-0.5-0.4-0.9l0,0.1l0.3,0.5c0.7,1.3,1.4,2.5,2,3.7c0.6,1.2,1.2,2.4,1.7,3.5c0.5,1.1,1,2.2,1.4,3.2
				c1.7,4,2.7,7.2,3.3,9.1c2.1,7.3,2.6,15.2,1.4,22.3c-1.2,7.2-3.9,13.5-7.5,17.9c-0.8,1.1-1.8,2.1-2.7,3c-0.5,0.4-0.9,0.9-1.4,1.2
				c-0.2,0.2-0.5,0.4-0.7,0.6c-0.3,0.2-0.5,0.4-0.8,0.6c-1,0.7-2,1.4-3,1.8c-0.5,0.2-1,0.5-1.4,0.6c-0.2,0.1-0.5,0.2-0.7,0.2
				c-0.2,0-0.4,0.1-0.6,0.1c-3.4,0.4-6.6-0.1-9.3-1.7c-2.7-1.6-4.6-4.2-5.8-7.4c-0.1-0.2-0.1-0.4-0.2-0.6c-0.1-0.2-0.1-0.4-0.3-0.6
				c-0.2-0.3-0.4-0.7-0.6-1c-0.4-0.6-0.7-1.3-1.1-2c-0.1-0.2-0.2-0.3-0.3-0.5c-0.1-0.2-0.2-0.4-0.3-0.6c-0.2-0.4-0.3-0.7-0.5-1.1
				c-0.3-0.7-0.6-1.4-0.9-2.2c-1.2-2.9-2.5-5.6-3.6-8.6c-1.1-2.9-2.2-6.2-3.3-10.1c-0.3-1-0.7-2.7-1.5-5.3c-0.2-0.6-0.4-1.3-0.7-2
				c-0.3-0.7-0.5-1.5-0.8-2.3c-0.3-0.8-0.7-1.7-1-2.6l-0.1-0.3l0,0c-0.2-0.4,0.4,0.9-0.5-1l0-0.1l-0.1-0.2c-0.1-0.3-0.2-0.6-0.3-0.9
				c-0.2-0.6-0.5-1.2-0.7-1.8c-0.9-2.5-1.9-5.2-3-8c-0.5-1.4-1.1-2.9-1.6-4.4c-0.6-1.5-1.1-3-1.7-4.5c-1.2-3.1-2.4-6.3-3.7-9.7
				c-1.3-3.4-2.7-7-4.2-10.7c-5.8-14.8-12.7-31.8-19.2-50.2c-1.6-4.6-3.1-9.3-4.7-14.1c-0.8-2.3-1.5-4.8-2.2-7.2
				c-0.7-2.4-1.5-4.8-2.2-7.3l-1.1-3.6l0-0.1c0,0.1-0.4-1.1-0.2-0.7l-0.1-0.2l-0.1-0.5l-0.2-0.9l-0.4-1.8c-0.6-2.4-1.1-4.8-1.7-7.3
				l-0.4-1.8l-0.4-1.9l-0.8-3.8c-0.5-2.5-1-5-1.6-7.5c-3.9-20-6.2-40.3-6.2-59.2c-0.1-4.7,0.2-9.3,0.4-13.9c0-1.1,0.1-2.2,0.1-3.4
				l0-0.9l0.1-0.8c0-0.5,0.1-1.1,0.1-1.6c0.2-2.1,0.4-4.3,0.6-6.4c0.9-8.4,1.8-16.2,2.5-23.4c1.4-14.3,1.2-26.2-0.2-34.4
				c-0.2-1-0.3-2-0.5-2.9c-0.2-0.9-0.4-1.7-0.6-2.5c-0.2-0.8-0.4-1.5-0.5-2.2c-0.1-0.7-0.4-1.3-0.5-1.8
				C288.5,345.3,288.1,344.2,288.1,344.2z"/>
		</g>
	</g>
</g>
<g>
	<g>
		<g>
			<path class="st8" d="M332.6,222.6c0,0,2.6,6,7.3,16.6c2.3,5.3,5.2,11.7,8.4,19.2c3,7.5,6.4,16,10.1,25.3
				c3.8,9.3,7.4,19.6,11.4,30.4c2,5.4,4.1,11,6,16.8c1.9,5.7,3.9,11.6,5.8,17.6c1,3,2,6,3,9.1c0.5,1.5,1,3.1,1.5,4.6l0.8,2.4
				l0.7,2.5c2,6.7,3.3,13.8,4,20.9c0.8,7.1,0.9,14.4,0.5,21.7c-0.1,1.8-0.2,3.6-0.4,5.5c-0.2,1.8-0.4,3.6-0.6,5.4
				c-0.2,1.8-0.5,3.6-0.8,5.4c-0.3,1.8-0.6,3.6-1,5.4c-0.7,3.6-1.6,7.1-2.5,10.7c-1,3.5-2,7.1-3.2,10.5c-0.6,1.7-1.2,3.5-1.8,5.2
				c-0.7,1.7-1.3,3.4-2,5.2l-2.2,5.2c-0.4,0.9-0.7,1.6-1.1,2.4l-1.1,2.3c-2.8,6.2-5.7,12.3-8.5,18.4c-2.8,6.1-5.6,12.1-8.4,18
				c-5.5,11.8-10.7,23.3-15.3,34.3c-2.2,5.5-4.6,10.8-6.4,16.1c-1,2.6-1.9,5.2-2.9,7.7c-0.2,0.6-0.5,1.3-0.7,1.9
				c-0.2,0.6-0.4,1.2-0.6,1.8c-0.4,1.2-0.8,2.4-1.2,3.6c-0.8,2.4-1.5,4.8-2.3,7.1c-0.4,1.2-0.8,2.3-1.1,3.5c-0.3,1.3-0.7,2.5-1,3.7
				c-0.7,2.5-1.3,4.9-2,7.2c-0.3,1.2-0.6,2.3-0.9,3.5c-0.2,0.6-0.3,1.2-0.5,1.7l-0.1,0.4l-0.1,0.2c0.4-1.4,0.1-0.3,0.2-0.6l0,0.1
				l-0.1,0.7c-0.4,2-0.8,3.9-1.1,5.8c-0.3,1.9-0.6,3.7-0.8,5.5c-0.2,1.8-0.4,3.6-0.6,5.3c-0.2,1.7-0.2,3.4-0.4,5
				c-0.1,0.8-0.1,1.6-0.2,2.4c0,0.8-0.1,1.6-0.1,2.3c0,1.5-0.1,2.9-0.1,4.3c0,2.8-0.1,5.3,0,7.5c0.1,4.5,0.1,7.8,0.1,9.6
				c0,7.6-0.3,15-1.2,21.9c-0.9,7-2.2,13.3-4.1,18.8c-3.7,11.1-9.4,17.5-15.7,17.6c-6.3,0.1-11.9-6.6-16.4-16.5
				c-2.2-5.1-4.2-11.2-5.6-18.2c-1.4-7-2.4-14.9-2.4-23.4c0-1.1,0-2.5,0.1-4.4c0-1.8,0.2-4.1,0.3-6.7c0.1-2.6,0.4-5.6,0.7-8.9
				c0.2-1.7,0.4-3.4,0.6-5.3c0.1-0.9,0.2-1.9,0.3-2.8c0.1-1,0.3-2,0.4-3c0.3-2,0.6-4.1,1-6.3c0.4-2.2,0.9-4.4,1.3-6.7
				c0.6-2.3,1.1-4.7,1.7-7.1c0.6-2.4,1.4-4.9,2.2-7.5l0.3-1l0.3-1l0.1-0.2l0.2-0.4c0.2-0.6,0.4-1.1,0.6-1.7c0.4-1.1,0.8-2.3,1.3-3.4
				c0.9-2.3,1.7-4.6,2.6-7c0.4-1.2,0.9-2.4,1.4-3.6c0.5-1.2,1.1-2.6,1.6-3.9c1.1-2.6,2.3-5.3,3.5-8.1c0.6-1.4,1.2-2.7,1.8-4.1
				c0.3-0.7,0.6-1.4,0.9-2.1c0.3-0.7,0.6-1.3,1-2c1.3-2.7,2.6-5.4,3.9-8.1c2.6-5.5,5.6-10.9,8.5-16.5c6-11.1,12.5-22.3,19.2-33.7
				c3.4-5.6,6.8-11.3,10.2-17.1c3.4-5.8,6.8-11.6,10.3-17.4l1.3-2.2c0.4-0.7,0.9-1.5,1.2-2.1l2.2-4c0.7-1.3,1.4-2.8,2.1-4.2
				c0.7-1.4,1.4-2.8,2-4.3c1.4-2.9,2.5-5.8,3.7-8.8c1.1-3,2.2-6,3.1-9c0.5-1.5,1-3,1.3-4.5c0.4-1.5,0.8-3,1.2-4.6
				c0.3-1.5,0.7-3.1,1-4.6c0.4-1.5,0.5-3.1,0.8-4.6c1-6.2,1.6-12.4,1.5-18.5c0-6.1-0.4-12.3-1.5-18.2l-0.4-2.2l-0.5-2.3
				c-0.3-1.6-0.7-3.2-1-4.7c-0.7-3.1-1.4-6.2-2-9.3c-1.3-6.2-2.7-12.2-3.9-18.1c-1.3-5.9-2.8-11.5-4.2-17.1
				c-2.8-11.1-5.2-21.6-8-31.2c-2.7-9.6-5.1-18.4-7.3-26.2c-2.3-7.7-4.5-14.4-6.2-19.9C334.6,228.9,332.6,222.6,332.6,222.6z"/>
		</g>
	</g>
</g>
<g>
	<g>
		<g>
			<path class="st9" d="M554.6,243.6c0,0,0.1,6.5,0.1,18c0,5.7,0.1,12.7-0.2,20.8c-0.3,8.1-0.9,17.2-2.4,27.2
				c-0.2,1.2-0.4,2.5-0.6,3.8c-0.2,1.3-0.4,2.6-0.7,3.9c-0.3,1.3-0.5,2.6-0.8,3.9c-0.3,1.3-0.7,2.7-1,4c-0.3,1.4-0.7,2.7-1.1,4
				c-0.2,0.7-0.4,1.3-0.6,2l-0.3,1l-0.3,1c-0.9,2.8-1.9,5.5-3,8.3c-4.4,11-10.3,21.8-15.3,32.8c-0.6,1.4-1.2,2.8-1.8,4.1
				c-0.5,1.4-1.1,2.8-1.6,4.2l-0.7,2.1l-0.4,1l-0.3,1l-0.6,2c-0.2,0.7-0.4,1.5-0.6,2.3l-0.3,1.2l-0.2,0.6l0,0.1
				c-0.1,0.2,0-0.1,0-0.1l-0.1,0.3l-0.4,2.2c-0.3,1.5-0.6,3-0.9,4.5c-0.2,1.5-0.4,3-0.6,4.5c-0.2,1.5-0.4,3-0.5,4.6
				c-0.9,12.2-0.1,24.7,2.8,36.9c1.3,6.1,3.2,12.1,5.3,18.1c1.2,3,2.2,5.9,3.5,8.8c0.6,1.5,1.2,2.9,1.9,4.3l2,4.3
				c0.7,1.4,1.4,2.8,2.1,4.2c0.7,1.4,1.4,2.8,2.2,4.2c0.8,1.3,1.5,2.7,2.2,4l1.1,2l1.3,2.1c0.8,1.4,1.7,2.8,2.5,4.2
				c0.9,1.5,1.7,3.1,2.6,4.6c1.7,3.1,3.4,6.1,5,9.2c12.5,24.7,20.6,49.9,25.6,72.2c5,22.4,7.5,42,9.1,56.9c0.3,3.7,0.6,7.2,0.9,10.3
				c0.3,3.1,0.5,5.9,0.6,8.4c0.3,4.9,0.5,8.5,0.5,10.6c0.3,16.4-2.4,31-6.6,41.6c-4.3,10.5-10.1,16.8-16.3,16.7
				c-6.3-0.1-11.8-6.7-15.7-17.2c-4-10.4-6.4-24.6-6.6-40.2c-0.1-1.9-0.1-5.3,0-10c0-2.3,0-5,0-7.9c0-2.9,0-6.2,0-9.7
				c-0.2-13.9-0.9-32.1-3.4-52.7c-0.1-0.6-0.1-1.3-0.2-1.9c-0.1-0.6-0.2-1.3-0.3-1.9c-0.2-1.3-0.4-2.6-0.6-3.9
				c-0.4-2.6-0.8-5.3-1.2-8c-0.5-2.7-1.1-5.4-1.6-8.1c-0.3-1.4-0.5-2.8-0.8-4.2c-0.3-1.4-0.7-2.7-1-4.1c-0.7-2.8-1.4-5.6-2.1-8.4
				c-0.8-2.8-1.7-5.6-2.5-8.4c-0.4-1.4-0.9-2.8-1.3-4.3c-0.4-1.4-1-2.8-1.5-4.2c-1-2.8-2-5.7-3.1-8.5c-1.1-2.8-2.4-5.6-3.6-8.5
				c-0.6-1.4-1.2-2.8-1.8-4.3c-0.7-1.5-1.4-3.1-2.1-4.6l-1-2.3l-1.1-2.5c-0.7-1.7-1.4-3.3-2.1-5c-0.7-1.7-1.3-3.3-2-5
				c-0.6-1.7-1.3-3.3-1.9-5c-0.6-1.7-1.2-3.4-1.8-5.1c-0.6-1.7-1.1-3.4-1.6-5.2c-1.1-3.4-2-7-2.9-10.4c-1.7-7.1-3.2-14.2-3.9-21.5
				c-1.8-14.5-1.3-29.2,1.3-43.2c0.2-1.8,0.7-3.5,1.1-5.2c0.4-1.7,0.8-3.4,1.2-5.1c0.5-1.7,1-3.3,1.5-5l0.8-2.5l0.1-0.3
				c0,0,0.1-0.5,0.1-0.4l0.1-0.1l0.2-0.6l0.4-1.1c0.3-0.8,0.5-1.5,0.9-2.3l1.1-2.5l0.5-1.3l0.5-1.2l1.1-2.3c0.7-1.5,1.5-3,2.3-4.5
				c0.8-1.4,1.6-2.9,2.4-4.3c6.5-11.2,13.4-20.9,18.5-30.6c1.3-2.4,2.5-4.8,3.5-7.3l0.4-0.9l0.4-0.9c0.3-0.6,0.5-1.3,0.8-1.9
				c0.5-1.3,1-2.5,1.5-3.7c0.4-1.2,0.9-2.4,1.3-3.6c0.4-1.2,0.8-2.4,1.2-3.6c0.4-1.2,0.8-2.4,1.1-3.6c0.3-1.2,0.7-2.4,1-3.5
				c2.5-9.4,4-18.3,5.1-26.1c1.1-7.9,1.8-14.8,2.4-20.5C553.9,250.1,554.6,243.6,554.6,243.6z"/>
		</g>
	</g>
</g>
<g>
	<g>
		<g>
			<path class="st10" d="M501.1,257.6c0,0-0.4,1.5-1.2,4.3c-0.2,0.7-0.4,1.5-0.7,2.4c-0.3,0.9-0.6,1.8-0.9,2.8
				c-0.6,2-1.4,4.4-2.3,6.9c-1.8,5.2-4.2,11.4-6.9,18.6c-2.7,7.1-5.8,15.2-8.4,24.1c-2.6,8.9-4.7,18.7-5.1,29c0,2.6-0.2,5-0.1,7.9
				c0,1.4,0.1,2.8,0.1,4.2l0,0.5c0-0.3,0,0,0-0.1l0,0.1l0,0.3l0.1,1c0.1,0.7,0.1,1.4,0.2,2.1c0.2,2.8,0.5,5.6,0.7,8.5
				c0.1,1.4,0.2,2.8,0.4,4.3c0.2,1.4,0.4,2.9,0.6,4.3c3,23.2,8.8,47.7,15,72.7c1.6,6.3,3.1,12.6,4.7,18.9c0.8,3.1,1.5,6.3,2.3,9.4
				c0.8,3.1,1.5,6.2,2.3,9.2c3,12.1,6.6,24,10.3,35.7c7.4,23.3,15.2,45.5,21.4,65.8c6.3,20.3,11,38.5,13.7,52.9
				c2.8,14.3,3.8,24.6,4.1,28.7c1,16.4-1.9,31.6-7,41.8c-1.3,2.6-2.7,5-4.1,6.9c-0.4,0.5-0.7,1-1.1,1.4c-0.4,0.4-0.7,0.8-1.1,1.2
				c-0.8,0.8-1.5,1.4-2.3,2c-3.1,2.4-6.2,3.5-9.3,3.1c-3.1-0.4-5.8-2.4-8.1-5.5c-0.6-0.8-1.1-1.6-1.6-2.6c-0.5-0.9-1-1.9-1.5-2.9
				c-1-2-1.9-4.1-2.7-6.4c-3.2-9.6-5.4-22.1-6.3-36c-0.3-3.5-0.5-12.3-1.8-25.2c-1.2-12.9-3.9-30-7.9-49.9c-4-20-9.4-42.9-14.4-67.6
				c-2.5-12.4-4.8-25.1-6.7-38.2c-1.7-12.8-3.4-25.6-5.1-38.5c-3.5-25.7-6.7-51.5-7.1-75.9c0-1.5-0.1-3-0.1-4.5
				c-0.1-1.5,0-3,0.1-4.5c0.1-3,0.1-6,0.2-8.9c0-0.7,0-1.5,0.1-2.2l0-1.1l0-0.7l0-0.5c0.1-1.4,0.2-2.8,0.4-4.2
				c0.2-2.7,0.7-5.8,1.1-8.6c1.8-11.3,5.2-21.4,8.9-30.3c3.7-8.9,7.7-16.6,11.2-23.4c3.5-6.8,6.6-12.7,8.9-17.6
				c1.2-2.4,2.2-4.7,3.1-6.6c0.4-1,0.8-1.9,1.2-2.7c0.3-0.8,0.7-1.6,0.9-2.3C500.5,259,501.1,257.6,501.1,257.6z"/>
		</g>
	</g>
</g>
<g>
	<g>
		<g>
			<path class="st11" d="M547.4,266.6c0,0-0.4,1.6-1,4.6c-0.7,3-1.7,7.4-2.9,13.1c-2.5,11.3-6.4,27.4-9.6,46.9
				c-1.5,9.8-2.7,20.4-2.9,31.5c-0.2,11.1,0.6,22.9,3.1,34.6c0.3,1.4,0.7,2.8,1,4.3l0.5,2.1c0.2,0.7,0.3,1.4,0.6,2.2
				c0.5,1.5,0.9,3.1,1.4,4.6l0.7,2.3l0.4,1.2l0.2,0.6c0,0.1,0,0,0,0.1l0,0.1l0.1,0.3c0.5,1.4,1,2.8,1.5,4.3c0.5,1.4,1,2.9,1.7,4.2
				c0.6,1.4,1.3,2.8,1.9,4.1c0.3,0.7,0.6,1.4,1,2.1l1.1,2c0.7,1.3,1.5,2.7,2.2,4c0.8,1.3,1.7,2.6,2.5,3.9c1.6,2.6,3.6,5,5.4,7.5
				c0.9,1.2,2,2.4,3,3.6c1,1.2,2,2.4,3.1,3.5c2.2,2.3,4.3,4.6,6.7,6.8c4.6,4.5,9.6,8.7,14.7,12.9c5.2,4.2,10.4,8.3,15.8,12.5
				c2.7,2.1,5.4,4.2,8,6.3c2.7,2.1,5.5,4.4,8.2,6.6c2.6,2.2,5.1,4.2,7.7,6.5c1.3,1.2,2.7,2.3,4,3.5c1.3,1.1,2.6,2.4,3.9,3.6
				c10.3,9.6,19.4,20.1,27.2,31c7.8,10.8,14.1,22,19.3,32.9c5.2,10.9,9,21.5,11.9,31.2c2.9,9.7,5,18.7,6.4,26.4
				c2.9,15.5,3.6,26.4,3.9,30.7c0.4,8.6-0.3,16.8-1.6,24.2c-1.4,7.3-3.4,13.8-5.8,19.1c-4.9,10.8-11.4,16.4-17.6,15.8
				c-6.3-0.6-11-8-14.4-18.2c-1.7-5.2-3-11.2-3.9-17.8c-1-6.6-1.6-13.7-1.9-21.1c-0.2-3.7-0.2-13-1.5-26.3
				c-0.6-6.6-1.7-14.2-3.4-22.5c-1.7-8.3-4-17.3-7.4-26.7c-3.4-9.3-7.6-19.1-13.2-28.7c-5.6-9.6-12.3-19.3-20.2-28.4
				c-1-1.1-2-2.3-3-3.4c-1-1.1-2.1-2.2-3.1-3.4c-2.2-2.3-4.6-4.8-6.9-7.2c-2.3-2.3-4.5-4.5-6.9-6.8c-2.4-2.3-4.8-4.7-7.2-7
				c-4.9-4.7-9.9-9.5-14.8-14.5c-4.9-5-9.9-10.2-14.5-15.7c-2.4-2.7-4.6-5.6-6.8-8.5c-1.1-1.4-2.1-3-3.2-4.5l-1.5-2.3
				c-0.5-0.8-1-1.5-1.5-2.3c-1.9-3.2-3.9-6.2-5.4-9.5c-0.8-1.6-1.7-3.2-2.5-4.9c-0.7-1.7-1.4-3.3-2.1-5l-1-2.5
				c-0.4-0.8-0.6-1.7-0.9-2.5c-0.6-1.7-1.1-3.4-1.7-5.1c-0.6-1.7-1-3.4-1.4-5.1c-0.4-1.7-0.8-3.4-1.3-5.1l-0.2-0.7l-0.1-0.6
				l-0.2-1.2l-0.5-2.4c-0.3-1.6-0.6-3.2-0.9-4.7c-0.2-0.8-0.3-1.6-0.4-2.5c-0.1-0.9-0.2-1.7-0.3-2.6c-0.2-1.7-0.4-3.4-0.6-5.1
				c-1.3-13.2-0.8-25.8,0.6-37.5c1.5-11.7,3.9-22.5,6.4-32.2c5.3-19.5,10.9-35,14.6-46c1.9-5.5,3.3-9.8,4.3-12.7
				C546.9,268.2,547.4,266.6,547.4,266.6z"/>
		</g>
	</g>
</g>
<g>
	<g>
		<g>
			<path class="st7" d="M639.3,208.5c0,0,1,1.4,2.8,4c1.8,2.6,4.5,6.4,8,11.3c1.7,2.4,3.6,5.1,5.6,8.1c1,1.5,2.1,3,3.2,4.6
				c1.1,1.6,2.2,3.3,3.3,5c4.6,6.9,9.7,14.9,14.8,24c1.3,2.3,2.5,4.6,3.8,7c1.2,2.4,2.5,4.9,3.7,7.4c0.7,1.3,1.2,2.6,1.8,3.9
				c0.6,1.3,1.2,2.6,1.8,4c1.3,2.7,2.3,5.4,3.4,8.3c4.4,11.3,8,23.8,10.3,37c0.3,1.7,0.5,3.3,0.8,5c0.3,1.7,0.6,3.3,0.7,5.1
				c0.3,3.4,0.7,7,1,10.4c0.2,3.3,0.3,6.7,0.5,10.1l0,0.6l0,0.2c0-0.3,0,0.6,0,0.5l0,0.3l0,1.3l0,2.6c0,1.7,0,3.5-0.1,5.2
				c0,3.5-0.1,7-0.1,10.5c-0.1,3.5,0,7-0.2,10.5c-0.3,7-0.6,14.1-0.9,21.2c-0.1,3.6-0.4,7.1-0.6,10.6l-0.7,10.6
				c-0.2,3.5-0.5,7.1-0.7,10.6c-0.3,3.5-0.5,7-0.8,10.5c-0.3,3.5-0.5,7-0.8,10.4c-0.1,1.8-0.3,3.5-0.4,5.3c-0.2,1.7-0.3,3.5-0.5,5.2
				c-0.7,7-1.3,13.9-2,20.7c-0.2,1.7-0.3,3.4-0.5,5.1c-0.2,1.7-0.4,3.4-0.6,5c-0.4,3.3-0.8,6.6-1.2,9.9c-0.4,3.3-0.8,6.5-1.2,9.8
				c-0.4,3.2-0.8,6.4-1.3,9.6c-0.9,6.3-1.8,12.4-2.7,18.4c-0.4,3-0.9,5.9-1.3,8.9c-0.5,2.9-0.9,5.7-1.3,8.5
				c-3.5,22.5-6.7,41.7-9.1,56.5c-2.3,14.7-4,24.9-4.8,28.8c-1.5,7.9-3.5,15.4-5.9,22.1c-0.6,1.7-1.2,3.3-1.9,4.9
				c-0.6,1.6-1.3,3.2-1.9,4.7c-1.3,3-2.7,5.8-4.2,8.3c-5.8,10-12.5,15.7-18.6,14.7c-6.2-1-10.7-8.5-13-19.9c-0.6-2.8-1-5.9-1.3-9.2
				c-0.1-1.6-0.3-3.3-0.3-5.1c0-1.8,0-3.6,0-5.4c0.2-7.4,1.1-15.4,2.6-23.7c0.8-4.1,3.2-14.3,6.8-28.9c3.6-14.6,8.5-33.6,14.1-55.4
				c0.7-2.7,1.4-5.5,2.1-8.3c0.7-2.8,1.4-5.7,2.1-8.5c1.4-5.8,2.9-11.7,4.4-17.8c0.8-3,1.4-6.1,2.1-9.2c0.7-3.1,1.4-6.2,2.1-9.4
				c0.7-3.2,1.4-6.3,2.2-9.5c0.4-1.6,0.7-3.2,1.1-4.8c0.3-1.6,0.6-3.2,1-4.9c1.3-6.5,2.6-13.1,3.9-19.7c0.3-1.7,0.7-3.3,1-5
				c0.3-1.7,0.6-3.3,0.9-5c0.6-3.4,1.2-6.8,1.8-10.3s1.2-6.9,1.8-10.3c0.6-3.4,1.1-6.9,1.7-10.3l1.7-10.3c0.6-3.4,1.2-6.9,1.6-10.3
				c1-6.9,2-13.7,3-20.5c0.5-3.4,0.8-6.8,1.2-10.2c0.4-3.4,0.8-6.8,1.1-10.1c0.2-1.7,0.4-3.4,0.6-5l0.3-2.5l0.1-1.3l0-0.3
				c0-0.1,0,0.6,0,0.2l0-0.2l0-0.6c0.2-3.4,0.3-6.7,0.5-10.1c0.1-3.2,0-6.3,0-9.4c0-1.6-0.1-3.1-0.2-4.7c-0.1-1.6-0.2-3.1-0.3-4.7
				c-0.9-12.4-3-24.4-6-35.5c-0.8-2.8-1.5-5.5-2.4-8.2c-0.4-1.3-0.9-2.7-1.3-4c-0.4-1.3-0.9-2.6-1.4-3.9c-1-2.5-1.9-5.1-2.8-7.5
				c-1-2.4-2-4.8-3-7.1c-4.1-9.3-8.2-17.7-12.1-25c-1-1.8-1.9-3.6-2.8-5.3c-0.9-1.7-1.8-3.3-2.7-4.9c-1.7-3.2-3.3-6-4.7-8.6
				c-2.9-5.2-5.2-9.2-6.7-12C640.1,210,639.3,208.5,639.3,208.5z"/>
		</g>
	</g>
</g>
<g>
	<g>
		<g>
			<path class="st7" d="M647.1,603.6c0,0-1.5,8-3.9,20.3c-2.3,12.2-5.3,28.5-6.5,44.8c-0.7,8.1-0.8,16.2-0.4,23.6
				c0.4,7.4,1.4,14,2.7,19.5c1.3,5.4,3,9.6,4.4,12.6c0.4,0.7,0.6,1.4,1,2c0.3,0.6,0.6,1.1,0.8,1.6s0.4,0.9,0.6,1.2
				c0.2,0.3,0.3,0.6,0.4,0.8c0.3,0.8,0.5,1.6,0.5,2.4c0.1,0.8,0,1.7-0.2,2.6c-0.1,0.4-0.2,1-0.4,1.4c-0.2,0.4-0.4,0.8-0.6,1.2
				c-0.4,0.9-1,1.8-1.6,2.9c-0.4,0.5-0.5,1.2-0.8,1.8c-0.3,0.6-0.5,1.2-0.8,1.8c-0.6,1.2-1.4,2.4-2.2,3.5c-1.7,2.3-3.9,4.4-6.4,6.2
				c-2.6,1.8-5.3,3.1-8.1,3.9c-1.4,0.4-2.7,0.7-4.1,0.8c-0.7,0.1-1.4,0.1-2,0.1c-0.7,0-1.3,0.1-2-0.2c-1.4-0.4-2.9-1-4.3-1.7
				c-0.7-0.4-1.4-0.8-2.1-1.3c-0.7-0.5-1.2-0.9-1.8-1.4c-1.1-1-2.2-2.2-3.1-3.4c-0.9-1.3-1.6-2.7-2.2-4.3c-0.2-0.4-0.3-0.9-0.6-1.6
				c-0.2-0.7-0.4-1.5-0.6-2.5c-0.2-1-0.5-2-0.7-3.2c-0.2-1.2-0.4-2.5-0.6-4c-0.8-5.7-1.2-13.1-0.5-21.2c0.6-8.1,2.3-16.7,4.7-25.3
				c2.4-8.6,5.6-17.2,9.2-25.3c7.1-16.3,15.5-30.8,21.8-41.6C642.9,610.6,647.1,603.6,647.1,603.6z"/>
		</g>
	</g>
</g>
<g>
	<g>
		<g>
			<path class="st12" d="M627.3,293.1c0,0,0.5,1.4,1.5,4.2c0.5,1.4,1.1,3,1.7,5c0.6,2,1.3,4.3,2.1,6.9c0.8,2.6,1.5,5.5,2.4,8.7
				c0.8,3.2,1.6,6.6,2.4,10.3c1.5,7.4,3,15.9,4,25.3c2,18.7,2.3,41-0.5,64.9c-0.4,3-0.8,6.1-1.2,9.1c-0.5,2.9-1,5.9-1.5,8.9
				c-0.6,3.1-1.1,6.2-1.8,9.4c-0.7,3.1-1.4,6.2-2.2,9.4c-3.1,12.5-7.2,24.7-11,36.8c-3.9,12-7.4,23.8-9.7,35.4
				c-0.7,2.9-1,5.8-1.5,8.6c-0.3,1.4-0.4,2.9-0.5,4.3c-0.2,1.4-0.3,2.8-0.5,4.2c-0.2,2.7-0.3,5.3-0.5,8c0,1.5,0,3.1,0,4.6l0,2.3
				l0,1.1l0,0.3c0,0.1,0-0.6,0-0.2l0,0.1l0,0.6c0.2,12.2,0.5,23.9,1.1,35c0.6,11.1,1.4,21.5,2.7,31c1.2,9.6,2.8,18.2,4.7,25.8
				c0.5,1.9,1,3.7,1.4,5.5c0.5,1.8,1,3.5,1.5,5.1c0.1,0.4,0.2,0.8,0.4,1.2c0.1,0.4,0.3,0.7,0.4,1.1c0.2,0.7,0.5,1.4,0.7,2.1
				c0.2,0.7,0.5,1.4,0.7,2l0.2,0.5l0.2,0.6c0.2,0.4,0.3,0.8,0.5,1.2c0.6,1.6,1.2,3.1,1.8,4.6l0.2,0.5l0.1,0.3
				c0.1,0.2-0.5-1.3-0.2-0.7l0,0.1l0.1,0.1c0.1,0.3,0.3,0.7,0.4,1c0.3,0.6,0.6,1.3,0.8,1.9c1.1,2.5,2.1,4.7,3,6.7
				c0.9,2,1.7,3.8,2.3,5.2c0.7,1.5,1.2,2.7,1.5,3.6c2.9,7.1,5.2,14.6,6.3,22c1.1,7.4,1.1,14.4,0,20.3c-0.2,1.5-0.6,2.8-1,4.1
				c-0.4,1.3-0.8,2.5-1.3,3.7c-0.5,1.2-1,2.3-1.5,3.3c-0.3,0.5-0.5,1-0.8,1.4c-0.3,0.4-0.6,0.8-0.9,1.2c-2.5,2.9-5.4,4.6-8.5,4.9
				c-3.1,0.2-6.2-1.1-9.1-3.7c-0.4-0.3-0.7-0.7-1.1-1c-0.4-0.3-0.7-0.6-1.1-1c-0.7-0.7-1.4-1.4-2.1-2.1c-0.7-0.7-1.4-1.6-2.1-2.5
				c-0.7-0.9-1.4-1.8-2.1-2.8c-2.7-3.8-5.5-8.2-8.3-13.2c-2.8-5-5.7-10.7-8.5-17.5c-0.3-0.9-0.8-2.1-1.4-3.5
				c-0.6-1.5-1.3-3.4-2.1-5.5c-0.8-2.2-1.7-4.7-2.7-7.5c-0.2-0.7-0.5-1.4-0.7-2.2c-0.1-0.4-0.3-0.8-0.4-1.1l-0.4-1l-0.1-0.3
				l-0.2-0.6c-0.4-1.5-0.9-3.1-1.4-4.7c-0.1-0.4-0.2-0.8-0.4-1.2l-0.2-0.6l-0.2-0.8c-0.3-1-0.5-2.1-0.8-3.1
				c-0.3-1.1-0.5-2.1-0.8-3.2c-0.1-0.5-0.3-1.1-0.4-1.7c-0.1-0.5-0.2-1.1-0.3-1.6c-0.4-2.1-0.8-4.3-1.3-6.6
				c-0.4-2.3-0.7-4.6-1.1-6.9c-1.3-9.5-2.1-19.7-2.4-30.6c-0.6-21.7,1.2-45.5,3.4-69.9l0-0.6l0-0.1c0,0.3,0-0.6,0-0.5l0-0.3l0.1-1.1
				l0.3-2.3c0.2-1.5,0.3-3.1,0.5-4.6c0.5-3.4,1.1-7,1.7-10.5c0.4-1.7,0.7-3.3,1.1-5c0.4-1.7,0.7-3.3,1.2-5c0.9-3.3,1.7-6.6,2.8-9.7
				c4.1-12.9,9.3-25.1,14.6-36.7c5.2-11.7,10.4-22.9,14.6-34.1c1.1-2.8,2-5.6,3-8.4c0.9-2.8,1.7-5.6,2.6-8.4
				c0.8-2.9,1.6-5.8,2.4-8.7c0.7-2.8,1.4-5.6,2.1-8.3c5.3-22.3,7.4-43.7,7.6-62.1c0.1-9.2-0.4-17.6-1.1-25
				c-0.4-3.7-0.8-7.2-1.2-10.4c-0.5-3.2-0.9-6.1-1.3-8.8c-0.5-2.6-0.9-5-1.3-7c-0.4-2-0.8-3.8-1.1-5.2
				C627.7,294.6,627.3,293.1,627.3,293.1z"/>
		</g>
	</g>
</g>
<g>
	<g>
		<g>
			<path class="st13" d="M460.6,250.1c0,0,0.5,1.5,1.4,4.4c0.9,2.9,2.2,7.1,3.8,12.5c3.2,10.8,7.7,26.4,12.2,45.5
				c4.4,19.1,8.8,41.7,11.3,66.6c2.5,24.9,2.9,52-0.3,79.4c-1.6,13.7-4,27.4-7.4,40.8c-3.3,13.4-7.5,26.4-12.4,39.2
				c-0.6,1.5-1.2,3-1.8,4.4l-0.9,2.2l-0.2,0.6l-0.1,0.3l-0.1,0.1c-0.1,0.1,0.1-0.1-0.2,0.4l-0.4,1.1c-1.2,2.9-2.3,5.7-3.5,8.6
				c-2.3,5.6-4.4,11.1-6.3,16.5c-1,2.7-1.8,5.3-2.7,7.9c-0.8,2.6-1.7,5.2-2.4,7.7c-1.5,5-2.6,9.9-3.6,14.6c-0.5,2.4-0.9,4.7-1.2,6.9
				c-0.4,2.3-0.6,4.5-0.9,6.7c-0.3,2.2-0.4,4.3-0.6,6.4c-0.1,2-0.2,3.9-0.3,5.8c0,2.3-0.1,4.5-0.1,6.6l0,0.1c0.1-2.5,0-0.6,0-1.2
				l0,0.2l0,0.3l0.1,0.6c0,0.4,0.1,0.8,0.1,1.2c0.1,0.8,0.1,1.6,0.2,2.4c0.5,3.2,0.9,6.1,1.6,8.9c0.2,0.7,0.3,1.4,0.5,2
				c0.2,0.7,0.4,1.3,0.6,2c0.4,1.3,0.7,2.5,1.1,3.8c0.8,2.4,1.5,4.6,2.2,6.6c1.4,3.9,2.6,7,3.2,8.7c2.5,7,4.7,14.3,5.9,21.6
				c0.7,3.6,1,7.3,1.2,10.7c0.1,3.6,0.1,6.8-0.3,9.9c-0.2,1.5-0.4,3-0.7,4.4c-0.3,1.5-0.7,2.9-1.1,4.2c-0.4,1.3-0.9,2.5-1.4,3.6
				c-0.2,0.6-0.5,1-0.8,1.4c-0.3,0.4-0.6,0.8-0.9,1.2c-2.5,3.1-5.3,4.9-8.4,5.2c-3.1,0.3-6.2-1.1-9.1-3.7c-0.4-0.3-0.7-0.7-1.1-1.1
				c-0.4-0.4-0.7-0.8-1.1-1.1c-0.8-0.7-1.5-1.3-2.2-2.1c-0.7-0.7-1.4-1.4-2.1-2.3c-0.8-0.9-1.5-1.8-2.2-2.8c-1.4-1.9-3-4.1-4.5-6.4
				c-1.6-2.4-3-4.8-4.7-7.7c-3.1-5.6-6.3-12.1-9.1-19.9c-0.7-2-1.9-5.4-3.3-10.5c-0.7-2.5-1.4-5.5-2.2-8.8c-0.4-1.7-0.7-3.5-1.1-5.4
				c-0.2-0.9-0.4-1.9-0.5-2.9c-0.1-1-0.3-2-0.4-3.1c-0.6-4.2-1-8.8-1.2-13.8c0-1.2,0-2.5,0-3.8c0-0.6,0-1.3,0-1.9l0-1l0-0.5l0-0.2
				l0-1.4l0-0.1c0.2-2.2,0.5-4.4,0.7-6.6c0.4-2.6,0.7-5.4,1.2-8.1c0.5-2.6,0.9-5.3,1.5-8c0.6-2.7,1.2-5.5,1.9-8.3
				c0.7-2.8,1.5-5.6,2.4-8.4c1.8-5.6,3.8-11.4,6.1-17.1c1.1-2.9,2.4-5.7,3.6-8.5c1.3-2.8,2.6-5.7,3.9-8.5c2.7-5.7,5.6-11.3,8.5-16.9
				c1.5-2.8,3-5.6,4.5-8.4l0.6-1.1c-0.2,0.4,0,0,0,0.1l0.1-0.1l0.1-0.3l0.3-0.5l1.1-2.1c0.7-1.4,1.5-2.8,2.2-4.2
				c5.4-10.6,10.5-22.2,14.9-34.1c4.3-11.9,7.9-24.3,10.8-36.8c5.7-25.1,8.1-50.8,8.3-75c0.2-24.2-1.7-46.8-4-66
				c-2.3-19.2-5.1-35.1-7.1-46.2c-1-5.5-1.8-9.9-2.4-12.8C460.9,251.7,460.6,250.1,460.6,250.1z"/>
		</g>
	</g>
</g>
<g>
	<g>
		<g>
			<path class="st14" d="M428.6,385.5c0,0,0.1,1.2,0.3,3.3c0.1,1.1,0.2,2.4,0.4,4c0.1,1.6,0.3,3.4,0.6,5.4c1,8.1,3,19.5,6.3,33
				c3.4,13.5,8.2,29.1,14.3,45.5c6.1,16.5,13.3,33.9,20.9,51.5c1.9,4.4,3.8,8.8,5.7,13.3l0.7,1.7c0.3,0.6,0.5,1.2,0.7,1.8l1.4,3.6
				c0.5,1.2,0.9,2.4,1.3,3.7l1.3,3.7c3.2,9.9,5.4,20.1,6.8,30c1.4,9.9,2,19.6,2.2,28.7c0.2,9.1,0,17.7-0.3,25.6
				c-0.3,7.8-0.6,15-0.9,21.6c-0.3,6.5-0.5,12.2-0.5,17.1c-0.2,9.8,0,16.2,0,18.8c-0.2,10.3-2.1,19.2-5.3,26.4
				c-0.8,1.7-1.7,3.3-2.7,4.8c-0.5,0.7-1,1.5-1.5,2.3c-0.5,0.7-1.1,1.4-1.6,2.1c-2.3,2.5-5,4.2-8.1,4.8c-3.1,0.6-6.2,0-9.3-1.5
				c-0.8-0.4-1.5-0.8-2.3-1.3c-0.7-0.5-1.5-1-2.2-1.8c-1.4-1.4-2.8-3.1-4.1-5.1c-1.3-1.9-2.4-4-3.5-6.3c-1-2.3-1.9-4.9-2.6-7.5
				c-1.4-5.4-2.2-11.4-2.1-17.5c0.1-3.1,0.6-10.8,2.1-21.5c1.5-10.7,4-24.2,6.6-39c2.6-14.9,5.2-31.2,5.2-48.2
				c0-8.5-0.5-17.1-2-25.7l-0.6-3.2c-0.2-1.1-0.4-2.2-0.7-3.2l-0.7-3.2c-0.1-0.5-0.2-1.1-0.4-1.6l-0.5-1.7c-1.2-4.7-2.5-9.3-3.7-14
				c-4.9-18.6-13.8-36.5-17.5-54c-3.7-17.6-1.9-35-3.2-49.1c-0.2-1.8-0.3-3.5-0.5-5.2c-0.1-1.7-0.2-3.4-0.3-5
				c-0.1-1.6-0.2-3.2-0.3-4.7c-0.1-1.5-0.1-3-0.1-4.4c-0.1-2.9-0.2-5.5-0.2-8c0-2.5,0.1-4.7,0.1-6.8c0-2,0.1-3.9,0.2-5.4
				c0.1-1.6,0.2-2.9,0.2-4C428.5,386.7,428.6,385.5,428.6,385.5z"/>
		</g>
	</g>
</g>
<g>
	<g>
		<g>
			<path class="st15" d="M266.4,392.6c0,0,0.7,0.6,2,1.6c0.6,0.5,1.5,1.2,2.4,2c0.9,0.9,1.9,1.9,3.1,3c1.1,1.2,2.3,2.6,3.6,4
				c0.6,0.8,1.2,1.6,1.8,2.5c0.3,0.4,0.6,0.9,1,1.3c0.3,0.5,0.6,1,0.9,1.5c0.6,1,1.3,2,1.8,3.1c0.5,1.1,1.1,2.3,1.7,3.5
				c0.5,1.2,1,2.5,1.5,3.8c0.5,1.3,0.8,2.7,1.3,4.1c1.5,5.7,2.2,12.2,2,19c-0.2,6.9-1.3,14-3.1,21.3c-3.5,14.6-9.5,29.6-15.7,44.4
				c-1.5,3.7-3.1,7.4-4.6,11.1c-0.7,1.8-1.5,3.7-2.2,5.5l-1,2.7l-1,2.7l-0.5,1.4l-0.3,0.7l-0.1,0.4l-0.1,0.2l0,0.1
				c-0.2,0.4-0.1,0.2-0.1,0.3l-0.9,2.7c-0.6,1.8-1.2,3.5-1.8,5.3c-1,3.7-2.2,7.2-3.1,11c-1,3.7-1.9,7.5-2.8,11.3
				c-0.5,1.9-0.9,3.8-1.4,5.7c-0.5,1.9-0.9,3.8-1.4,5.8c-0.5,1.9-1,3.9-1.5,5.8c-0.2,0.9-0.6,2-0.9,3c-0.3,1-0.6,2-0.9,3
				c-1.3,4.3-2.5,7.4-3.7,10.9l-0.4,1.3l-0.6,1.2l-0.2,0.3l-0.3,0.7c-0.4,0.9-0.8,1.8-1.3,2.8c-0.9,1.8-1.7,3.6-2.6,5.2
				c-0.9,1.7-1.7,3.3-2.6,4.9c-0.9,1.6-1.7,3.1-2.5,4.6c-3.3,5.9-6.3,11-8.7,15.6c-2.4,4.5-4.2,8.4-5.4,11.6
				c-1.2,3.2-1.8,5.8-2.2,7.8c0.5-1.9,0.6-2.5,0.7-3c-0.7,5.1-0.6,9.3-0.2,12.5c0,0.4,0.1,0.8,0.1,1.2c0,0.4,0.1,0.8,0.2,1.1
				c0.1,0.7,0.2,1.4,0.3,2c0.2,1.3,0.5,2.3,0.7,3.3c0.2,0.9,0.5,1.7,0.7,2.4c0.2,0.7,0.3,1.2,0.5,1.7c0.3,0.9,0.5,1.5,0.7,1.9
				c1.2,3.7,2.2,7.2,3,10.8c0.5,1.7,0.7,3.6,1.1,5.3c0.2,0.9,0.2,1.8,0.4,2.7c0.1,0.9,0.3,1.7,0.3,2.6c0,0.5,0.1,0.9,0.1,1.3
				c0,0.5,0,0.8,0,1.2c0,0.8,0,1.6,0,2.5c0,0.4,0,0.8-0.1,1.2c0,0.4-0.1,0.8,0,1.3c0.1,0.9,0,1.8,0,2.6c-0.2,3.4-1.3,6.4-3.4,8.7
				c-2.1,2.4-4.9,3.8-8.2,4.5c-0.8,0.2-1.7,0.3-2.6,0.4c-0.4,0.1-1,0-1.5-0.1c-0.5-0.1-1-0.2-1.6-0.3c-1.1-0.2-2.2-0.5-3.3-0.9
				c-0.6-0.2-1.2-0.4-1.7-0.6c-0.5-0.2-1.1-0.5-1.7-0.7c-1.1-0.5-2.3-1.1-3.4-1.8c-1.2-0.7-2.3-1.5-3.4-2.3
				c-2.4-1.7-4.5-3.8-6.7-6.2c-4.2-4.8-7.9-11-10.2-18c-0.3-0.8-0.6-1.9-1.1-3.7c-0.3-0.9-0.5-1.9-0.8-3.2c-0.3-1.3-0.6-2.7-0.9-4.5
				c-0.3-1.7-0.6-3.7-0.9-6c-0.1-1.2-0.2-2.4-0.4-3.7c-0.1-0.7-0.1-1.3-0.2-2c0-0.7-0.1-1.4-0.1-2.1c-0.3-5.9-0.1-13.2,1.4-22
				l0.4-2.2l0.3-0.8c1.6-4,3.7-8.7,6.4-13.4c2.8-4.7,6.1-9.6,9.7-14.4c3.6-4.8,7.6-9.6,11.4-14.4c1-1.2,1.9-2.4,2.9-3.7
				c1-1.2,1.9-2.5,2.8-3.7c0.9-1.2,1.8-2.5,2.7-3.7c0.4-0.6,0.8-1.3,1.2-1.9l0.3-0.5l0.2-0.2l0.1-0.1l0-0.1
				c-0.2,0.4,0.4-0.9-0.4,0.8l0.6-1.2c1.7-3.1,3.6-6.6,4.8-9.3c0.4-0.7,0.7-1.5,1.1-2.2c0.4-0.8,0.7-1.4,1.1-2.3
				c0.7-1.7,1.5-3.3,2.2-5c0.7-1.7,1.5-3.4,2.2-5.2c0.7-1.8,1.5-3.6,2.2-5.4c1.5-3.7,3-7.4,4.7-11.2c1.6-3.8,3.5-7.7,5.3-11.5
				c1-1.9,2-3.9,3-5.8l1.5-2.9c0,0,0.1-0.2,0,0.1l0-0.1l0.1-0.2l0.2-0.3l0.4-0.7l0.7-1.3l1.5-2.7l1.6-2.8c1.1-1.8,2.1-3.5,3.2-5.3
				c2.1-3.5,4.2-6.9,6.3-10.3c8.3-13.5,16-26.6,21.2-39.4c2.6-6.4,4.6-12.7,5.7-18.7c1.1-6,1.4-11.8,0.8-17.1
				c-0.2-1.3-0.3-2.6-0.6-3.9c-0.3-1.2-0.5-2.5-0.8-3.6c-0.4-1.2-0.7-2.3-1.1-3.4c-0.3-1.1-0.8-2.1-1.2-3.1c-0.2-0.5-0.4-1-0.6-1.5
				c-0.2-0.5-0.5-0.9-0.7-1.4c-0.5-0.9-0.9-1.8-1.4-2.6c-1-1.6-1.9-3.1-2.8-4.4c-1-1.3-1.8-2.4-2.6-3.4c-0.8-1-1.5-1.7-2.1-2.3
				C267,393.3,266.4,392.6,266.4,392.6z"/>
		</g>
	</g>
</g>
<g>
	<g>
		<g>
			<path class="st16" d="M353.6,438.6c0,0-1,3.6-2.9,9.8c-1.9,6.2-4.2,15.3-6.6,26.2c-0.5,2.7-1,5.6-1.6,8.5c-0.3,1.5-0.5,3-0.8,4.5
				c-0.3,1.5-0.4,3.1-0.6,4.7c-0.4,3.1-0.8,6.4-1.2,9.7c-0.3,1.6-0.3,3.3-0.4,5c-0.1,1.7-0.2,3.4-0.3,5.2
				c-0.6,6.9-0.4,14.1-0.5,21.4c-0.1,1.8,0.1,3.7,0.2,5.5c0.1,1.8,0.2,3.7,0.2,5.5c0.2,3.7,0.2,7.3,0.6,11.2
				c0.3,3.8,0.6,7.7,0.9,11.5l0.2,2.9l0.3,2.6c0.2,1.8,0.4,3.7,0.6,5.5c0.4,3.7,1,7.3,1.5,10.9c0.6,3.6,1.1,7.2,1.8,10.7
				c2.5,14.1,5.4,27.7,7.9,39.9c2.5,12.2,4.5,23.2,5.8,31.7c0.6,4.3,1.1,7.9,1.4,10.8c0.3,2.9,0.4,5,0.5,6.2c0,1.2,0,2.4,0,3.6
				c0,1.2-0.2,2.4-0.3,3.5c-0.3,2.3-0.7,4.5-1.3,6.6c-1.2,4.3-3,8.3-5.2,11.3c-4.5,5.7-10.4,8.9-16.6,8.5
				c-6.2-0.4-11.7-4.4-15.4-10.6c-2-2.9-3.5-6-4.6-9.5c-0.6-1.8-1-3.7-1.4-5.7c-0.2-1-0.3-2-0.4-3c-0.1-1-0.2-2.1-0.2-3.1
				c0-1.1,0-2.9,0.1-5.5c0-2.6,0.1-5.9,0.1-9.8c0-7.8-0.1-18.3-0.5-30.6c-0.3-12.3-0.9-26.6-0.8-41.8c0-3.8,0.1-7.7,0.2-11.6
				c0.2-3.9,0.3-7.9,0.6-11.9c0.1-2,0.3-4,0.4-6l0.2-3.2l0.3-2.9c0.4-3.8,0.8-7.7,1.2-11.5c0.3-3.8,1-7.8,1.5-11.7
				c0.3-2,0.6-3.9,0.8-5.9c0.3-1.9,0.5-3.9,0.9-5.8c1.5-7.6,2.8-15,4.7-22.1c0.5-1.8,0.9-3.5,1.3-5.3c0.5-1.7,0.8-3.5,1.4-5.1
				c1.1-3.3,2.1-6.6,3.1-9.7c0.5-1.6,1-3.1,1.5-4.6c0.6-1.5,1.2-3,1.7-4.4c1.1-2.9,2.2-5.7,3.2-8.3c4.5-10.5,8.4-19,11.5-24.8
				C351.9,441.9,353.6,438.6,353.6,438.6z"/>
		</g>
	</g>
</g>
<g>
	<g>
		<g>
			<path class="st17" d="M126.1,445.6c0,0-2,3.5-5.6,9.8c-3.6,6.2-8.9,15.1-14.9,25.8c-3,5.4-6.2,11.2-9.1,17.6
				c-3.1,6.3-5.9,13.1-8.3,20.1c-0.6,1.8-1.2,3.6-1.8,5.4c-0.5,1.8-1,3.7-1.5,5.5c-0.2,0.9-0.5,1.8-0.7,2.8
				c-0.2,0.9-0.4,1.9-0.6,2.8c-0.2,0.9-0.4,1.9-0.6,2.8c-0.2,0.9-0.4,1.9-0.5,2.9c-0.3,1.9-0.6,3.8-0.9,5.8c-0.2,1-0.2,1.9-0.3,2.8
				l-0.2,2.8l-0.2,2.8l-0.1,0.7l0,0.8l-0.1,1.6c-0.1,2.1-0.1,4.2-0.2,6.3c0,2,0,3.9,0,5.9l0,3c0,1,0,2,0.1,3c0.1,2,0.2,4,0.3,6
				l0.2,3l0.3,3c0.2,2,0.4,4,0.6,6c0.2,2,0.5,4,0.7,5.9c0.3,2,0.5,3.9,0.8,5.9c0.3,1.9,0.7,3.9,1,5.8c0.6,3.8,1.4,7.6,2.1,11.4
				c0.7,3.7,1.6,7.3,2.3,10.8c0.2,0.9,0.4,1.8,0.6,2.6c0.2,0.9,0.4,1.8,0.7,2.7c0.4,1.8,0.9,3.6,1.3,5.4l0.3,1.3l0,0.2
				c0.2,0.9-0.2-1.1-0.2-0.9l0,0.1l0.1,0.3l0.2,0.6c0.2,0.8,0.5,1.5,0.7,2.2c0.5,1.5,1,3,1.5,4.4c2.1,5.9,4.4,11.6,6.5,17
				c1.1,2.7,2.1,5.2,3,7.7c1,2.5,1.8,4.8,2.7,6.9c3.3,8.7,5.4,15.3,6.1,17.9c0.7,2.6,1.1,5.4,1.4,7.9c0.2,2.7,0.3,5.3,0.2,7.8
				c-0.2,2.6-0.5,5.1-1,7.4c-0.6,2.4-1.3,4.6-2.2,6.6c-1,2.3-2.1,4.2-3.2,5.9c-0.3,0.4-0.6,0.8-0.9,1.1c-0.3,0.3-0.7,0.6-1,0.8
				c-0.7,0.5-1.4,1-2.1,1.4c-2.8,1.7-5.9,2.5-9,2.3c-3.1-0.2-6-1.4-8.6-3.4c-0.6-0.5-1.3-1-1.9-1.6c-0.3-0.3-0.6-0.6-0.9-0.9
				c-0.3-0.2-0.6-0.5-1-0.7c-1.2-1-2.4-2-3.4-3c-1.1-1.3-2.2-2.6-3.1-4.1c-1-1.5-2-3.1-2.8-4.7c-0.9-1.7-1.7-3.5-2.4-5.5
				c-0.8-2-1.4-4-1.9-6.2c-0.6-2.2-1.6-7.8-3.6-16.3c-1-4.4-2.2-9.4-3.5-15c-1.3-5.7-2.8-12.2-4.2-19.4c-0.3-1.8-0.7-3.6-1-5.6
				c-0.2-1-0.3-2-0.5-2.9c-0.1-0.8-0.3-1.6-0.4-2.4l-0.1-1.3c-0.1-1.8-0.3-3.6-0.4-5.5c-0.1-0.9-0.1-1.9-0.2-2.8c-0.1-1-0.1-2-0.2-3
				c-0.2-4-0.5-8.1-0.6-12.2c-0.1-4.1-0.3-8.3-0.3-12.5c0-2.1,0-4.3,0-6.4c0.1-2.2,0.1-4.3,0.2-6.5c0.1-2.2,0.1-4.3,0.3-6.6
				c0.2-2.2,0.3-4.4,0.5-6.6l0.2-3.3l0.4-3.3c0.2-2.2,0.5-4.4,0.7-6.6c0.1-1.1,0.3-2.2,0.5-3.3l0.5-3.3l0.5-3.3l0.3-1.7l0.1-0.8
				l0.1-0.4l0-0.2l0.1-0.4c0.4-2.1,0.8-4.2,1.3-6.2l0.3-1.6l0.2-0.8l0.2-0.8l0.9-3.4c0.3-1.1,0.6-2.2,0.9-3.4
				c0.3-1.1,0.6-2.2,0.9-3.3c0.7-2.1,1.4-4.2,2.1-6.3c0.3-1,0.7-2.1,1.1-3.1c0.4-1,0.8-2,1.2-3c0.4-1,0.8-2,1.2-3
				c0.4-1,0.9-2,1.3-2.9c0.9-1.9,1.8-3.8,2.7-5.7c1-1.8,1.9-3.7,2.9-5.5c3.9-7.2,8.1-13.8,12.4-19.7c4.2-6,8.4-11.3,12.3-16.2
				c7.9-9.7,14.6-17.4,19.2-23C123.5,448.7,126.1,445.6,126.1,445.6z"/>
		</g>
	</g>
</g>
<g>
	<g>
		<g>
			<path class="st2" d="M593.6,111.6c0,0-0.1,2-0.3,5.8c-0.1,1.9-0.2,4.2-0.3,7c-0.1,1.4-0.1,2.9-0.1,4.4c0,1.6,0,3.3,0,5
				c0,1.8,0,3.6,0,5.6c0.1,2,0.2,4,0.3,6.1c0.1,2.1,0.2,4.3,0.4,6.6c0.2,2.3,0.5,4.7,0.7,7.1c0.3,2.4,0.5,5,0.9,7.6
				c0.4,2.6,0.9,5.2,1.4,7.9c0.2,1.4,0.5,2.7,0.7,4.1c0.3,1.4,0.6,2.8,1,4.2c0.7,2.8,1.3,5.7,2,8.6c0.8,2.9,1.7,5.8,2.6,8.8
				c0.4,1.5,0.8,3,1.3,4.5c0.5,1.5,1.1,3.1,1.6,4.7c0.5,1.6,1.1,3.2,1.6,4.7c0.3,0.8,0.5,1.6,0.8,2.4l0.4,1.2c0,0.1-0.1-0.2,0,0
				l0.1,0.1l0.1,0.3l0.2,0.6c0.6,1.5,1.3,3.1,1.9,4.7c0.7,1.6,1.3,3.2,2,4.7c5.7,12.6,12.8,25.5,20.6,38.8
				c7.7,13.4,16.1,27.2,23.8,42.2c0.9,1.9,1.9,3.8,2.9,5.7c0.9,1.9,1.8,3.9,2.7,5.8l1.3,2.9l0.7,1.5l0.6,1.5c0.8,2,1.6,4,2.5,6.1
				c0.9,2,1.5,4.1,2.3,6.2c0.7,2.1,1.5,4.2,2.1,6.4c0.6,2.3,1.2,4.5,1.8,6.8c0.3,1.1,0.6,2.3,0.9,3.4l0.6,3.1l0.6,3.1l0.3,1.5
				l0.2,0.8l0.1,0.4c0.1,0.4-0.1-0.6,0.1,1l0,0.2l0.7,6.5l0.4,3.2l0.3,3.2l0.6,6.5c0.6,8.6,1,17.3,1.1,25.9c0.2,8.6,0,17.1-0.2,25.5
				c-0.3,8.4-0.7,16.8-1.3,25c-1.2,16.4-2.8,32.3-4.8,47.5c-0.5,3.8-1,7.6-1.5,11.3c-0.2,1.8-0.5,3.6-0.7,5.4l-0.2,1.3
				c0.2-1,0-0.2,0.1-0.4l0,0.2l0,0.4l-0.1,0.7c-0.1,1-0.2,1.9-0.3,2.9c-1,7.6-2.2,14.8-3.4,21.7c-2.5,13.7-5.1,26.1-7.3,37.1
				c-2.1,11-3.7,20.7-4.8,29c-2.1,16.6-1.9,27.2-1.8,31.5c0,8.5,0.2,16.2,0.7,23.2c0.4,7,0.9,13.5,1.5,19.3c0,0.4,0,0.7,0.1,1.1
				c0,0.4,0.1,0.7,0.1,1.1c0.1,0.7,0.1,1.4,0.2,2.1s0.1,1.4,0.1,2c0,0.7,0,1.3,0.1,1.9c0,1.2,0,2.4,0,3.5c0,0.6-0.1,1.1-0.1,1.7
				c-0.1,0.5,0,1.2,0,1.7c-0.2,4.5-1.5,7.9-4,9.7c-2.6,1.8-6.2,1.8-10.5,0.4c-0.5-0.2-1.1-0.3-1.7-0.7c-0.6-0.3-1.2-0.6-1.8-1
				c-1.2-0.7-2.5-1.6-3.8-2.6c-0.3-0.3-0.7-0.5-1-0.8c-0.3-0.3-0.6-0.5-0.9-0.8c-0.6-0.5-1.2-1.1-1.9-1.7s-1.3-1.2-1.9-1.9
				c-0.3-0.3-0.6-0.7-1-1c-0.3-0.4-0.6-0.7-0.9-1.1c-5.1-5.9-9.8-14.1-13.2-23.7c-3.4-9.7-5.2-20.8-5.2-32.1
				c-0.1-5.6,0.6-19.9,4.3-38.7c1.9-9.4,4.4-20,7.5-31.3c3.1-11.3,6.6-23.4,10-36.1c1.7-6.3,3.3-12.8,4.6-19.3
				c0.2-0.8,0.3-1.6,0.5-2.5l0.1-0.6l0.1-0.3l0-0.2c0.1-0.3-0.1,0.4,0.1-0.7l0.3-1.3c0.4-1.8,0.8-3.6,1.2-5.4
				c0.8-3.5,1.5-7.1,2.3-10.7c3-14.5,5.9-29.7,8.3-45.3c1.2-7.8,2.3-15.7,3.2-23.7c0.9-8,1.7-16,2.2-24.1c0.6-8.1,0.9-16.2,1-24.4
				l0-6.1l0-3l-0.1-3l-0.2-6.1l0-0.2c0.2,1.5,0,0.3,0.1,0.6l0-0.4L654,367l-0.2-1.6l-0.4-3.1l-0.4-3.1c-0.1-1-0.3-1.8-0.5-2.8
				c-0.3-1.8-0.7-3.6-1-5.4c-0.4-1.8-0.9-3.8-1.4-5.7c-0.5-1.9-0.9-3.8-1.5-5.7c-0.6-1.9-1.2-3.8-1.8-5.7l-0.4-1.4l-0.5-1.4l-1-2.8
				c-0.7-1.9-1.3-3.7-2-5.6c-0.7-1.9-1.5-3.7-2.2-5.5c-6-14.8-13.1-29.1-19.8-43.2c-6.7-14.1-12.9-27.9-17.7-41.6
				c-0.6-1.7-1.2-3.4-1.7-5.1c-0.5-1.7-1.1-3.4-1.6-5.1l-0.4-1.4l-0.3-1.2c-0.2-0.8-0.4-1.6-0.6-2.5c-0.4-1.6-0.8-3.3-1.2-4.9
				c-0.4-1.6-0.8-3.2-1.2-4.8c-0.4-1.6-0.7-3.2-1-4.8c-0.6-3.2-1.3-6.3-1.9-9.4c-0.4-3.1-0.9-6.1-1.3-9c-0.2-1.5-0.4-2.9-0.6-4.4
				c-0.1-1.4-0.2-2.9-0.4-4.3c-0.2-2.8-0.5-5.6-0.7-8.2c-0.2-2.7-0.2-5.3-0.2-7.8c0-2.5-0.2-4.9-0.1-7.3c0.1-2.3,0.2-4.6,0.2-6.7
				c0.1-2.2,0.2-4.2,0.2-6.2c0.2-2,0.3-3.8,0.5-5.6c0.2-1.8,0.3-3.5,0.4-5c0.1-1.6,0.2-3.1,0.5-4.4c0.4-2.7,0.7-5.1,1-6.9
				C593.3,113.6,593.6,111.6,593.6,111.6z"/>
		</g>
	</g>
</g>
<g>
	<g>
		<g>
			<path class="st2" d="M377,581c0,0,0.4,0.4,1.1,1c0.4,0.3,0.8,0.7,1.2,1.3c0.5,0.5,1,1.1,1.6,1.9c1.2,1.4,2.4,3.4,3.5,5.8
				c1.1,2.4,2.1,5.4,2.6,8.7c0.5,3.4,0.6,7.1,0.3,11c-0.3,3.9-1,7.9-2,12c-2,8.1-4.9,16.4-7.9,24.3c-3,8-5.9,15.8-8.1,22.9
				c-2.2,7.1-3.4,13.5-3.5,18.3c-0.1,4.8,0.7,7.9,1.6,9.7c0.8,1.8,1.6,2.7,1.7,3.2c0.3,0.9,0.2,2-0.4,3.5c-0.2,0.7-0.6,1.6-0.9,2.5
				c-0.2,0.5-0.4,0.9-0.6,1.4c-0.2,0.5-0.5,1-0.7,1.5c-0.7,1.1-1.3,2.2-1.8,3.1c-0.6,1.2-1.1,2.5-1.8,3.7c-1.4,2.5-3.3,4.8-5.7,6.9
				c-2.3,2.1-4.9,3.7-7.5,4.8c-1.3,0.5-2.6,1.1-4,1.3c-1.5,0.1-3,0-4.5-0.3c-0.8-0.2-1.5-0.3-2.2-0.6c-0.7-0.2-1.5-0.5-2.2-0.8
				c-1.4-0.6-2.8-1.6-4.1-2.6c-2.6-2.2-4.8-5.3-6.2-9c-0.4-0.9-0.8-2.6-1.3-4.9c-0.4-2.3-0.9-5.4-0.9-8.9c-0.2-7,1.3-15.7,4.5-23.8
				c3.2-8.2,7.8-15.8,13-22.9c5.1-7.1,10.7-13.7,16-20.1c5.3-6.4,10.3-12.6,14.3-18.6c2-3,3.7-6,5-8.9c1.3-2.9,2.3-5.8,2.8-8.5
				c1.1-5.4,0.3-10.3-0.8-13.6c-0.2-0.8-0.5-1.5-0.8-2.2c-0.2-0.6-0.5-1.2-0.7-1.6C377.3,581.5,377,581,377,581z"/>
		</g>
	</g>
</g>
<g>
	<g>
		<g>
			<path class="st2" d="M489.6,519.6c0,0-1,2.8-2.7,7.7c-1.4,5-3.7,12.1-4.4,20.7c-0.1,1.1-0.1,2.2-0.2,3.3c0,0.6-0.1,1.1-0.1,1.7
				c0,0.6,0,1.1,0.1,1.7c0,1.1,0.1,2.3,0.1,3.4c0.1,1.2,0.3,2.3,0.4,3.5c0.1,0.6,0.2,1.2,0.2,1.8c0.1,0.6,0.3,1.2,0.4,1.8
				c0.3,1.2,0.5,2.4,0.8,3.6c0.8,2.4,1.4,4.8,2.5,7.2c0.9,2.4,2.2,4.8,3.3,7.2c1.4,2.4,2.6,4.9,4.1,7.3c2.9,4.9,6.2,9.9,9.5,14.9
				c3.3,4.8,7.3,11,10.2,17.2c0.7,1.6,1.5,3.1,2.2,4.7c0.7,1.6,1.3,3.2,1.9,4.8c0.6,1.6,1.3,3.2,1.8,4.8c0.5,1.6,1,3.2,1.5,4.8
				c3.9,12.9,5.5,25.5,6,36.4c0.5,11,0.1,20.4-0.4,27.5c-0.3,3.5-0.6,6.5-0.9,8.8c-0.3,2.3-0.6,4-0.8,4.9c-0.8,3.8-2.3,7.2-4.1,10.1
				c-1.9,2.9-4.2,5.4-6.8,7.3c-5.2,3.5-11.4,4.9-17.4,3.3c-6-1.6-10.8-5.9-13.5-11.5c-1.4-2.7-2.4-5.7-2.8-8.9
				c-0.5-3.2-0.3-6.5,0.4-9.8c0.7-3.3,5.1-16.2,8.2-33.7c1.5-8.7,2.4-18.6,1.7-28.8c-0.1-1.3-0.2-2.6-0.3-3.9
				c-0.1-1.3-0.3-2.6-0.5-3.9c-0.2-1.3-0.3-2.6-0.6-3.9c-0.3-1.3-0.6-2.6-0.9-3.9c-1.2-5.3-2.8-10.1-5.2-16.2
				c-2.2-5.9-4.4-11.8-6.3-17.9c-1-3-1.8-6.1-2.6-9.1c-0.7-3.1-1.4-6.1-1.8-9.2c-0.6-3-0.7-6.1-0.9-9.1c0-1.5,0-3,0-4.4
				c0-0.7,0-1.4,0.1-2.2c0.1-0.7,0.1-1.4,0.2-2.1c0.2-1.4,0.2-2.8,0.5-4.1c0.3-1.3,0.5-2.6,0.8-3.9c0.1-0.6,0.2-1.3,0.4-1.9
				c0.2-0.6,0.4-1.2,0.5-1.8c0.4-1.2,0.7-2.3,1-3.5c3-9,7-15.5,9.6-20C488,522.1,489.6,519.6,489.6,519.6z"/>
		</g>
	</g>
</g>
<g>
	<g>
		<path class="st18" d="M314.1,777.6"/>
	</g>
</g>
<g>
	<g>
		<g>
			<path class="st19" d="M208.1,621.5c0,0,1,1,2.7,2.7c0.8,0.9,1.8,2,3,3.3c1.1,1.3,2.4,2.8,3.6,4.6c2.6,3.5,5.3,8,7.6,13.3
				c2.3,5.3,4.1,11.4,5.3,17.6c0.6,3.1,1.1,6.2,1.5,9.3c0.4,3,0.7,6,0.9,8.8c0.5,5.7,0.9,10.8,1.3,15.1c0.9,8.6,1.9,14.1,1.8,15.5
				c-0.1,1.4-0.8,2.6-2,3.8c-1.2,1-2.8,2-4.9,2.9c-4.1,2.2-9.7,3.6-16,3.7c-6.3,0.1-11.9-1.1-16.1-3.2c-2-1.2-3.7-2.8-4.8-4.6
				c-1.1-1.6-1.7-3.5-1.5-5.4c0.1-1.9,2.1-9.4,5.6-18.3c1.7-4.4,3.8-9.2,5.8-14c2-4.8,4-9.6,5.6-14.4c1.6-4.8,2.7-9.6,3.2-14.3
				c0.5-4.7,0.4-9.2-0.1-13.2c-0.2-2-0.5-3.8-0.8-5.4c-0.3-1.6-0.7-3-0.9-4.2C208.4,622.8,208.1,621.5,208.1,621.5z"/>
		</g>
	</g>
</g>
<g>
	<g>
		<g>
			<path class="st20" d="M240.6,569.1c0,0-0.4,1.6-1.2,4.3c-0.8,2.7-2,6.7-3.5,11.3c-1.5,4.6-3.3,10.1-5.3,16
				c-1.9,5.8-3.7,12-5.1,18c-1.3,6-2,11.9-1.8,16.9c0.1,2.5,0.4,4.7,0.9,6.7c0.3,1,0.5,1.9,0.8,2.8c0.1,0.4,0.3,0.8,0.4,1.3
				c0.2,0.4,0.4,0.8,0.5,1.2c1.4,3,3,5.2,4.3,6.9c1.3,1.7,2.4,2.8,2.6,3.3c0.3,0.5,0.5,1.1,0.5,1.8c0,0.6,0,1.5-0.2,2.1
				c-0.2,0.7-0.5,1.5-0.9,2.4c-0.4,0.9-1,1.7-1.3,3c-1.6,4.5-5.1,9.3-10,13.2c-4.9,3.9-10.3,6.2-15.1,6.7c-1.1,0.2-2.5-0.1-3.7-0.4
				c-1.3-0.4-2.5-0.9-3.6-1.5c-1.2-0.7-2.1-1.4-3-2.3c-0.9-0.9-1.7-1.9-2.3-3.1c-0.6-1.2-2-4.3-3.2-9.1c-1.2-4.8-2.3-11.5-2-19
				c0-0.9,0.1-1.9,0.2-2.8c0.1-0.9,0.2-1.9,0.3-2.9c0.2-1.9,0.7-3.9,1-5.8c0.9-3.8,2.1-7.7,3.7-11.3c3-7.3,7.2-13.8,11.5-19.6
				c4.3-5.8,8.9-10.9,13.1-15.5c4.3-4.6,8.2-8.7,11.6-12.3c3.3-3.6,6-6.6,7.9-8.7C239.5,570.3,240.6,569.1,240.6,569.1z"/>
		</g>
	</g>
</g>
<g>
	<g>
		<g>
			<path class="st21" d="M250.5,447.8c0,0,0.5,3.5,1.3,9.6c0.3,3.1,0.6,6.8,0.9,11.2c0.2,4.3,0.5,9.3,0.4,14.6
				c0,10.8-0.6,23.4-1.6,36.8c-1,13.4-2.1,27.7-2.3,41.7l0,2.6l0,2.6l0.1,5.2c0.1,3.4,0.4,6.8,0.5,10.2c0.2,1.6,0.4,3.2,0.5,4.8
				l0.3,2.4l0.1,1.2c0,0.4,0.1,0.9,0.2,1.3c0.3,1.8,0.5,3.5,0.8,5.3c0.1,0.9,0.3,1.7,0.4,2.6l0.1,0.7l0,0.1c0,0.1-0.1-0.8,0-0.4
				l0,0.1l0.1,0.3l0.2,1.1c2.6,11.8,7.1,23.5,11.1,34.6c2,5.5,3.9,10.9,5.5,16.1c1.6,5.1,2.9,10,3.8,14.4c1.9,8.8,2.4,15.6,2.3,18.3
				c0,5.4-1.1,10.7-3,15.3c-2,4.6-4.6,8.4-7.7,11.1c-0.8,0.7-1.5,1.2-2.3,1.9c-0.8,0.6-1.7,1.1-2.5,1.6c-0.8,0.4-1.6,0.8-2.4,1.1
				c-0.8,0.2-1.6,0.3-2.3,0.4c-3.1,0.3-6.2-0.1-9-1.4c-5.8-2.4-9-8.8-11.8-13.3c-1.2-2.6-2.4-5.3-3-8c-0.7-2.7-1.1-5.5-1.1-8.6
				c0-1.6,0.4-5.5,0.1-12c-0.2-3.2-0.5-7.1-1.1-11.7c-0.6-4.5-1.4-9.7-2.3-15.4c-0.9-5.7-2-12-3-18.9c-0.9-6.9-1.8-14.3-1.9-22.2
				l0-1.5l0-0.4l0-0.2c0,0.4,0-0.6,0-0.6l0-0.1l0-0.7c0-0.9,0.1-1.8,0.1-2.6c0.1-1.8,0.1-3.5,0.2-5.3c0-0.5,0-0.9,0.1-1.4l0.1-1.5
				c0.1-1,0.2-2,0.2-3c0.2-2,0.3-4,0.5-6c0.5-3.8,1-7.6,1.6-11.4l1-5.6l0.5-2.8l0.6-2.8c3.1-14.7,7.1-28.7,10.7-41.6
				c7.4-26.6,10.8-45.7,8.7-35.1c1.1-5.1,1.8-9.9,2.5-14.1c0.5-4.2,1-7.9,1.3-11C250.3,451.2,250.5,447.8,250.5,447.8z"/>
		</g>
	</g>
</g>
<g>
	<g>
		<g>
			<path class="st22" d="M134.1,261.1c0,0,0,1.8,0,5.2c0.1,3.4-0.1,8.4-0.4,14.8c-0.2,3.2-0.3,6.7-0.7,10.6c-0.2,1.9-0.3,3.9-0.5,6
				c-0.2,2.1-0.4,4.2-0.7,6.4c-0.9,8.9-2.2,18.9-3.8,29.8c-1.5,10.9-3.3,22.7-4.8,35.2c-0.4,3.1-0.7,6.3-1.1,9.5
				c-0.3,3.2-0.6,6.4-0.9,9.7c-0.2,3.3-0.5,6.5-0.7,9.9c-0.1,1.7-0.2,3.4-0.3,5.1l-0.1,1.3l0,0.6l0,0.3l0,0.2c0-0.1,0,0.4,0-0.1
				c0,0.9,0,1.7,0,2.6c-0.2,27.4,1.5,56.8,5.5,86c1.1,7.3,2,14.7,3.4,21.8c0.6,3.6,1.2,7.2,1.9,10.8c0.7,3.7,1.5,7.4,2.2,11
				c2.7,13.9,6.8,27.4,11.6,40.3c9.5,25.8,21.9,48.9,34.8,67.4c12.9,18.5,26.2,32.3,37.1,41.2c1.3,1.2,2.7,2.2,4,3.1
				c1.3,1,2.5,1.9,3.7,2.8c2.4,1.6,4.5,3.1,6.4,4.4c1.9,1.2,3.6,2.2,5,3.1c1.4,0.9,2.5,1.4,3.3,1.9c0.8,0.5,1.6,0.9,2.4,1.4l1.2,0.7
				l1.2,0.6c1.6,0.9,3.1,1.7,4.6,2.7c1.5,0.8,3,1.6,4.4,2.5c0.7,0.4,1.4,0.9,2.1,1.3c0.7,0.4,1.4,0.7,2.1,1.1
				c1.4,0.7,2.8,1.6,4.1,2.4c1.4,0.7,2.7,1.4,4,2.2c0.6,0.4,1.3,0.8,1.9,1.1c0.6,0.3,1.3,0.7,1.9,1c1.2,0.7,2.4,1.4,3.6,2.1
				c1.2,0.8,2.2,1.3,3.2,2c1,0.7,2,1.3,2.9,2.1c1.7,1.5,3.9,2.7,5.4,4.1c3.2,2.8,4.9,5.8,4.8,8.9c-0.1,3.1-1.9,6.1-5.2,8.7
				c-1.7,1.3-3.5,2.6-6.4,3.5c-1.4,0.5-2.9,0.9-4.5,1.3c-1.6,0.4-3.4,0.8-5,1c-1.7,0.2-3.5,0.4-5.4,0.5c-0.9,0.1-1.9,0.1-2.9,0.2
				c-1,0-2,0-3-0.1c-2-0.1-4.1-0.2-6.3-0.4c-2.2-0.2-4.3-0.7-6.6-1.1c-1.1-0.2-2.2-0.5-3.4-0.7c-1.1-0.3-2.2-0.6-3.4-1
				c-2.3-0.7-4.6-1.4-6.9-2.3c-2.3-0.9-4.6-1.9-6.9-3c-0.6-0.3-1.2-0.5-1.7-0.8c-0.6-0.3-1.1-0.6-1.7-0.9c-1.1-0.6-2.2-1.3-3.4-1.9
				c-1.1-0.7-2.7-1.5-4.5-2.8c-1.8-1.3-4-2.8-6.5-4.5c-2.5-1.8-5.1-4-8.1-6.4c-1.4-1.3-2.9-2.6-4.5-4c-1.6-1.4-3.2-2.8-4.8-4.4
				c-13-12.5-26.3-21.9-39.1-44.4c-12.9-22.5-25.5-57.9-33.3-87.1c-3.9-14.6-7-29.9-8.6-45.5c-0.4-3.7-0.8-7.4-1.2-11.2
				c-0.4-3.8-0.6-7.7-0.9-11.5c-0.7-7.7-1-15.4-1.4-23c-1.3-30.6-0.2-60.9,2.7-88.8c0.1-0.9,0.2-1.7,0.3-2.6c0.1-0.6,0-0.3,0-0.4
				l0-0.2l0-0.3l0.1-0.6l0.2-1.3c0.3-1.7,0.5-3.4,0.8-5.1c0.5-3.4,1.2-6.8,1.8-10.2c0.6-3.3,1.3-6.6,1.9-9.8c0.7-3.2,1.4-6.4,2-9.5
				c2.8-12.4,5.7-24,8.2-34.7c2.6-10.7,4.8-20.4,6.6-29.1c0.4-2.2,0.9-4.3,1.3-6.3c0.4-2,0.7-4,1.1-5.9c0.7-3.8,1.2-7.2,1.7-10.4
				c0.9-6.3,1.5-11.2,1.8-14.6C133.9,262.9,134.1,261.1,134.1,261.1z"/>
		</g>
	</g>
</g>
<g>
	<g>
		<g>
			<path class="st23" d="M216.1,313.6c0,0,5.6,97.3,11.3,198.3c0.4,6.3,0.7,12.8,0.9,19.3c0.2,6.6,0.2,13.2-0.3,20
				c-0.8,13.5-3.4,27.6-8.7,40.7c-0.3,0.8-0.6,1.6-1,2.5l-1.2,2.5l-1.2,2.5c-0.4,0.8-0.8,1.8-1.2,2.4c-0.7,1.3-1.4,2.6-2.1,4l-0.5,1
				l-0.1,0.2l-0.5,0.9l-0.3,0.5l-1.2,2c-3.3,5.4-6.7,10.4-10,15.3c-6.6,9.6-12.8,18.3-17.8,26.3c-5.1,8-8.9,15.3-11.4,21.8
				c-0.2,0.4-0.3,0.8-0.5,1.2c-0.1,0.2-0.2,0.4-0.2,0.6l-0.2,0.5c-0.2,0.7-0.4,1.3-0.7,2c-0.1,0.3-0.2,0.7-0.3,1
				c-0.1,0.1-0.1,0.4-0.2,0.6l-0.2,0.7c-0.3,1-0.5,1.9-0.8,2.8c-0.1,0.5-0.3,0.9-0.4,1.4l0,0.2c0-0.1-0.4,1.2-0.2,0.7l0,0.1
				l-0.1,0.3l-0.1,0.5c-0.2,0.7-0.4,1.4-0.5,2c-0.4,1.3-0.6,2.6-0.8,3.9c-0.1,0.6-0.3,1.2-0.4,1.9c-0.1,0.6-0.2,1.2-0.2,1.8
				c-0.2,1.2-0.3,2.3-0.4,3.4c-0.1,1.1-0.2,2.2-0.3,3.2c0,1-0.1,2-0.1,2.9c-0.1,1.8,0,3.4-0.1,4.7c0,1.3,0,2.4,0,3.2
				c0,6.2-0.1,12.4-0.5,18.3c-0.4,5.9-1.1,11.6-2.3,16.6c-2.3,10-6.5,17.2-12.6,18.4c-6.1,1.2-12.9-3.3-18.9-12.6
				c-2.9-4.6-5.6-10.4-7.7-17.3c-2-6.9-3.3-14.8-3.4-23.5c0-1.1,0-2.6,0.1-4.5c0.1-1.9,0.2-4.2,0.6-6.9c0.2-1.3,0.3-2.8,0.5-4.3
				c0.3-1.5,0.5-3.1,0.8-4.8c0.3-1.7,0.7-3.5,1.1-5.3c0.2-0.9,0.4-1.9,0.7-2.8c0.2-1,0.6-2,0.8-3c0.6-2,1.2-4.1,2-6.2
				c0.4-1.1,0.8-2.1,1.2-3.2l0.3-0.8l0.2-0.4l0-0.1c0.2-0.6-0.2,0.7-0.2,0.5l0.1-0.2c0.2-0.4,0.3-0.9,0.5-1.3
				c0.4-0.9,0.7-1.8,1.1-2.7l0.3-0.7c0.1-0.2,0.2-0.4,0.3-0.8c0.3-0.6,0.5-1.2,0.8-1.9c0.6-1.2,1.1-2.5,1.7-3.8l0.4-1
				c0.1-0.3,0.3-0.6,0.4-0.9c0.3-0.6,0.6-1.1,0.9-1.7c4.7-9.1,10.8-18.2,17.6-26.7c6.8-8.6,14.1-16.9,21.3-25.2
				c3.6-4.2,7.1-8.4,10.5-12.8l1.3-1.6l0.3-0.4l0.1-0.1c0.4-0.6-0.4,0.7-0.3,0.5l0.2-0.2l0.6-0.9c0.8-1.2,1.7-2.5,2.5-3.7
				c0.5-0.7,0.7-1.1,1-1.6l0.9-1.5l0.9-1.5c0.3-0.5,0.6-1.1,0.9-1.7c4.9-9,8.2-19.4,10.1-30.8c1-5.7,1.7-11.6,2.2-17.7
				c0.5-6.1,0.9-12.3,1.2-18.6C210.6,410.9,216.1,313.6,216.1,313.6z"/>
		</g>
	</g>
</g>
</svg>
