<?xml version="1.0" encoding="utf-8"?>
<!-- Generator: Adobe Illustrator 17.0.0, SVG Export Plug-In . SVG Version: 6.00 Build 0)  -->
<!DOCTYPE svg PUBLIC "-//W3C//DTD SVG 1.1//EN" "http://www.w3.org/Graphics/SVG/1.1/DTD/svg11.dtd">
<svg version="1.1" id="Слой_1" xmlns="http://www.w3.org/2000/svg" xmlns:xlink="http://www.w3.org/1999/xlink" x="0px" y="0px"
	 width="600px" height="600px" viewBox="0 0 600 600" enable-background="new 0 0 600 600" xml:space="preserve">
<g>
	<g>
		<path fill="#7FDCFF" d="M573.554,479.001c-100,43.333-53.333-36.667-83.333-40.667c-91.432-12.191-2,18-42.667,56
			s-68.667-10-68.667-10c-0.943,21.695-110,54-63.333,7.333s-84-84.667-84-84.667c-56.667,20.667,51.333,63.334,5.333,82.667
			c-114.031,47.926-76-68-76.667-68.667s-64.667-29.334-88.667-6.667s25.333,42,5.334,61.333c-86.547,83.662-84.667-156,15.333-120
			c52.6,18.936,77.164-4.183,88.438-40.735c1.552-5.03,2.852-10.314,3.938-15.778s1.959-11.108,2.658-16.857
			c3.177-26.15,2.738-54.477,2.299-77.963c-1.277-68.34,111.333-164.667,256-94S574.886,415,465.553,355
			s-76.767,46.048,9.333,40.667C634.886,385.667,573.553,479,573.554,479.001z"/>
		<path fill="#30CBFF" d="M44.553,378.332c-31.334,48,27.333,67.334,17.333,90.667c-2.562,5.978-7.355,14.627-11.746,23.444
			c7.464-2.098,16.048-7.402,25.746-16.777c20-19.333-29.333-38.667-5.333-61.333s88,6,88.666,6.667
			c0.341,0.341-9.429,30.803-3.829,54.098c20.49-10.993,42.945-23.082,65.807-35.642c-9.63-12.404-13.309-24.19,9.356-32.456
			c0,0,13.275,3.861,29.851,10.633c79.83-45.107,153.728-91.596,154.816-112.632c2-38.667-6.91-208.78-6.91-208.783
			c-48.038-13.951-90.479-7.294-124.811,8.426c-55.441,51.312-42.925,74.482-39.613,94.356c3.334,20,54.667,64.667-66.666,153.333
			C55.886,441,75.887,330.332,44.553,378.332z"/>
		<g>
			<path fill="#006C8A" d="M540.172,223.997c-10.611,16.576-10.843,69.09-50.286,93.67c-18.608,11.596-33.396,20.901-42.514,28.71
				c5.287,2.379,11.005,5.234,17.181,8.623C535.889,394.148,567.202,308.137,540.172,223.997z"/>
			<path fill="#46B6FF" d="M232.963,490.872c0.964-0.391,1.936-0.79,2.923-1.205c46-19.334-62-62-5.333-82.667
				c0,0,0.021,0.006,0.053,0.015c0.008,0.002,0.007,0.002,0.017,0.005c0.001,0,0.003,0.001,0.004,0.001
				c0.095,0.028,0.285,0.084,0.567,0.169c0.003,0.001,0.005,0.001,0.007,0.002c0.01,0.003,0.021,0.006,0.031,0.009
				c0.004,0.001,0.009,0.003,0.013,0.004c0.085,0.026,0.178,0.054,0.278,0.084c0.004,0.001,0.007,0.002,0.011,0.003
				c0.022,0.006,0.042,0.012,0.064,0.019c0.001,0,0.003,0.001,0.004,0.001c0.119,0.036,0.245,0.075,0.384,0.117
				c0.015,0.004,0.029,0.008,0.044,0.013c0.14,0.043,0.292,0.09,0.451,0.139c0.002,0.001,0.003,0.001,0.005,0.002
				c0.008,0.003,0.016,0.005,0.024,0.008c0.174,0.054,0.361,0.112,0.557,0.173c0.02,0.006,0.041,0.012,0.062,0.019
				c0.005,0.002,0.011,0.003,0.016,0.005c0.393,0.122,0.828,0.259,1.301,0.41c0.001,0,0.002,0.001,0.003,0.001
				c0.003,0.002,0.007,0.003,0.011,0.004c0.237,0.075,0.484,0.154,0.74,0.236c0.007,0.002,0.012,0.004,0.019,0.006
				c0.012,0.004,0.024,0.008,0.036,0.012h0.001c1.334,0.429,2.92,0.95,4.717,1.558c0.026,0.009,0.053,0.018,0.079,0.027
				c0.573,0.194,1.168,0.397,1.783,0.609c0.033,0.011,0.066,0.022,0.099,0.034c0.619,0.213,1.258,0.436,1.916,0.667
				c0.027,0.009,0.054,0.018,0.081,0.028c1.373,0.483,2.826,1.003,4.348,1.56c0.006,0.003,0.012,0.005,0.018,0.007
				c0.751,0.275,1.519,0.559,2.301,0.851c0.029,0.011,0.059,0.022,0.088,0.033c0.769,0.288,1.552,0.584,2.349,0.888
				c0.031,0.011,0.062,0.023,0.093,0.035c0.817,0.312,1.647,0.633,2.489,0.962c0.001,0,0.002,0.001,0.003,0.001
				c2.563,1.002,5.237,2.083,7.982,3.238c0.02,0.008,0.039,0.016,0.058,0.024c0.903,0.381,1.814,0.769,2.731,1.166
				c0.008,0.003,0.017,0.007,0.026,0.011c16.779,7.258,35.568,17.172,47.144,28.865c48.471-17.686,107.849-23.648,137.484-54.575
				c-1.039-0.181-2.066-0.38-3.081-0.594c-0.001-0.001-0.002-0.001-0.003-0.001c-0.017-0.003-0.033-0.007-0.05-0.01
				c-1.035-0.218-2.056-0.454-3.065-0.704c-0.051-0.012-0.102-0.024-0.153-0.037l0,0c-1.952-0.487-3.855-1.03-5.709-1.626l0,0
				c-0.087-0.028-0.174-0.057-0.261-0.085h-0.001c-4.707-1.529-9.093-3.391-13.126-5.495l0,0c-0.004-0.002-0.009-0.005-0.013-0.007
				c-0.856-0.446-1.696-0.903-2.519-1.37c-0.022-0.013-0.045-0.026-0.067-0.039c-0.001,0-0.001-0.001-0.002-0.001
				c-3.907-2.223-7.451-4.669-10.601-7.246c0-0.001-0.001-0.001-0.001-0.001c-0.039-0.032-0.077-0.064-0.116-0.096
				c-1.234-1.014-2.408-2.047-3.518-3.095l0,0c-0.009-0.008-0.018-0.017-0.027-0.025c-0.542-0.512-1.068-1.028-1.58-1.547l0,0
				c-0.039-0.04-0.079-0.08-0.119-0.12c-1.045-1.064-2.027-2.139-2.942-3.219c-0.001-0.001-0.001-0.001-0.001-0.001
				c-0.041-0.05-0.082-0.099-0.123-0.148l0,0c-0.438-0.521-0.863-1.042-1.27-1.564c-0.001,0-0.001-0.001-0.001-0.001
				c-0.01-0.014-0.02-0.027-0.031-0.041c0-0.001-0.001-0.001-0.001-0.002c-0.42-0.539-0.823-1.08-1.21-1.62
				c-0.001-0.001-0.002-0.001-0.002-0.002c-0.003-0.004-0.007-0.009-0.01-0.014c-0.376-0.526-0.734-1.052-1.078-1.577v-0.001
				c-0.033-0.051-0.067-0.101-0.1-0.152c0-0.001,0-0.001,0-0.001c-0.692-1.067-1.317-2.129-1.874-3.182l0,0
				c-0.006-0.012-0.013-0.025-0.019-0.037c-0.301-0.57-0.583-1.138-0.843-1.702c-0.007-0.016-0.014-0.031-0.021-0.047l-0.001-0.001
				c-0.473-1.029-0.877-2.046-1.212-3.045v-0.001c-0.015-0.045-0.032-0.091-0.047-0.137c0-0.001,0-0.001,0-0.001
				c-0.156-0.473-0.294-0.941-0.418-1.405l0,0c-0.018-0.066-0.036-0.132-0.053-0.198l0,0c-0.117-0.455-0.219-0.905-0.306-1.35l0,0
				c-0.009-0.046-0.018-0.093-0.026-0.139c-0.088-0.468-0.161-0.932-0.214-1.388l0,0c-0.003-0.026-0.006-0.051-0.008-0.076
				c-0.054-0.483-0.091-0.96-0.106-1.428c0-0.002,0-0.003,0-0.005l0,0c-0.043-1.383,0.091-2.696,0.402-3.922v-0.001
				c0.007-0.03,0.015-0.059,0.023-0.088c0.104-0.398,0.226-0.788,0.369-1.167l0,0c0.009-0.022,0.018-0.044,0.027-0.066
				c0.148-0.387,0.314-0.764,0.504-1.129l0,0c0.005-0.009,0.01-0.017,0.015-0.026c0.185-0.352,0.39-0.693,0.614-1.024l0,0
				c0.015-0.023,0.029-0.047,0.045-0.07l0,0c0.215-0.312,0.452-0.612,0.703-0.904l0,0c0.032-0.037,0.063-0.074,0.095-0.111
				c0.253-0.285,0.524-0.559,0.812-0.823l0,0c0.049-0.044,0.098-0.089,0.148-0.133c0.328-0.289,0.677-0.564,1.049-0.824
				c0.008-0.006,0.017-0.012,0.025-0.018l0,0c0.333-0.233,0.682-0.455,1.051-0.663l0,0c0.039-0.022,0.081-0.042,0.12-0.064l0,0
				c0.381-0.209,0.779-0.407,1.198-0.59h0.001c0.017-0.008,0.033-0.016,0.051-0.024l0,0c0.423-0.182,0.868-0.347,1.329-0.501l0,0
				c0.026-0.009,0.053-0.018,0.079-0.027c0.481-0.158,0.983-0.3,1.506-0.426l0,0c0.039-0.01,0.078-0.019,0.117-0.028
				c1.1-0.259,2.29-0.449,3.576-0.559l0,0c0.076-0.007,0.156-0.011,0.233-0.017l0,0c1.215-0.095,2.513-0.122,3.895-0.075h0.001
				c0.076,0.002,0.149,0.003,0.225,0.006c0.666,0.027,1.354,0.073,2.059,0.133h0.001c0.082,0.007,0.165,0.014,0.247,0.021
				c0.728,0.066,1.476,0.151,2.245,0.254c0.001,0,0.001,0,0.001,0c0.132,0.018,0.266,0.037,0.4,0.056l0,0
				c0.778,0.111,1.575,0.239,2.395,0.388c0.082,0.015,0.163,0.031,0.245,0.046c0,0,0,0,0.001,0c1.684,0.313,3.454,0.707,5.316,1.19
				c0.001,0.001,0.002,0.001,0.003,0.001c0.079,0.021,0.157,0.039,0.237,0.06l0,0c0.933,0.245,1.893,0.516,2.872,0.806
				c0.108,0.032,0.215,0.063,0.323,0.095h0.001c0.917,0.274,1.856,0.57,2.813,0.885l0,0c0.172,0.056,0.344,0.113,0.517,0.171h0.001
				c2.111,0.705,4.315,1.504,6.619,2.409h0.001c0.102,0.04,0.207,0.083,0.31,0.124h0.001c2.268,0.897,4.631,1.895,7.088,2.995h0.001
				c0.161,0.072,0.32,0.142,0.482,0.215l0,0c1.241,0.559,2.509,1.149,3.798,1.762c0.124,0.059,0.249,0.118,0.374,0.178
				c0.001,0,0.002,0.001,0.002,0.001c1.248,0.597,2.519,1.219,3.813,1.867c0.157,0.079,0.315,0.158,0.472,0.237
				c0.001,0,0.002,0.001,0.003,0.001c1.269,0.639,2.556,1.298,3.869,1.987c0.001,0,0.001,0.001,0.002,0.001
				c0.09,0.048,0.18,0.096,0.271,0.144c1.455,0.766,2.932,1.557,4.441,2.385c0.736,0.403,1.466,0.788,2.193,1.165
				c0.702,0.362,1.399,0.712,2.094,1.052c1.541-10.726,1.139-23.118-1.62-37.551c-20.082-105.046-29.026-183.429-32.058-213.675
				h-0.001c-4.55-1.989-9.058-3.791-13.521-5.414c-0.026-0.009-0.051-0.019-0.077-0.028c-1.048-0.38-2.093-0.749-3.136-1.11
				c-0.078-0.027-0.157-0.056-0.236-0.083c-0.989-0.341-1.974-0.67-2.958-0.993c-0.129-0.043-0.259-0.088-0.388-0.13
				c-0.955-0.312-1.908-0.612-2.859-0.908c-0.152-0.047-0.304-0.097-0.456-0.144c-1.076-0.331-2.149-0.652-3.219-0.963
				c-0.019-0.006-0.037-0.012-0.056-0.017c-22.494,8.75-50.799,35.691-45.035,116.799c2.292,32.257-14.667,54-22,108
				s-79.333,72-121.333,61.333c-41.844-10.627-26.503,86.217-66.228,77.422c0.218,21.573,8.09,43.676,40.675,41.348l0,0
				c1.324-0.095,2.69-0.231,4.097-0.408c0.002,0,0.005-0.001,0.007-0.001c0.123-0.015,0.248-0.033,0.371-0.049
				c0.561-0.073,1.129-0.152,1.704-0.239c0.058-0.009,0.117-0.018,0.176-0.027c0.111-0.017,0.222-0.034,0.333-0.051
				c0.554-0.086,1.115-0.18,1.682-0.279c0.055-0.01,0.111-0.019,0.166-0.029c0.115-0.02,0.228-0.039,0.343-0.06
				c0.639-0.116,1.285-0.24,1.94-0.371c0.084-0.017,0.166-0.032,0.25-0.049c0.005-0.001,0.009-0.002,0.014-0.003
				c1.515-0.309,3.072-0.661,4.672-1.057c0.192-0.048,0.388-0.099,0.582-0.148c0.594-0.15,1.192-0.305,1.798-0.467
				c0.25-0.067,0.502-0.136,0.754-0.205c0.572-0.157,1.149-0.319,1.731-0.487c0.115-0.033,0.23-0.066,0.346-0.1
				c0.144-0.041,0.287-0.082,0.432-0.125c0.628-0.185,1.265-0.378,1.906-0.576c0.21-0.065,0.418-0.127,0.629-0.193
				c0.863-0.27,1.735-0.55,2.62-0.843c0.023-0.008,0.048-0.016,0.071-0.024c0.844-0.28,1.699-0.572,2.563-0.874
				c0.276-0.097,0.557-0.198,0.836-0.297c0.623-0.221,1.249-0.445,1.882-0.677c0.328-0.12,0.66-0.244,0.991-0.367
				c0.602-0.224,1.21-0.454,1.822-0.688c0.343-0.131,0.686-0.262,1.032-0.397c0.644-0.25,1.295-0.508,1.949-0.77
				c0.305-0.122,0.607-0.241,0.914-0.365C232.953,490.875,232.958,490.873,232.963,490.872z"/>
		</g>
		<path fill="#3E90FF" d="M314.553,491.666c-32.848,32.848,11.458,26.569,40.906,12.404c29.242-26.393,61.718-65.939,90.832-110.583
			c-64.139-14.757-78.422-91.545,18.262-38.487c1.363,0.748,2.707,1.438,4.04,2.095c30.243-52.652,54.01-109.057,61.9-157.737
			c-16.8-35.852-44.943-68.998-85.94-89.024c-9.497-4.64-18.818-8.447-27.948-11.513C416.57,98.938,416.553,99,416.553,99
			s-16.667-2.667,18.667,90c15.749,41.306-99.334,77.998-70.667,117.332s-38.666,48-7.333,88.667s-28,45.334-58.667,24.667
			c-7.067-4.763-15.302-2.255-22.911,4.676C308.183,439.828,341.968,464.252,314.553,491.666z"/>
		<path fill="#0871FF" d="M331.872,512.766c20.909-5.525,45.567-18.166,46.013-28.433c0,0,28,48,68.667,10s-48.765-68.191,42.667-56
			c12.563,1.675,11.684,16.676,13.758,30.368c15.311-20.465,29.797-43.764,42.577-68.212c-16.553-4.688-39.685-6.821-71.668-4.822
			C387.786,401.048,355.22,295,464.553,355c95.652,52.492,119.357-120.042,26.921-211.363c-4.971,3.139-26.225,18.79-44.92,66.696
			C425.22,265,381.22,278.333,389.887,317c8.666,38.667-72.667,40-8.667,102.667C414.757,452.505,363.902,492.3,331.872,512.766z"/>
		<path fill="#0060A8" d="M446.553,494.333c40.667-38-48.765-68.191,42.667-56c30,4-16.667,84,83.333,40.667
			c0,0,61.333-93.333-98.667-83.333C387.786,401.048,355.22,295,464.553,355c64.458,35.373,96.238-31.442,81.828-106.729
			c-2.266-8.445-4.217-16.197-5.893-23.294c-6.12-19.379-15.333-38.682-27.858-56.364c-16.616,13.969-39.617,40.775-45.41,85.053
			c-9.333,71.333-22.667,53.333-72,84c-49.334,30.667,43.333,54.667,37.333,82.667s12,78.667-32,74.667
			c-5.343-0.486-9.646,0.008-13.018,1.24C399.057,507.407,420.129,519.025,446.553,494.333z"/>
		<path fill="#476385" d="M572.553,479c0,0,53.89-82.007-71.137-84.044C526.611,405.639,550.553,411,554.553,429
			c10.14,45.63-29.22,34.963-46.063,55.324C519.22,501,555.22,495.667,572.553,479z"/>
		<path fill="#466AFF" d="M203.034,499.993c0.059-0.01,0.118-0.02,0.178-0.031c0.639-0.116,1.287-0.239,1.942-0.371
			c0.088-0.018,0.175-0.034,0.264-0.052c1.515-0.308,3.073-0.661,4.673-1.057c0.192-0.047,0.387-0.098,0.58-0.147
			c0.595-0.15,1.194-0.306,1.801-0.468c0.25-0.066,0.501-0.135,0.752-0.204c0.572-0.156,1.15-0.319,1.733-0.487
			c0.259-0.075,0.516-0.148,0.777-0.225c0.628-0.185,1.265-0.378,1.906-0.576c0.21-0.065,0.418-0.127,0.629-0.193
			c0.863-0.27,1.735-0.55,2.62-0.843c0.02-0.007,0.041-0.014,0.061-0.021c0.847-0.281,1.706-0.575,2.573-0.878
			c0.274-0.096,0.553-0.197,0.83-0.295c0.624-0.221,1.252-0.447,1.887-0.679c0.328-0.12,0.66-0.244,0.991-0.367
			c0.603-0.225,1.211-0.454,1.824-0.689c0.342-0.132,0.685-0.263,1.03-0.397c0.644-0.25,1.295-0.508,1.949-0.77
			c0.31-0.124,0.617-0.244,0.93-0.371c0.964-0.391,1.936-0.79,2.923-1.205c5.663-2.38,8.989-5.115,10.578-8.118
			c0.375-1.088,0.726-2.176,1.057-3.262c1.42-10.264-13.084-23.019-23.557-35.424c-7.064,12.549,5.965,21.297-2.745,38.137
			C218.098,487.035,210.495,493.784,203.034,499.993z"/>
		<path fill="#009EC3" d="M235.886,489.667c46-19.334-62-62-5.333-82.667c0,0,5.965,1.735,14.887,4.917
			c-1.224-2.134-2.814-3.88-4.887-4.917c-10.667-5.333-38-12.666-40,6.667s21.333,34.667-2.667,48
			c-13.383,7.435-30.284,17.149-37.538,25.561C169.782,502.039,191.109,508.486,235.886,489.667z"/>
	</g>
	<path fill="#210046" stroke="#210046" stroke-miterlimit="10" d="M271.216,162.131c13.091-2.242,18.258-14.587,4.783-10.131
		c-13.476,4.456-56.163-3.993-56.163-3.993C223.015,154.089,258.125,164.372,271.216,162.131z"/>
	<path fill="#210046" stroke="#210046" stroke-miterlimit="10" d="M326.179,168.087c-14.93-2.557-20.823-16.636-5.455-11.554
		s64.051-4.554,64.051-4.554C381.15,158.914,341.108,170.643,326.179,168.087z"/>
	<path fill="#210046" d="M290.403,290.074c-12.188-21.915-27.79-12.168-31.917-16.928c-0.146-0.168-14.88,5.614-5.357,16.806
		C257.602,295.21,299.023,305.577,290.403,290.074z"/>
	<g>
		<path fill="#210046" d="M259.895,225.744c6.05-32.029-11.032-44.485-11.032-44.485c-7.473-11.744-69.351,5.915-22.064,51.958
			c13.523,13.168,23.844-7.117,20.641,4.271C247.44,237.488,257.492,238.473,259.895,225.744z"/>
		<g>
			<path fill="#210046" d="M212.92,197.638c-0.259-0.047,0.333-4.938,0-5c-2.031-0.373-3.542-1.454-4.626-3.203
				c0.047,0.076-0.018,0.693-0.018,0.732c-0.006,0.589-0.007,1.179-0.007,1.768s0.001,1.179,0.007,1.768
				c0.001,0.079-0.049,0.624,0.018,0.732C209.377,196.184,210.889,197.265,212.92,197.638L212.92,197.638z"/>
			<path fill="#210046" d="M211.853,198.706c0.22-0.024-0.146-4.984,0-5c-4.989,0.554-9.099-2.446-10.676-7.118
				c0.501,1.484-0.509,3.493,0,5C202.753,196.26,206.864,199.26,211.853,198.706L211.853,198.706z"/>
			<path fill="#210046" d="M213.988,201.553c0.383-0.084-0.311-4.932,0-5c-6.17,1.349-14.561-0.905-16.726-7.473
				c0.491,1.491-0.499,3.486,0,5C199.426,200.648,207.818,202.901,213.988,201.553L213.988,201.553z"/>
		</g>
		<path fill="#BDE7FF" d="M251.711,196.206c-2.136-16.37-15.659-5.338-15.659-5.338C220.75,214.356,253.846,212.576,251.711,196.206
			z"/>
		<path fill="#DEF6FF" d="M231.6,228.239c3.438,2.22,8.265,0.717,10.265-2.688c1.015-1.732,1.288-3.843,0.756-5.779
			c-0.535-1.942-1.781-3.406-3.447-4.482c-3.059-1.975-7.206-1.269-9.747,1.189c-1.657,1.603-2.524,3.933-2.548,6.215
			c-0.052,4.967,4.252,9.368,9.304,9.115c1.71-0.086,3.082-0.351,4.581-1.197c1.198-0.676,2.443-1.865,3.093-3.09
			c1.504-2.837,1.363-5.905-0.114-8.706c-0.738-1.4-2.308-3.095-3.755-3.794c-1.535-0.741-2.635-1.184-4.375-1.192
			c-1.821-0.009-2.668,0.408-4.278,1.126c-1.682,0.75-2.979,2.78-3.447,4.482c-0.533,1.936-0.259,4.047,0.756,5.779
			c0.982,1.677,2.607,2.931,4.482,3.447c1.33,0.357,2.659,0.357,3.988,0c0.598-0.252,1.195-0.504,1.792-0.756
			c0.026-0.011,0.053-0.023,0.079-0.035c-0.598,0.252-1.195,0.504-1.792,0.756c0.082-0.028,0.159-0.047,0.245-0.061
			c-0.665,0.089-1.329,0.179-1.994,0.268c0.086-0.006,0.166-0.006,0.252,0.001c-0.665-0.089-1.329-0.179-1.994-0.268
			c0.148,0.022,0.284,0.063,0.422,0.121c-0.598-0.252-1.195-0.504-1.792-0.756c0.144,0.069,0.275,0.15,0.403,0.244
			c-0.506-0.391-1.012-0.782-1.518-1.173c0.182,0.145,0.341,0.306,0.486,0.488c-0.391-0.506-0.782-1.012-1.173-1.518
			c0.135,0.182,0.247,0.372,0.336,0.581c-0.252-0.598-0.504-1.195-0.756-1.792c0.052,0.139,0.09,0.277,0.112,0.424
			c-0.089-0.665-0.179-1.329-0.268-1.994c0.009,0.109,0.008,0.212-0.006,0.321c0.089-0.665,0.179-1.329,0.268-1.994
			c-0.016,0.077-0.038,0.146-0.068,0.219c0.252-0.598,0.504-1.195,0.756-1.792c-0.022,0.046-0.048,0.09-0.079,0.132
			c0.391-0.506,0.782-1.012,1.173-1.518c-0.053,0.066-0.107,0.119-0.172,0.173c0.506-0.391,1.012-0.782,1.518-1.173
			c-0.078,0.053-0.155,0.095-0.241,0.135c0.598-0.252,1.195-0.504,1.792-0.756c-0.144,0.053-0.285,0.087-0.437,0.111
			c0.665-0.089,1.329-0.179,1.994-0.268c-0.219,0.023-0.433,0.025-0.653,0.005c0.665,0.089,1.329,0.179,1.994,0.268
			c-0.183-0.025-0.353-0.066-0.525-0.132c0.598,0.252,1.195,0.504,1.792,0.756c-0.115-0.053-0.22-0.112-0.324-0.185
			c0.506,0.391,1.012,0.782,1.518,1.173c-0.091-0.073-0.17-0.15-0.246-0.239c0.391,0.506,0.782,1.012,1.173,1.518
			c-0.084-0.111-0.15-0.225-0.206-0.352c0.252,0.598,0.504,1.195,0.756,1.792c-0.048-0.126-0.082-0.25-0.104-0.383
			c0.089,0.665,0.179,1.329,0.268,1.994c-0.019-0.154-0.021-0.304-0.006-0.459c-0.089,0.665-0.179,1.329-0.268,1.994
			c0.02-0.142,0.053-0.277,0.105-0.411c-0.252,0.598-0.504,1.195-0.756,1.792c0.043-0.097,0.092-0.185,0.157-0.269
			c-0.391,0.506-0.782,1.012-1.173,1.518c0.038-0.043,0.076-0.08,0.12-0.116c-0.506,0.391-1.012,0.782-1.518,1.173
			c0.028-0.021,0.058-0.039,0.089-0.054c-0.598,0.252-1.195,0.504-1.792,0.756c0.048-0.021,0.093-0.034,0.145-0.043
			c-0.665,0.089-1.329,0.179-1.994,0.268c0.035-0.004,0.069-0.004,0.104,0c-0.665-0.089-1.329-0.179-1.994-0.268
			c0.059,0.01,0.109,0.025,0.164,0.048c-0.598-0.252-1.195-0.504-1.792-0.756C231.526,228.191,231.564,228.213,231.6,228.239
			L231.6,228.239z"/>
	</g>
	<g>
		<path fill="#210046" d="M301.693,231.384c2.695-32.891,23.08-40.283,23.08-40.283c10.631-9.367,67.391,25.031,7.816,56.76
			c-17.037,9.074-21.786-13.56-21.698-1.573C310.891,246.288,300.623,244.456,301.693,231.384z"/>
		<g>
			<path fill="#210046" d="M356.759,212.111c0.113,0.01-0.188,4.983,0,5c2.113,0.192,3.898-0.422,5.474-1.836
				c0.056-0.05,0.018-0.724,0.018-0.732c0.006-0.589,0.007-1.179,0.007-1.768s-0.001-1.179-0.007-1.768
				c0,0.021-0.048-0.705-0.018-0.732C360.657,211.69,358.873,212.303,356.759,212.111L356.759,212.111z"/>
			<path fill="#210046" d="M357.531,213.448c0.534,0.21-0.6,4.764,0,5c4.79,1.883,9.643,0.205,12.559-3.97
				c0.794-1.137-0.77-3.898,0-5C367.174,213.653,362.321,215.331,357.531,213.448L357.531,213.448z"/>
			<path fill="#210046" d="M354.632,215.629c0.652,0.339-0.712,4.63,0,5c5.744,2.986,14.64,3.223,18.675-2.636
				c0.79-1.148-0.766-3.888,0-5C369.272,218.853,360.376,218.615,354.632,215.629L354.632,215.629z"/>
		</g>
		<path fill="#BDE7FF" d="M317.874,204.876c6.579-15.359,17.032-0.852,17.032-0.852
			C343.741,231.162,311.296,220.234,317.874,204.876z"/>
		<path fill="#DEF6FF" d="M325.17,227.082c-1.884,0.578-3.476,1.729-4.481,3.448c-1.015,1.732-1.288,3.843-0.756,5.779
			c1.06,3.853,5.318,6.437,9.226,5.238c0.056-0.017,0.109-0.03,0.167-0.038c-0.665,0.089-1.329,0.179-1.994,0.268
			c0.051-0.003,0.097-0.002,0.148,0.004c-0.665-0.089-1.329-0.179-1.994-0.268c0.03,0.005,0.059,0.013,0.088,0.024
			c-0.598-0.252-1.195-0.504-1.792-0.756c0.043,0.018,0.079,0.039,0.117,0.065c-0.506-0.391-1.012-0.782-1.518-1.173
			c0.036,0.03,0.067,0.06,0.097,0.096c-0.391-0.506-0.782-1.012-1.173-1.518c0.039,0.054,0.07,0.108,0.098,0.169
			c-0.252-0.598-0.504-1.195-0.756-1.792c0.033,0.086,0.056,0.171,0.071,0.262c-0.089-0.665-0.179-1.329-0.268-1.994
			c0.018,0.143,0.016,0.283-0.001,0.426c0.089-0.665,0.179-1.329,0.268-1.994c-0.024,0.154-0.065,0.3-0.123,0.445
			c0.252-0.598,0.504-1.195,0.756-1.792c-0.057,0.127-0.124,0.244-0.207,0.356c0.391-0.506,0.782-1.012,1.173-1.518
			c-0.075,0.093-0.155,0.175-0.247,0.252c0.506-0.391,1.012-0.782,1.518-1.173c-0.1,0.076-0.203,0.137-0.317,0.19
			c0.598-0.252,1.195-0.504,1.792-0.756c-0.127,0.051-0.254,0.085-0.389,0.108c0.665-0.089,1.329-0.179,1.994-0.268
			c-0.191,0.023-0.374,0.018-0.565-0.006c0.665,0.089,1.329,0.179,1.994,0.268c-0.231-0.039-0.451-0.101-0.669-0.186
			c0.598,0.252,1.195,0.504,1.792,0.756c-0.16-0.071-0.306-0.151-0.445-0.257c0.506,0.391,1.012,0.782,1.518,1.173
			c-0.064-0.056-0.121-0.113-0.176-0.178c0.391,0.506,0.782,1.012,1.173,1.518c-0.045-0.062-0.081-0.122-0.114-0.191
			c0.252,0.598,0.504,1.195,0.756,1.792c-0.025-0.067-0.043-0.13-0.056-0.201c0.089,0.665,0.179,1.329,0.268,1.994
			c-0.007-0.07-0.008-0.136-0.004-0.207c-0.089,0.665-0.179,1.329-0.268,1.994c0.016-0.123,0.049-0.234,0.096-0.349
			c-0.252,0.598-0.504,1.195-0.756,1.792c0.058-0.122,0.126-0.232,0.205-0.34c-0.391,0.506-0.782,1.012-1.173,1.518
			c0.127-0.159,0.269-0.298,0.427-0.427c-0.506,0.391-1.012,0.782-1.518,1.173c0.193-0.146,0.395-0.266,0.616-0.365
			c-0.598,0.252-1.195,0.504-1.792,0.756c0.189-0.077,0.378-0.132,0.58-0.161c-0.665,0.089-1.329,0.179-1.994,0.268
			c0.136-0.013,0.266-0.013,0.402,0.003c-0.665-0.089-1.329-0.179-1.994-0.268c0.103,0.019,0.198,0.046,0.296,0.086
			c-0.598-0.252-1.195-0.504-1.792-0.756c0.071,0.036,0.135,0.073,0.2,0.119c-0.506-0.391-1.012-0.782-1.518-1.173
			c0.02,0.017,0.041,0.034,0.061,0.051c0.936,0.93,2.039,1.573,3.31,1.929c0.665,0.089,1.329,0.179,1.994,0.268
			c1.981,0,3.903-0.797,5.303-2.197s2.197-3.322,2.197-5.303c0-1.819-0.738-4.101-2.197-5.303c-1.171-0.965-2.312-1.899-3.867-2.184
			c-1.686-0.309-2.943-0.428-4.638,0.045c-1.565,0.437-3.594,1.469-4.632,2.769c-1.094,1.37-1.757,2.116-2.239,3.854
			c-0.355,1.279-0.492,3.257-0.008,4.539c0.26,0.688,0.463,1.444,0.895,2.049c1.241,1.736,1.173,1.582,2.867,2.868
			c0.767,0.582,1.753,0.959,2.692,1.158c1.997,0.424,2.799,0.379,4.766,0.047c0.856-0.145,1.75-0.491,2.44-1.011
			c1.447-1.092,2.11-1.515,3.075-3.1c0.437-0.719,0.822-1.525,0.984-2.352c0.156-0.798,0.395-1.706,0.291-2.547
			c-0.179-1.449-0.255-2.933-1.165-4.178c-0.41-0.56-0.762-1.204-1.298-1.652c-1.354-1.13-1.731-1.437-3.426-1.994
			C328.279,226.651,326.446,226.69,325.17,227.082L325.17,227.082z"/>
	</g>
</g>
</svg>
