<?xml version="1.0" encoding="utf-8"?>
<!-- Generator: Adobe Illustrator 17.0.0, SVG Export Plug-In . SVG Version: 6.00 Build 0)  -->
<!DOCTYPE svg PUBLIC "-//W3C//DTD SVG 1.1//EN" "http://www.w3.org/Graphics/SVG/1.1/DTD/svg11.dtd">
<svg version="1.1" id="Слой_1" xmlns="http://www.w3.org/2000/svg" xmlns:xlink="http://www.w3.org/1999/xlink" x="0px" y="0px"
	 width="700px" height="700px" viewBox="0 0 700 700" enable-background="new 0 0 700 700" xml:space="preserve">
<g>
	<path fill="#DE8444" d="M218.606,238.379c-3.766,3.689-7.541,7.451-11.294,11.415c-7.949,8.398-15.137,16.797-21.659,25.164
		c3.967,33.94,10.867,124.092-16.436,194.658c-13.46,34.787-15.968,75.362-17.459,102.86
		c23.995,42.197,66.477,81.131,138.567,99.966C347.764,548.87,281.163,256.984,218.606,238.379z"/>
	<path fill="#F8D84C" d="M528.117,143.865C354.674-88.837,166.107,44.226,93.7,130.225c13.979,5.976,41.688,12.133,65.936,4.534
		c13.796-15.102,30.171-25.803,49.056-27.559c23.283-11.539,43.286-14.218,44.66,12.043c6.019,4.474,22.169,27.681,12.839,49.065
		c-17.163,39.338-35.672,56.968-58.878,81.487c-1.92,2.029-3.784,4.058-5.618,6.086c0.778,2.757,1.668,5.635,2.708,8.678
		c26.603,77.838,90.965,154.003,49.773,194.177s-77.234,113.828-27.461,138.937c32.866,16.58,78.951,63.61,57.497,73.654
		c16.305,2.511,23.17,10.881,103.113,12.973C656.453,691.344,726.231,409.669,528.117,143.865z"/>
	<path fill="#F6CD50" d="M528.117,143.865C438.015,22.979,342.606,1.434,262.467,20.083c22.842,15.592,58.885,44.949,61.219,76.245
		c3.433,46.033,18.879,61.099,52.348,62.773c33.468,1.674,78.951,38.501,90.965,74.49s11.156,126.383,66.078,122.198
		c30.358-2.313,78.542,66.207,105.284,132.344C653.38,389.618,618.823,265.563,528.117,143.865z"/>
	<path fill="#E9B800" d="M528.117,143.865C454.017,44.449,376.33,12.229,306.497,14.29c11.419,17.592,41.977,60.522,72.541,67.809
		c38.617,9.207,96.114,45.196,88.391,61.936c-7.723,16.739,93.54,92.904,110.703,96.252s-1.716,113.828,30.036,126.383
		c17.486,6.914,23.522,33.874,32.294,45.947C633.386,329.786,596.9,236.15,528.117,143.865z"/>
	<path fill="#F0C445" d="M624.084,328.617c-17.904-59.716-49.6-122.543-95.967-184.752C450.547,39.792,369.042,9.349,296.734,14.793
		c30.988,35.349,120.096,32.072,121.779,69.818c1.716,38.501,36.901,111.317,74.66,138.937
		C524.068,246.147,595.751,352.227,624.084,328.617z"/>
	<path fill="#D55C45" d="M185.523,455.389c-10.298-16.739,8.582-86.208,13.731-103.784s-13.6-76.645-13.6-76.645l0,0
		c-3.103,3.981-6.053,7.955-8.857,11.918c-0.691-1.069-1.431-2.079-2.216-3.029c-4.576,4.506-9.749,10.397-15.437,17.674
		c0.011,0.684-0.014,1.413-0.104,2.218c-0.543,4.906-5.311,10.881-11.885,14.103c-8.282,11.9-17.317,26.111-26.869,42.509
		c6.763-0.004,12.03-0.535,19.952-3.394c-15.345,43.438-16.754,82.28-16.396,110.58c0.435,34.381,9.361,79.229,36.853,119.209
		c-1.862-18.697-6.897-38.592-3.493-55.193C164.069,498.074,195.821,472.128,185.523,455.389z"/>
	<path fill="#DE8244" d="M146.973,278.238c-18.102,11.77-6.713,38.305-6.034,33.348c2.212-16.164,19.813-23.293,18.102-7.847
		c-1.408,12.712-31.163,32.619-47.266-6.866c-1.1-2.698-2.036-5.4-2.825-8.115c-23.57,3.524-55.039-26.809-57.342-5.606
		c4.236,29.413,17.465,53.49,40.054,68.648c13.605,9.13,29.933,11.183,44.517,7.389c4.666-1.099,4.184-1.255,9.493-3.452
		c20.737-8.58,31.867-27.636,33.844-34.264C193.246,275.44,157.963,271.092,146.973,278.238z"/>
	<g>
		<path fill="#F2C245" d="M110.434,293.592c-6.548-19.369-5.876-38.544,1.084-63.149c16.091-56.888,63.174-152.966,138.539-110.964
			c5.899,3.287,10.689,8.188,13.881,14.2c0.877-10.286,5.31-25.109-27.182-36.798c-37.558-13.511-73.802,14.229-90.965,21.761
			c-17.163,7.533-28.77-5.147-44.624,5.022c-0.075,0.048-0.179,0.069-0.266,0.099c-9.195,5.007-19.064,22.793-25.586,37.042
			c-19.441,42.475-30.744,95.543-22.162,131.532c5.149,4.185,8.514-14.193,18.837-7.975
			C97.829,299.928,98.789,295.752,110.434,293.592z"/>
	</g>
	<g>
		<path fill="#FFFFFF" d="M404.528,323.672c0,0-20.24-121.628-97.839-29.475S407.17,444.759,404.528,323.672z"/>
		<path fill="#402C28" d="M340.571,264.543c-8.132,10.965-22.519,32.216-20.809,71.482c2.166,49.714,10.231,53.84,16.853,55.107
			c32.617,5.703,74.385-5.952,67.913-67.461C404.528,323.672,390.414,238.861,340.571,264.543z"/>
	</g>
	<g>
		<path fill="#FFFFFF" d="M490.177,322.559c0,0,14.262-123.765,94.313-33.515S493.096,445.109,490.177,322.559z"/>
		<path fill="#402C28" d="M550.018,260.34c8.448,10.78,23.479,31.726,23.591,71.499c0.141,50.355-7.556,54.834-13.973,56.367
			c-31.629,7.004-72.993-3.2-69.459-65.647C490.177,322.559,500.123,236.258,550.018,260.34z"/>
	</g>
	<path fill="#FFFFFF" d="M366.166,309.756c0,0,14.589-19.25,19.738-0.837s-0.858,36.827-9.44,31.805
		S362.733,329.843,366.166,309.756z"/>
	<path fill="#FFFFFF" d="M343.853,354.952c0,0,4.291-11.718,11.156-3.348c6.865,8.37,6.865,12.555,0.858,15.065
		C349.861,369.181,338.704,366.67,343.853,354.952z"/>
	<path fill="#FFFFFF" d="M515.963,315.759c0,0-4.265-28.587,12.543-21.562c16.808,7.026,10.273,30.864,4.133,35.116
		C526.499,333.565,521.505,333.564,515.963,315.759z"/>
	<path fill="#FFFFFF" d="M548.096,347.419c0,0,15.447-0.837,10.298,8.37C553.245,364.996,533.507,362.485,548.096,347.419z"/>
	<path fill="#FFFFFF" d="M402.208,421.245c0,0,82.241,4.291,98.688-8.542C509.478,406.007,469.978,519.38,402.208,421.245z"/>
	<path fill="#402C28" d="M494.89,198.438c0,0,24.887,8.37,30.894,1.674C531.791,193.417,563.542,235.265,494.89,198.438z"/>
	<path fill="#402C28" d="M349.54,197.601c-6.007-6.696-37.759,35.153,30.894-1.674c0,0-22.887,7.697-30.062,2.423
		C350.064,198.125,349.786,197.876,349.54,197.601"/>
	<path fill="#F3C54A" d="M625.703,539.84c-35.548-3.019-94.789,34.338-115.367,46.953c-30.036,18.413-113.277,8.37-115.852-56.077
		c-2.574-64.447-92.681-134.752-117.568-154.84c-24.887-20.087,0.858-61.936,1.716-102.11c0.605-28.311-26.064-47.477-41.868-56.328
		c-9.038,11.191-18.745,21.042-29.453,32.357c-1.92,2.029-3.784,4.058-5.618,6.086c0.778,2.757,1.668,5.635,2.708,8.678
		c26.603,77.838,90.965,154.003,49.773,194.177c-11.91,11.616-23.385,26.033-32.484,41.264
		c23.882,68.332,64.287,134.995,127.722,182.533c10.417,0.757,22.87,1.373,37.911,1.767
		C511.377,687.547,593.074,629.45,625.703,539.84z"/>
	<path fill="#E8AF45" d="M377.322,637.011c-36.901-5.859-73.802-75.327-56.639-99.6c17.163-24.272,23.17-81.186-7.723-102.11
		c-25.288-17.128-78.742-147.515-97.311-194.275c-2.713,2.854-5.489,5.759-8.337,8.768c-1.92,2.029-3.784,4.058-5.618,6.086
		c0.778,2.757,1.668,5.635,2.708,8.678c26.603,77.838,90.965,154.003,49.773,194.177s-77.234,113.828-27.461,138.937
		c32.866,16.58,78.951,63.61,57.497,73.654c16.305,2.511,23.17,10.881,103.113,12.973c30.394,0.796,58.236-2.103,83.446-8.234
		C467.724,633.709,408.63,641.982,377.322,637.011z"/>
	<path fill="#EAAA50" d="M107.002,251.553c-4.938-2.034-10.374-2.251-14.511-0.386c-11.139,5.022-18.851-1.674-20.565-15.902
		c-0.972-8.069-9.106-13.443-15.969-16.587c-5.953,26.691-7.589,52.991-2.668,73.658c5.141,4.185,8.501-14.193,18.808-7.975
		c25.802,15.566,26.761,11.39,38.388,9.23C105.937,280.118,104.886,266.733,107.002,251.553z"/>
	<path fill="#E69E50" d="M528.117,143.865c-32.088-43.051-64.849-73.492-97.353-94.016c-1.84,10.048-0.108,24.777,16.069,41.457
		c30.036,30.968,78.093,38.501,75.518,56.914c-1.854,13.261,15.876,25.219,30.432,30.873
		C545.078,167.345,536.859,155.594,528.117,143.865z"/>
</g>
</svg>
