<?xml version="1.0" encoding="utf-8"?>
<!-- Generator: Adobe Illustrator 17.0.0, SVG Export Plug-In . SVG Version: 6.00 Build 0)  -->
<!DOCTYPE svg PUBLIC "-//W3C//DTD SVG 1.1//EN" "http://www.w3.org/Graphics/SVG/1.1/DTD/svg11.dtd">
<svg version="1.1" id="Слой_1" xmlns="http://www.w3.org/2000/svg" xmlns:xlink="http://www.w3.org/1999/xlink" x="0px" y="0px"
	 width="700px" height="700px" viewBox="0 0 700 700" enable-background="new 0 0 700 700" xml:space="preserve">
<path fill="#305149" stroke="#305149" stroke-miterlimit="10" d="M343.979,289.706c0,0,50.828,108.912,117.657,154.226
	S351,700,351,700h72c0,0,143.116-194.06,52.755-258.453s-76.377-139.348-69.653-151.841
	C415.514,272.216,338.331,266.651,343.979,289.706z"/>
<path fill="#242929" d="M397.003,341.761c-6.58-17.906,5.471-53.231,7.689-59.431c-7.056-6.755-29.554-9.731-45.164-6.727
	c-5.728,3.503-10.993,8.47-15.198,14.843c4.004,8.391,42.147,86.652,94.269,134.963c1.081-6.355-1.055-14.155-4.868-22.505
	c-10.59-12.973-17.977-25.797-23.004-37.912C404.495,355.711,399.11,347.496,397.003,341.761z"/>
<g>
	<path fill="#9F7EB6" d="M501.904,103.329c-65.042,71.927-40.988,85.132-64.637,114.425c-13.34,16.523-32.018,43.611-43.443,63.255
		c2.212,0.85,4.288,1.995,6.183,3.509c0.601,0.48,1.034,0.992,1.334,1.515c7.132,0.614,14.26,1.286,21.399,1.791
		c55.937-30.794,125.046-86.727,151.144-128.803C628.72,70.618,566.947,31.402,501.904,103.329z"/>
	<path fill="#BC9AC6" d="M535.054,72.676c-9.413-63.598-81.89-15.105-81.89-15.105c-56.476,58.829-99.773,93.808-95.067,177.281
		c0.87,15.438,1.486,27.695,2.318,37.172c1.425-0.079,2.853-0.119,4.271-0.126c1.818-0.008,3.204,0.546,4.171,1.394
		c6.387-0.1,12.871,1.628,16.736,5.914c4.648,0.393,8.943,1.624,12.663,4.053c7.31-5.201,16.089-11.61,26.671-18.993
		c64.947-45.314,95.067-100.962,95.067-100.167C519.994,164.894,544.467,136.275,535.054,72.676z"/>
	<path fill="#CF95C1" d="M453.165,33.722c-83.772-58.829-129.894,2.385-129.894,2.385c-36.709,24.644-54.593,95.398-42.357,143.891
		c12.236,48.494,30.12,27.029,57.417,89.038c1.406,3.193,2.774,6.098,4.106,8.737c1.022-1.17,2.423-2.183,4.243-2.947
		c5.556-2.333,11.869-2.899,18.006-2.928c1.82-0.008,3.208,0.547,4.175,1.398c6.366-0.093,12.824,1.638,16.689,5.906
		c0.454,0.038,0.906,0.083,1.353,0.137c2.611-3.801,5.219-7.453,7.903-10.303C427.751,234.057,536.937,92.551,453.165,33.722z"/>
	<path fill="#D3A1C8" d="M355.274,54.392c-49.887-84.268-125.187-12.72-125.187-12.72c-68.712,95.398,46.122,195.565,94.126,239.289
		c4.376,3.986,8.363,7.341,12.001,10.147c1.518-0.505,3.036-1.01,4.556-1.507c0.345-0.298,0.688-0.596,1.032-0.895
		c-2.872-5.105-1.719-11.109,4.879-13.88c5.556-2.333,11.869-2.899,18.006-2.928c1.829-0.008,3.221,0.552,4.189,1.41
		c0.734-0.011,1.469-0.011,2.201,0.027C369.329,244.445,403.925,136.572,355.274,54.392z"/>
	<path fill="#C294C1" d="M346.681,274.826c3.46-1.453,7.213-2.22,11.035-2.599c-34.791-28.744-108.418-76.043-120.247-92.167
		C221.28,157.993,173.361,68.2,130.472,66.578S83.25,129.12,83.25,129.12c3.611,89.219,180.848,154.022,224.728,166.876
		c0.627-0.173,1.328-0.266,2.115-0.248c4.368,0.1,8.702-0.048,13.016-0.349c0.623-0.455,1.384-0.829,2.325-1.059
		c5.204-1.275,10.251-3.073,15.339-4.741c0.343-0.297,0.686-0.594,1.028-0.892C338.929,283.602,340.082,277.597,346.681,274.826z"/>
	<path fill="#E1ABCC" d="M346.681,274.826c4.102-1.723,8.617-2.478,13.169-2.769c-34.191-58.876-54.3-201.717-115.644-236.744
		C177.376-2.847,124.808,64.74,123.724,72.676c-11.295,82.678,132.718,171.716,181.663,207.49
		c7.897,5.772,15.288,10.252,22.075,13.648c4.488-1.217,8.878-2.761,13.3-4.206c0.347-0.3,0.693-0.6,1.039-0.901
		C338.929,283.602,340.082,277.597,346.681,274.826z"/>
</g>
<path fill="#82599F" d="M346.681,274.826c3.461-1.454,7.217-2.221,11.04-2.6c-6.341-5.238-13.963-11.089-22.276-17.26
	c-0.492,2.589-1.072,5.185-1.82,7.71c-5.648,19.079-33.885,7.155-50.828-4.77c-16.943-11.925-17.884-9.54-18.825,3.18
	c-0.941,12.72-5.648,14.31-17.884,4.77c-12.236-9.54-16.943-18.285-36.709-16.695c-4.866,0.391-7.271,1.652-8.144,3.328
	c43.976,22.716,87.797,37.956,106.745,43.506c0.626-0.173,1.328-0.266,2.114-0.248c4.368,0.1,8.702-0.048,13.016-0.349
	c0.623-0.455,1.384-0.829,2.325-1.059c5.204-1.275,10.251-3.073,15.339-4.741c0.343-0.297,0.686-0.594,1.028-0.892
	C338.929,283.602,340.082,277.597,346.681,274.826z"/>
<path fill="#82599F" d="M346.681,274.826c4.1-1.722,8.613-2.478,13.163-2.769c-6.611-11.379-12.696-25.892-18.653-42.167
	c-4.182,6.979-3.982,20.678-7.566,32.786c-5.648,19.079-33.885,7.155-50.828-4.77c-11.32-7.968-15.494-9.539-17.3-5.915
	c15.849,11.283,29.865,20.848,39.89,28.175c7.897,5.772,15.288,10.252,22.075,13.648c4.488-1.217,8.878-2.761,13.3-4.206
	c0.347-0.3,0.693-0.6,1.039-0.901C338.929,283.602,340.082,277.597,346.681,274.826z"/>
<path fill="#82599F" d="M375.449,233.336c-6.189-2.623-11.616-4.42-21.116-7.229c-18.825-5.565-15.06,17.49-20.708,36.569
	c-2.605,8.799-10.018,10.995-18.908,9.647c3.376,3.08,6.562,5.966,9.496,8.638c4.376,3.986,8.363,7.341,12.001,10.147
	c1.518-0.505,3.036-1.01,4.556-1.507c0.345-0.298,0.688-0.596,1.032-0.895c-2.872-5.105-1.719-11.109,4.879-13.88
	c5.556-2.333,11.869-2.899,18.006-2.928c1.829-0.008,3.221,0.552,4.189,1.41c0.735-0.011,1.47-0.011,2.203,0.027
	C370.593,265.326,372.894,251.26,375.449,233.336z"/>
<path fill="#82599F" d="M400.454,245.187c-24.473-11.925-27.297-13.515-46.122-19.08c-18.045-5.334-15.338,15.627-20.057,34.178
	c1.329,2.721,2.68,5.625,4.056,8.751c1.406,3.193,2.774,6.098,4.106,8.737c1.022-1.17,2.423-2.183,4.243-2.947
	c5.556-2.333,11.869-2.899,18.006-2.928c1.82-0.008,3.208,0.547,4.175,1.398c6.366-0.093,12.824,1.638,16.689,5.906
	c0.454,0.038,0.906,0.083,1.353,0.137c2.611-3.801,5.219-7.453,7.903-10.303c4.349-4.617,10.027-11.093,16.413-18.987
	C408.042,248.718,404.453,247.136,400.454,245.187z"/>
<path fill="#82599F" d="M400.454,245.187c-22.888-11.153-26.843-13.266-42.659-18.045c0.054,2.524,0.154,5.093,0.302,7.71
	c0.87,15.438,1.486,27.695,2.318,37.172c1.425-0.079,2.853-0.119,4.271-0.126c1.818-0.008,3.204,0.546,4.171,1.394
	c6.387-0.1,12.871,1.628,16.736,5.914c4.648,0.393,8.943,1.624,12.663,4.053c7.31-5.201,16.089-11.61,26.671-18.993
	C434.34,255.522,424.927,257.112,400.454,245.187z"/>
<path fill="#82599F" d="M451.282,257.112c-12.236,11.925-35.768,15.9-26.355,7.155c7.571-7.034,2.954-7.386-11.876-13.459
	c-7.132,10.476-13.95,21.13-19.226,30.201c2.212,0.85,4.287,1.995,6.183,3.509c0.601,0.48,1.034,0.992,1.335,1.515
	c7.131,0.614,14.257,1.286,21.395,1.791c20.957-11.538,43.76-26.6,65.462-43.145C479.214,238.935,462.763,245.924,451.282,257.112z"
	/>
<path fill="#293548" d="M433.215,238.295c0,0-28.404,17.323-16.119,7.303s18.278-11.569,34.063-11.085
	c15.785,0.484,49.382-22.745,27.735-1.749c-5.345,5.185-21.349,14.074-24.495,18.31s-29.968,7.745-23.137,9.688
	c0,0,25.576,2.516,54.966-14.777c29.39-17.293,22.728-0.17-25.965,29.527c-48.692,29.697-65.905,7.681-78.464,5.478
	c-12.559-2.203-26.334-3.491-31.638,5.01c-5.304,8.501-29.047,19.625-74.895,6.091s-36.568-32.898-67.449-26.914
	s29.428-18.158,42.793-7.352c13.366,10.806,27.177,11.229,28.127,12.125c0.949,0.895-23.306-9.378-23.549-26.713
	c-0.243-17.335,10.126-5.754,5.899-22.345c-4.227-16.591,17.704,24.801,26.694,22.477c8.99-2.324,8.284,14.116,17.312,10.927
	s2.828-19.84,14.014-27.294c11.187-7.455,27.772-2.614,28.553-20.784c0.78-18.17,14.836,9.376,4.338,23.783s6,9,16,24
	c4.412,6.618,0.477-0.661-2-12s-28.538-28.298-1.959-49.143c26.579-20.845-16.231,9.899,24.498,27.608s16.992,18.367,16.383,32.558"
	/>
<g>
	<path fill="#305149" d="M403.278,239.622c1.642,1.079,3.853,2.245,6.237,3.237c4.526-6.054,7.194-10.146-20.975-22.394
		c-40.729-17.709,2.081-48.453-24.498-27.608c-5.705,4.474-8.665,8.752-9.781,12.825c-2.914-5.566-6.265-7.225-6.599,0.535
		c-0.781,18.17-17.366,13.33-28.553,20.784c-10.755,7.167-5.447,22.827-13.042,26.86c13.126-5.735,7.05,5.205,15.322-12.649
		c8.471-18.285,12.236-17.49,27.297-21.464s14.119,3.975,20.708-4.77c1.092-1.449,1.686-2.475,1.997-3.149
		c-0.063,1.754,1.006,5.647,8.357,10.304C394.807,231.672,394.807,234.057,403.278,239.622z"/>
	<path fill="#305149" d="M425.125,239.736c-2.302,1.424-4.735,3.21-7.468,5.415C421.961,245.636,425.321,244.425,425.125,239.736z"
		/>
	<path fill="#305149" d="M287.783,243.369c-8.99,2.324-30.921-39.068-26.694-22.477c4.227,16.591-6.142,5.01-5.899,22.345
		c0.204,14.56,17.344,24.135,22.264,26.298c-3.864-0.851-15.511-2.549-26.842-11.71c-13.366-10.806-73.674,13.337-42.793,7.353
		c14.214-2.755,23.625-0.116,28.857,5.449c8.143,0.005,12.674,1.144,20.708,3.18c18.825,4.77,21.649,9.54,26.355-3.18
		c4.706-12.72-26.355-19.08-12.236-28.619c14.119-9.54,19.182,19.013,33.593,12.289
		C296.067,257.485,296.773,241.045,287.783,243.369z"/>
</g>
<path fill="#1D241D" d="M486.228,245.984c-2.769,1.629-5.504,3.082-8.187,4.378c-2.81,6.132-6.075,11.992-12.64,15.494
	c-17.884,9.54-18.825,3.975-53.652,10.335s-44.239-8.745-71.536-3.18c-17.002,3.466-23.065,15.408-28.238,25.439
	c23.706-0.33,34.555-6.633,38.186-12.451c5.304-8.501,19.079-7.213,31.638-5.01c12.559,2.203,30.225,24.95,78.464-5.478
	C534,229,515.619,228.691,486.228,245.984z"/>
<path fill="#DFC9DE" d="M230.261,28.763c-44.869-16.686-81.597,11.946-97.724,30.58c7.432,3.027,23.805,10.356,31.134,18.867
	c9.638,11.193,34.94,2.035,36.144-18.316c1.205-20.351-3.614-22.387,16.867-27.475C220.724,31.415,225.47,30.172,230.261,28.763z"/>
<path fill="#D9BCDA" d="M251.275,26.352c9.728,2.337,26.05,5.727,36.492,5.049c14.792-0.961,15.621-5.554,28.86-13.776
	C292.434,7.781,267.986,16.702,251.275,26.352z"/>
<path fill="#305149" stroke="#305149" stroke-miterlimit="10" d="M493,462c0,0,1-140,58-54s-33,17-43,42s-4,31-18,29
	S493,462,493,462z"/>
<path fill="#305149" stroke="#305149" stroke-miterlimit="10" d="M470,563c0,0,29-61-35-63s-86,6-85,35s-12,54,71,10s7,18,39,22
	s-5,19,16,14S470,563,470,563z"/>
<path fill="#2E4148" stroke="#305149" stroke-miterlimit="10" d="M457.123,646.664c-20.417,8.859-44.542,7.079-66.907,2.942
	C368.381,679.358,351,700,351,700h72C423,700,439.12,678.142,457.123,646.664z"/>
<path fill="#2E443E" stroke="#305149" stroke-miterlimit="10" d="M449.626,531.386c-0.319-10.347-25.861-8.689-36.626,3.614
	c-10.736,12.269-46.065-0.104-62.938-4.78c-0.097,1.527-0.12,3.117-0.062,4.78c1,29-12,54,71,10
	C434.215,537.994,443.395,533.679,449.626,531.386z"/>
<path fill="#324132" stroke="#305149" stroke-miterlimit="10" d="M564.987,431.524C542.043,443.429,542.753,425.029,526,427
	c-7.157,0.842-9.402,8.714-9.731,17.348C537.147,441.672,584.964,472.036,564.987,431.524z"/>
</svg>
